M48
; DRILL file {KiCad (5.1.9-0-10_14)} date Friday, January 15, 2021 at 04:46:20 PM
; FORMAT={-:-/ absolute / inch / decimal}
; #@! TF.CreationDate,2021-01-15T16:46:20+00:00
; #@! TF.GenerationSoftware,Kicad,Pcbnew,(5.1.9-0-10_14)
; #@! TF.FileFunction,Plated,1,2,PTH
FMAT,2
INCH
T1C0.0157
T2C0.0236
T3C0.0276
T4C0.0315
T5C0.0394
T6C0.0433
T7C0.0579
%
G90
G05
T1
X1.5327Y-0.998
X1.5329Y-1.0502
X1.5661Y-0.998
X1.5663Y-1.0502
X1.5996Y-0.998
X1.5998Y-1.0502
X1.6331Y-0.998
X1.6333Y-1.0502
X1.6665Y-0.998
X1.6667Y-1.0502
X1.7Y-0.998
X1.7002Y-1.0502
X1.7335Y-0.998
X1.7337Y-1.0502
X1.7671Y-0.998
X1.7671Y-1.0502
X2.0475Y-1.635
X2.0825Y-2.625
T2
X2.23Y-1.36
X2.23Y-1.4191
T3
X1.19Y-2.2
X1.19Y-2.5
X1.29Y-1.56
X1.29Y-1.77
X1.39Y-1.0
X1.39Y-1.3
X1.59Y-1.56
X1.59Y-1.77
X1.71Y-1.56
X1.91Y-1.0
X1.91Y-1.3
X2.01Y-1.56
X2.1371Y-0.89
X2.3379Y-0.89
T4
X1.37Y-2.7266
X1.37Y-2.825
X1.37Y-2.9766
X1.37Y-3.075
X1.39Y-1.42
X1.59Y-1.42
X1.595Y-2.8079
X1.595Y-3.0
X1.71Y-1.42
X1.82Y-1.725
X1.82Y-1.825
X1.82Y-1.925
X1.82Y-2.025
X1.82Y-2.125
X1.82Y-2.225
X1.82Y-2.325
X1.82Y-2.425
X1.82Y-2.525
X1.82Y-2.625
X1.82Y-2.725
X1.82Y-2.825
X1.82Y-2.925
X1.82Y-3.025
X1.82Y-3.125
X1.82Y-3.225
X1.82Y-3.325
X1.82Y-3.425
X1.82Y-3.525
X1.82Y-3.625
X1.91Y-1.42
X2.14Y-1.03
X2.14Y-1.2
X2.3369Y-1.03
X2.3369Y-1.2
X2.42Y-1.725
X2.42Y-1.825
X2.42Y-1.925
X2.42Y-2.025
X2.42Y-2.125
X2.42Y-2.225
X2.42Y-2.325
X2.42Y-2.425
X2.42Y-2.525
X2.42Y-2.625
X2.42Y-2.725
X2.42Y-2.825
X2.42Y-2.925
X2.42Y-3.025
X2.42Y-3.125
X2.42Y-3.225
X2.42Y-3.325
X2.42Y-3.425
X2.42Y-3.525
X2.42Y-3.625
X2.76Y-3.59
X2.76Y-3.79
X3.51Y-1.31
X3.51Y-1.51
X3.7Y-4.33
X3.7Y-4.53
X3.885Y-2.0725
X3.885Y-2.2725
X4.075Y-2.83
X4.075Y-3.03
X4.26Y-1.31
X4.26Y-1.51
X4.2675Y-4.8
X4.4475Y-3.59
X4.4475Y-3.79
X4.4675Y-4.8
X4.635Y-2.0725
X4.635Y-2.2725
X4.8225Y-2.83
X4.8225Y-3.03
X5.0125Y-1.31
X5.0125Y-1.51
X5.2Y-3.59
X5.2Y-3.79
X5.385Y-2.0725
X5.385Y-2.2725
X5.5725Y-2.83
X5.5725Y-3.03
X5.5725Y-4.33
X5.5725Y-4.53
X5.76Y-1.31
X5.76Y-1.51
X5.95Y-3.59
X5.95Y-3.79
X6.1375Y-2.0725
X6.1375Y-2.2725
X6.325Y-2.83
X6.325Y-3.03
X6.51Y-1.31
X6.51Y-1.51
X6.6975Y-3.59
X6.6975Y-3.79
X6.885Y-2.0725
X6.885Y-2.2725
X7.07Y-2.83
X7.07Y-3.03
X7.2575Y-1.31
X7.2575Y-1.51
X7.4475Y-3.59
X7.4475Y-3.79
X7.635Y-2.0725
X7.635Y-2.2725
X7.82Y-2.83
X7.82Y-3.03
X8.01Y-1.31
X8.01Y-1.51
X8.2Y-3.59
X8.2Y-3.79
X8.3875Y-2.0725
X8.3875Y-2.2725
X8.5725Y-2.83
X8.5725Y-3.03
X8.76Y-1.31
X8.76Y-1.51
X8.9475Y-3.59
X8.9475Y-3.79
X9.135Y-2.0725
X9.135Y-2.2725
X9.32Y-2.83
X9.32Y-3.03
X9.5175Y-1.31
X9.5175Y-1.51
X9.6975Y-3.59
X9.6975Y-3.79
X9.8825Y-2.0725
X9.8825Y-2.2725
X10.075Y-2.83
X10.075Y-3.03
X10.26Y-1.31
X10.26Y-1.51
X10.26Y-4.33
X10.26Y-4.53
X10.4475Y-3.59
X10.4475Y-3.79
X10.635Y-2.0725
X10.635Y-2.2725
X10.735Y-4.8
X10.825Y-2.83
X10.825Y-3.03
X10.935Y-4.8
X11.01Y-1.31
X11.01Y-1.51
X11.195Y-3.59
X11.195Y-3.79
X11.385Y-2.0725
X11.385Y-2.2725
X11.485Y-4.8
X11.575Y-2.83
X11.575Y-3.03
X11.685Y-4.8
X11.76Y-1.31
X11.76Y-1.51
X11.9525Y-3.59
X11.9525Y-3.79
X12.135Y-2.0725
X12.135Y-2.2725
X12.3225Y-2.83
X12.3225Y-3.03
X12.51Y-1.31
X12.51Y-1.51
X12.51Y-4.33
X12.51Y-4.53
X12.885Y-2.0725
X12.885Y-2.2725
X13.26Y-4.33
X13.26Y-4.53
X13.2625Y-3.59
X13.2625Y-3.79
X14.0075Y-2.0725
X14.0075Y-2.2725
X14.01Y-1.31
X14.01Y-1.51
X14.01Y-2.83
X14.01Y-3.03
X14.01Y-3.59
X14.01Y-3.79
X14.0125Y-4.33
X14.0125Y-4.53
X14.76Y-1.31
X14.76Y-1.51
X14.76Y-2.0725
X14.76Y-2.2725
X14.76Y-3.59
X14.76Y-3.79
X14.7625Y-2.83
X14.7625Y-3.03
X14.7625Y-4.33
X14.7625Y-4.53
T5
X1.46Y-2.2
X1.46Y-2.3
X1.46Y-2.4
X1.56Y-2.2
X1.56Y-2.3
X1.56Y-2.4
T6
X1.3541Y-3.2628
X1.3541Y-3.44
X1.3641Y-3.68
X1.3641Y-3.8572
X1.61Y-3.2628
X1.61Y-3.44
X1.62Y-3.68
X1.62Y-3.8572
T7
X2.985Y-1.325
X3.0788Y-3.575
X3.0788Y-2.825
X3.08Y-4.325
X3.1725Y-2.075
X3.1725Y-4.325
X3.235Y-1.225
X3.2663Y-2.825
X3.3288Y-3.475
X3.3288Y-2.725
X3.33Y-4.225
X3.4225Y-1.975
X3.4225Y-4.225
X3.4538Y-3.575
X3.5163Y-2.725
X3.7038Y-3.475
X3.735Y-1.325
X3.9225Y-3.575
X3.985Y-1.225
X4.0175Y-4.325
X4.11Y-2.075
X4.1725Y-3.475
X4.2675Y-4.225
X4.2975Y-2.825
X4.2975Y-4.325
X4.36Y-1.975
X4.485Y-1.325
X4.5475Y-2.725
X4.5475Y-4.225
X4.6725Y-3.575
X4.735Y-1.225
X4.86Y-2.075
X4.9225Y-3.475
X4.955Y-4.325
X5.0475Y-2.825
X5.11Y-1.975
X5.205Y-4.225
X5.235Y-1.325
X5.2975Y-2.725
X5.4225Y-3.575
X5.485Y-1.225
X5.61Y-2.075
X5.6725Y-3.475
X5.7975Y-2.825
X5.86Y-1.975
X5.985Y-1.325
X6.0475Y-2.725
X6.1725Y-3.575
X6.235Y-1.225
X6.36Y-2.075
X6.4225Y-3.475
X6.5475Y-2.825
X6.61Y-1.975
X6.735Y-1.325
X6.7975Y-2.725
X6.9225Y-3.575
X6.985Y-1.225
X7.11Y-2.075
X7.1725Y-3.475
X7.2975Y-2.825
X7.36Y-1.975
X7.485Y-1.325
X7.485Y-4.325
X7.5475Y-2.725
X7.6725Y-3.575
X7.735Y-1.225
X7.735Y-4.225
X7.7675Y-4.325
X7.86Y-2.075
X7.9225Y-3.475
X8.0175Y-4.225
X8.0475Y-2.825
X8.11Y-1.975
X8.235Y-1.325
X8.2975Y-2.725
X8.4225Y-3.575
X8.485Y-1.225
X8.61Y-2.075
X8.6725Y-3.475
X8.7975Y-2.825
X8.86Y-1.975
X8.985Y-1.325
X9.0475Y-2.725
X9.1725Y-3.575
X9.235Y-1.225
X9.36Y-2.075
X9.4225Y-3.475
X9.5475Y-2.825
X9.61Y-1.975
X9.735Y-1.325
X9.7975Y-2.725
X9.9225Y-3.575
X9.985Y-1.225
X10.11Y-2.075
X10.1725Y-3.475
X10.2975Y-2.825
X10.36Y-1.975
X10.485Y-1.325
X10.485Y-4.325
X10.5475Y-2.725
X10.6725Y-3.575
X10.6725Y-4.325
X10.735Y-1.225
X10.735Y-4.225
X10.86Y-2.075
X10.9225Y-3.475
X10.9225Y-4.225
X11.0475Y-2.825
X11.11Y-1.975
X11.235Y-1.325
X11.235Y-4.325
X11.2975Y-2.725
X11.4225Y-3.575
X11.485Y-1.225
X11.485Y-4.225
X11.61Y-2.075
X11.6725Y-3.475
X11.7975Y-2.825
X11.7975Y-4.325
X11.86Y-1.975
X11.985Y-1.325
X11.985Y-4.325
X12.0475Y-2.725
X12.0475Y-4.225
X12.235Y-1.225
X12.235Y-4.225
X12.36Y-2.075
X12.4538Y-3.575
X12.5475Y-2.825
X12.61Y-1.975
X12.7038Y-3.475
X12.735Y-4.325
X12.7975Y-2.725
X12.985Y-4.225
X13.0163Y-2.825
X13.11Y-1.325
X13.2663Y-2.725
X13.2975Y-2.075
X13.36Y-1.225
X13.485Y-3.575
X13.485Y-4.325
X13.5475Y-1.975
X13.6412Y-2.4
X13.735Y-3.475
X13.735Y-4.225
X13.7412Y-2.65
X14.235Y-1.325
X14.235Y-2.075
X14.235Y-2.825
X14.235Y-3.575
X14.235Y-4.325
X14.485Y-1.225
X14.485Y-1.975
X14.485Y-2.725
X14.485Y-3.475
X14.485Y-4.225
T2
G00X1.4797Y-0.8943
M15
G01X1.4797Y-0.8628
M16
G05
G00X1.4797Y-1.0411
M15
G01X1.4797Y-0.982
M16
G05
G00X1.8203Y-0.8943
M15
G01X1.8203Y-0.8628
M16
G05
G00X1.8203Y-1.0411
M15
G01X1.8203Y-0.982
M16
G05
T0
M30
