G04 #@! TF.GenerationSoftware,KiCad,Pcbnew,(5.1.9-0-10_14)*
G04 #@! TF.CreationDate,2021-01-15T16:46:18+00:00*
G04 #@! TF.ProjectId,Draytronics Jade,44726179-7472-46f6-9e69-6373204a6164,rev?*
G04 #@! TF.SameCoordinates,Original*
G04 #@! TF.FileFunction,Copper,L2,Bot*
G04 #@! TF.FilePolarity,Positive*
%FSLAX46Y46*%
G04 Gerber Fmt 4.6, Leading zero omitted, Abs format (unit mm)*
G04 Created by KiCad (PCBNEW (5.1.9-0-10_14)) date 2021-01-15 16:46:18*
%MOMM*%
%LPD*%
G01*
G04 APERTURE LIST*
G04 #@! TA.AperFunction,EtchedComponent*
%ADD10C,0.010000*%
G04 #@! TD*
G04 #@! TA.AperFunction,ComponentPad*
%ADD11C,2.250000*%
G04 #@! TD*
G04 #@! TA.AperFunction,ComponentPad*
%ADD12C,1.500000*%
G04 #@! TD*
G04 #@! TA.AperFunction,ComponentPad*
%ADD13C,0.650000*%
G04 #@! TD*
G04 #@! TA.AperFunction,ComponentPad*
%ADD14O,0.900000X2.400000*%
G04 #@! TD*
G04 #@! TA.AperFunction,ComponentPad*
%ADD15O,0.900000X1.700000*%
G04 #@! TD*
G04 #@! TA.AperFunction,ComponentPad*
%ADD16O,1.600000X1.600000*%
G04 #@! TD*
G04 #@! TA.AperFunction,ComponentPad*
%ADD17R,1.600000X1.600000*%
G04 #@! TD*
G04 #@! TA.AperFunction,ComponentPad*
%ADD18C,2.000000*%
G04 #@! TD*
G04 #@! TA.AperFunction,ComponentPad*
%ADD19O,1.400000X1.400000*%
G04 #@! TD*
G04 #@! TA.AperFunction,ComponentPad*
%ADD20C,1.400000*%
G04 #@! TD*
G04 #@! TA.AperFunction,ComponentPad*
%ADD21C,1.700000*%
G04 #@! TD*
G04 #@! TA.AperFunction,ComponentPad*
%ADD22C,1.600000*%
G04 #@! TD*
G04 #@! TA.AperFunction,ComponentPad*
%ADD23C,1.200000*%
G04 #@! TD*
G04 #@! TA.AperFunction,ComponentPad*
%ADD24R,1.200000X1.200000*%
G04 #@! TD*
G04 #@! TA.AperFunction,ViaPad*
%ADD25C,0.800000*%
G04 #@! TD*
G04 #@! TA.AperFunction,Conductor*
%ADD26C,0.250000*%
G04 #@! TD*
G04 #@! TA.AperFunction,Conductor*
%ADD27C,0.381000*%
G04 #@! TD*
G04 APERTURE END LIST*
D10*
G36*
X38041845Y-102362043D02*
G01*
X38144836Y-102362251D01*
X38227218Y-102362737D01*
X38291385Y-102363617D01*
X38339732Y-102365005D01*
X38374656Y-102367016D01*
X38398550Y-102369765D01*
X38413810Y-102373366D01*
X38422832Y-102377934D01*
X38428010Y-102383585D01*
X38429784Y-102386622D01*
X38435003Y-102404307D01*
X38444198Y-102444093D01*
X38456782Y-102503095D01*
X38472166Y-102578428D01*
X38489763Y-102667206D01*
X38508986Y-102766543D01*
X38529246Y-102873554D01*
X38532591Y-102891447D01*
X38553003Y-102999042D01*
X38572614Y-103099077D01*
X38590822Y-103188727D01*
X38607026Y-103265170D01*
X38620625Y-103325582D01*
X38631018Y-103367138D01*
X38637603Y-103387016D01*
X38638319Y-103388054D01*
X38655162Y-103398109D01*
X38691931Y-103415777D01*
X38744855Y-103439514D01*
X38810169Y-103467776D01*
X38884104Y-103499019D01*
X38962893Y-103531700D01*
X39042767Y-103564273D01*
X39119960Y-103595196D01*
X39190704Y-103622924D01*
X39251231Y-103645913D01*
X39297773Y-103662619D01*
X39326563Y-103671498D01*
X39332462Y-103672522D01*
X39350497Y-103667031D01*
X39384404Y-103649379D01*
X39435016Y-103619038D01*
X39503164Y-103575485D01*
X39589680Y-103518192D01*
X39695397Y-103446636D01*
X39756802Y-103404600D01*
X39863187Y-103331547D01*
X39950624Y-103271603D01*
X40021116Y-103223519D01*
X40076667Y-103186045D01*
X40119281Y-103157933D01*
X40150961Y-103137934D01*
X40173711Y-103124799D01*
X40189536Y-103117279D01*
X40200439Y-103114125D01*
X40208424Y-103114087D01*
X40215495Y-103115918D01*
X40218441Y-103116869D01*
X40234672Y-103128110D01*
X40265601Y-103155079D01*
X40308839Y-103195345D01*
X40362001Y-103246480D01*
X40422698Y-103306052D01*
X40488543Y-103371632D01*
X40557150Y-103440789D01*
X40626130Y-103511094D01*
X40693097Y-103580116D01*
X40755662Y-103645425D01*
X40811440Y-103704591D01*
X40858041Y-103755184D01*
X40893080Y-103794774D01*
X40914169Y-103820931D01*
X40919400Y-103830398D01*
X40912412Y-103846400D01*
X40892503Y-103880797D01*
X40861255Y-103931130D01*
X40820250Y-103994941D01*
X40771071Y-104069773D01*
X40715299Y-104153168D01*
X40654517Y-104242667D01*
X40646350Y-104254594D01*
X40564373Y-104375078D01*
X40496790Y-104476346D01*
X40443746Y-104558163D01*
X40405391Y-104620298D01*
X40381870Y-104662519D01*
X40373332Y-104684592D01*
X40373300Y-104685334D01*
X40378310Y-104707823D01*
X40392290Y-104749146D01*
X40413662Y-104805663D01*
X40440848Y-104873729D01*
X40472271Y-104949703D01*
X40506354Y-105029943D01*
X40541518Y-105110806D01*
X40576187Y-105188649D01*
X40608782Y-105259830D01*
X40637726Y-105320706D01*
X40661442Y-105367636D01*
X40678352Y-105396977D01*
X40684936Y-105404883D01*
X40703101Y-105411111D01*
X40743264Y-105421172D01*
X40802418Y-105434432D01*
X40877556Y-105450257D01*
X40965673Y-105468013D01*
X41063761Y-105487065D01*
X41161186Y-105505369D01*
X41265960Y-105524924D01*
X41363682Y-105543511D01*
X41451325Y-105560528D01*
X41525862Y-105575372D01*
X41584264Y-105587441D01*
X41623506Y-105596134D01*
X41640125Y-105600648D01*
X41668700Y-105612655D01*
X41668700Y-106119568D01*
X41668636Y-106246754D01*
X41668379Y-106350886D01*
X41667827Y-106434312D01*
X41666878Y-106499378D01*
X41665433Y-106548431D01*
X41663390Y-106583818D01*
X41660648Y-106607885D01*
X41657106Y-106622979D01*
X41652663Y-106631446D01*
X41647218Y-106635634D01*
X41646475Y-106635968D01*
X41629230Y-106640427D01*
X41589959Y-106648932D01*
X41531609Y-106660896D01*
X41457128Y-106675731D01*
X41369462Y-106692850D01*
X41271559Y-106711667D01*
X41167794Y-106731326D01*
X41040655Y-106755502D01*
X40936687Y-106775882D01*
X40854015Y-106792895D01*
X40790764Y-106806966D01*
X40745059Y-106818523D01*
X40715024Y-106827993D01*
X40698784Y-106835803D01*
X40695496Y-106838863D01*
X40686906Y-106855806D01*
X40670281Y-106893240D01*
X40646931Y-106948042D01*
X40618166Y-107017084D01*
X40585298Y-107097242D01*
X40549637Y-107185390D01*
X40537767Y-107214980D01*
X40491060Y-107333092D01*
X40454447Y-107428928D01*
X40427615Y-107503382D01*
X40410251Y-107557349D01*
X40402041Y-107591723D01*
X40401490Y-107604140D01*
X40409837Y-107622438D01*
X40431054Y-107658918D01*
X40463450Y-107710951D01*
X40505333Y-107775909D01*
X40555011Y-107851162D01*
X40610792Y-107934083D01*
X40663250Y-108010822D01*
X40722634Y-108097659D01*
X40777148Y-108178534D01*
X40825155Y-108250927D01*
X40865015Y-108312316D01*
X40895089Y-108360181D01*
X40913738Y-108392000D01*
X40919399Y-108404825D01*
X40910670Y-108418396D01*
X40885773Y-108447724D01*
X40846650Y-108490753D01*
X40795241Y-108545426D01*
X40733484Y-108609687D01*
X40663321Y-108681479D01*
X40586692Y-108758747D01*
X40566003Y-108779424D01*
X40474061Y-108870879D01*
X40398256Y-108945594D01*
X40336996Y-109005017D01*
X40288689Y-109050596D01*
X40251742Y-109083779D01*
X40224563Y-109106015D01*
X40205559Y-109118751D01*
X40193138Y-109123435D01*
X40188178Y-109122981D01*
X40172261Y-109113873D01*
X40138019Y-109092044D01*
X40088028Y-109059209D01*
X40024863Y-109017083D01*
X39951096Y-108967381D01*
X39869304Y-108911819D01*
X39796732Y-108862184D01*
X39710307Y-108803364D01*
X39629726Y-108749420D01*
X39557555Y-108702001D01*
X39496361Y-108662758D01*
X39448712Y-108633340D01*
X39417175Y-108615397D01*
X39404992Y-108610400D01*
X39385443Y-108616186D01*
X39348298Y-108632108D01*
X39298191Y-108656007D01*
X39239753Y-108685724D01*
X39213209Y-108699757D01*
X39152801Y-108731027D01*
X39098850Y-108757017D01*
X39055933Y-108775667D01*
X39028625Y-108784918D01*
X39022753Y-108785482D01*
X39015866Y-108779646D01*
X39005049Y-108762851D01*
X38989724Y-108733787D01*
X38969314Y-108691145D01*
X38943242Y-108633615D01*
X38910930Y-108559886D01*
X38871802Y-108468649D01*
X38825280Y-108358593D01*
X38770788Y-108228409D01*
X38707748Y-108076786D01*
X38663978Y-107971102D01*
X38607728Y-107834776D01*
X38554437Y-107704945D01*
X38504894Y-107583573D01*
X38459887Y-107472627D01*
X38420205Y-107374068D01*
X38386637Y-107289863D01*
X38359971Y-107221976D01*
X38340997Y-107172371D01*
X38330502Y-107143012D01*
X38328600Y-107135797D01*
X38339687Y-107112586D01*
X38369953Y-107085108D01*
X38382575Y-107076465D01*
X38418707Y-107052221D01*
X38466252Y-107019028D01*
X38516276Y-106983147D01*
X38527871Y-106974674D01*
X38651267Y-106869037D01*
X38754977Y-106748937D01*
X38838327Y-106616758D01*
X38900641Y-106474883D01*
X38941245Y-106325693D01*
X38959463Y-106171573D01*
X38954621Y-106014903D01*
X38926044Y-105858068D01*
X38881916Y-105724740D01*
X38842167Y-105637644D01*
X38795461Y-105559177D01*
X38737119Y-105482587D01*
X38662462Y-105401126D01*
X38646100Y-105384594D01*
X38533554Y-105284532D01*
X38416331Y-105206402D01*
X38288657Y-105146757D01*
X38195250Y-105115668D01*
X38104453Y-105096764D01*
X37998460Y-105086315D01*
X37886024Y-105084320D01*
X37775900Y-105090780D01*
X37676842Y-105105695D01*
X37636450Y-105115668D01*
X37486831Y-105171447D01*
X37348663Y-105248192D01*
X37224005Y-105343701D01*
X37114917Y-105455774D01*
X37023462Y-105582208D01*
X36951698Y-105720802D01*
X36901687Y-105869354D01*
X36892192Y-105910833D01*
X36871820Y-106070414D01*
X36875860Y-106228713D01*
X36903350Y-106383246D01*
X36953329Y-106531532D01*
X37024838Y-106671087D01*
X37116915Y-106799429D01*
X37228600Y-106914075D01*
X37303828Y-106974674D01*
X37353099Y-107010261D01*
X37402076Y-107044689D01*
X37441824Y-107071700D01*
X37449125Y-107076465D01*
X37484441Y-107104263D01*
X37501976Y-107129332D01*
X37503100Y-107135797D01*
X37498348Y-107151402D01*
X37484621Y-107188489D01*
X37462705Y-107245096D01*
X37433391Y-107319257D01*
X37397466Y-107409008D01*
X37355719Y-107512384D01*
X37308940Y-107627422D01*
X37257916Y-107752156D01*
X37203438Y-107884622D01*
X37167721Y-107971102D01*
X37099074Y-108136718D01*
X37039334Y-108280081D01*
X36987923Y-108402500D01*
X36944265Y-108505287D01*
X36907782Y-108589750D01*
X36877897Y-108657201D01*
X36854033Y-108708948D01*
X36835614Y-108746302D01*
X36822061Y-108770573D01*
X36812798Y-108783070D01*
X36808946Y-108785482D01*
X36789915Y-108780996D01*
X36753271Y-108766209D01*
X36703589Y-108743180D01*
X36645445Y-108713969D01*
X36618490Y-108699757D01*
X36557893Y-108668202D01*
X36503635Y-108641536D01*
X36460348Y-108621919D01*
X36432662Y-108611508D01*
X36426707Y-108610400D01*
X36410752Y-108617383D01*
X36376521Y-108637232D01*
X36326581Y-108668299D01*
X36263498Y-108708932D01*
X36189840Y-108757482D01*
X36108173Y-108812299D01*
X36034967Y-108862184D01*
X35948446Y-108921325D01*
X35867801Y-108976037D01*
X35795608Y-109024606D01*
X35734439Y-109065316D01*
X35686871Y-109096453D01*
X35655478Y-109116300D01*
X35643521Y-109122981D01*
X35634288Y-109122437D01*
X35619429Y-109114711D01*
X35597352Y-109098355D01*
X35566463Y-109071921D01*
X35525170Y-109033961D01*
X35471882Y-108983027D01*
X35405004Y-108917671D01*
X35322946Y-108836445D01*
X35265696Y-108779424D01*
X35187706Y-108701073D01*
X35115680Y-108627663D01*
X35051557Y-108561252D01*
X34997278Y-108503895D01*
X34954783Y-108457649D01*
X34926011Y-108424571D01*
X34912903Y-108406716D01*
X34912300Y-108404825D01*
X34919294Y-108389560D01*
X34939185Y-108355987D01*
X34970333Y-108306625D01*
X35011100Y-108243997D01*
X35059846Y-108170623D01*
X35114933Y-108089023D01*
X35168449Y-108010822D01*
X35228181Y-107923351D01*
X35283289Y-107841248D01*
X35332083Y-107767142D01*
X35372868Y-107703661D01*
X35403955Y-107653435D01*
X35423650Y-107619092D01*
X35430209Y-107604140D01*
X35427890Y-107582252D01*
X35416624Y-107541363D01*
X35396098Y-107480579D01*
X35365999Y-107399005D01*
X35326013Y-107295748D01*
X35293932Y-107214980D01*
X35257650Y-107124924D01*
X35223739Y-107041850D01*
X35193509Y-106968885D01*
X35168271Y-106909153D01*
X35149335Y-106865781D01*
X35138014Y-106841894D01*
X35136203Y-106838863D01*
X35125513Y-106831657D01*
X35101864Y-106822980D01*
X35063381Y-106812407D01*
X35008190Y-106799510D01*
X34934414Y-106783863D01*
X34840179Y-106765038D01*
X34723609Y-106742608D01*
X34663905Y-106731326D01*
X34558790Y-106711410D01*
X34461003Y-106692611D01*
X34373493Y-106675518D01*
X34299205Y-106660717D01*
X34241089Y-106648795D01*
X34202090Y-106640340D01*
X34185225Y-106635968D01*
X34179649Y-106632144D01*
X34175089Y-106624329D01*
X34171441Y-106610176D01*
X34168606Y-106587338D01*
X34166483Y-106553469D01*
X34164969Y-106506221D01*
X34163966Y-106443249D01*
X34163370Y-106362205D01*
X34163082Y-106260744D01*
X34163000Y-106136517D01*
X34163000Y-105612655D01*
X34191575Y-105600648D01*
X34210373Y-105595620D01*
X34251136Y-105586657D01*
X34310836Y-105574361D01*
X34386446Y-105559336D01*
X34474938Y-105542182D01*
X34573286Y-105523503D01*
X34670513Y-105505369D01*
X34775172Y-105485682D01*
X34872651Y-105466701D01*
X34959945Y-105449062D01*
X35034047Y-105433398D01*
X35091951Y-105420344D01*
X35130650Y-105410534D01*
X35146763Y-105404883D01*
X35158416Y-105388897D01*
X35177898Y-105352960D01*
X35203631Y-105300713D01*
X35234038Y-105235800D01*
X35267542Y-105161862D01*
X35302564Y-105082543D01*
X35337528Y-105001484D01*
X35370856Y-104922328D01*
X35400969Y-104848718D01*
X35426292Y-104784296D01*
X35445246Y-104732704D01*
X35456253Y-104697585D01*
X35458400Y-104685334D01*
X35450854Y-104664597D01*
X35428317Y-104623697D01*
X35390935Y-104562868D01*
X35338855Y-104482341D01*
X35272226Y-104382349D01*
X35191194Y-104263124D01*
X35185350Y-104254594D01*
X35124034Y-104164483D01*
X35067523Y-104080158D01*
X35017399Y-104004077D01*
X34975245Y-103938698D01*
X34942643Y-103886478D01*
X34921174Y-103849876D01*
X34912421Y-103831349D01*
X34912300Y-103830398D01*
X34920991Y-103816269D01*
X34945476Y-103786831D01*
X34983365Y-103744515D01*
X35032272Y-103691750D01*
X35089810Y-103630967D01*
X35153590Y-103564596D01*
X35221227Y-103495067D01*
X35290332Y-103424810D01*
X35358519Y-103356256D01*
X35423399Y-103291834D01*
X35482586Y-103233974D01*
X35533692Y-103185107D01*
X35574331Y-103147662D01*
X35602114Y-103124070D01*
X35613258Y-103116869D01*
X35620699Y-103114672D01*
X35628416Y-103113973D01*
X35638415Y-103116020D01*
X35652699Y-103122063D01*
X35673272Y-103133349D01*
X35702140Y-103151128D01*
X35741305Y-103176649D01*
X35792772Y-103211159D01*
X35858546Y-103255908D01*
X35940631Y-103312145D01*
X36041031Y-103381118D01*
X36076287Y-103405349D01*
X36191984Y-103484350D01*
X36288053Y-103548797D01*
X36365312Y-103599206D01*
X36424579Y-103636095D01*
X36466671Y-103659980D01*
X36492405Y-103671377D01*
X36499227Y-103672562D01*
X36519473Y-103667445D01*
X36559069Y-103653848D01*
X36614240Y-103633314D01*
X36681213Y-103607391D01*
X36756213Y-103577624D01*
X36835468Y-103545557D01*
X36915204Y-103512737D01*
X36991647Y-103480710D01*
X37061022Y-103451019D01*
X37119557Y-103425212D01*
X37163478Y-103404833D01*
X37189011Y-103391428D01*
X37193268Y-103388327D01*
X37199219Y-103372462D01*
X37209065Y-103334425D01*
X37222202Y-103277044D01*
X37238029Y-103203145D01*
X37255942Y-103115554D01*
X37275338Y-103017100D01*
X37295616Y-102910609D01*
X37299154Y-102891660D01*
X37319475Y-102783684D01*
X37338863Y-102682905D01*
X37356731Y-102592213D01*
X37372491Y-102514495D01*
X37385557Y-102452639D01*
X37395340Y-102409534D01*
X37401254Y-102388068D01*
X37401802Y-102386835D01*
X37405991Y-102380588D01*
X37412815Y-102375487D01*
X37424671Y-102371415D01*
X37443955Y-102368256D01*
X37473063Y-102365895D01*
X37514392Y-102364217D01*
X37570337Y-102363104D01*
X37643296Y-102362443D01*
X37735663Y-102362116D01*
X37849836Y-102362008D01*
X37915849Y-102362000D01*
X38041845Y-102362043D01*
G37*
X38041845Y-102362043D02*
X38144836Y-102362251D01*
X38227218Y-102362737D01*
X38291385Y-102363617D01*
X38339732Y-102365005D01*
X38374656Y-102367016D01*
X38398550Y-102369765D01*
X38413810Y-102373366D01*
X38422832Y-102377934D01*
X38428010Y-102383585D01*
X38429784Y-102386622D01*
X38435003Y-102404307D01*
X38444198Y-102444093D01*
X38456782Y-102503095D01*
X38472166Y-102578428D01*
X38489763Y-102667206D01*
X38508986Y-102766543D01*
X38529246Y-102873554D01*
X38532591Y-102891447D01*
X38553003Y-102999042D01*
X38572614Y-103099077D01*
X38590822Y-103188727D01*
X38607026Y-103265170D01*
X38620625Y-103325582D01*
X38631018Y-103367138D01*
X38637603Y-103387016D01*
X38638319Y-103388054D01*
X38655162Y-103398109D01*
X38691931Y-103415777D01*
X38744855Y-103439514D01*
X38810169Y-103467776D01*
X38884104Y-103499019D01*
X38962893Y-103531700D01*
X39042767Y-103564273D01*
X39119960Y-103595196D01*
X39190704Y-103622924D01*
X39251231Y-103645913D01*
X39297773Y-103662619D01*
X39326563Y-103671498D01*
X39332462Y-103672522D01*
X39350497Y-103667031D01*
X39384404Y-103649379D01*
X39435016Y-103619038D01*
X39503164Y-103575485D01*
X39589680Y-103518192D01*
X39695397Y-103446636D01*
X39756802Y-103404600D01*
X39863187Y-103331547D01*
X39950624Y-103271603D01*
X40021116Y-103223519D01*
X40076667Y-103186045D01*
X40119281Y-103157933D01*
X40150961Y-103137934D01*
X40173711Y-103124799D01*
X40189536Y-103117279D01*
X40200439Y-103114125D01*
X40208424Y-103114087D01*
X40215495Y-103115918D01*
X40218441Y-103116869D01*
X40234672Y-103128110D01*
X40265601Y-103155079D01*
X40308839Y-103195345D01*
X40362001Y-103246480D01*
X40422698Y-103306052D01*
X40488543Y-103371632D01*
X40557150Y-103440789D01*
X40626130Y-103511094D01*
X40693097Y-103580116D01*
X40755662Y-103645425D01*
X40811440Y-103704591D01*
X40858041Y-103755184D01*
X40893080Y-103794774D01*
X40914169Y-103820931D01*
X40919400Y-103830398D01*
X40912412Y-103846400D01*
X40892503Y-103880797D01*
X40861255Y-103931130D01*
X40820250Y-103994941D01*
X40771071Y-104069773D01*
X40715299Y-104153168D01*
X40654517Y-104242667D01*
X40646350Y-104254594D01*
X40564373Y-104375078D01*
X40496790Y-104476346D01*
X40443746Y-104558163D01*
X40405391Y-104620298D01*
X40381870Y-104662519D01*
X40373332Y-104684592D01*
X40373300Y-104685334D01*
X40378310Y-104707823D01*
X40392290Y-104749146D01*
X40413662Y-104805663D01*
X40440848Y-104873729D01*
X40472271Y-104949703D01*
X40506354Y-105029943D01*
X40541518Y-105110806D01*
X40576187Y-105188649D01*
X40608782Y-105259830D01*
X40637726Y-105320706D01*
X40661442Y-105367636D01*
X40678352Y-105396977D01*
X40684936Y-105404883D01*
X40703101Y-105411111D01*
X40743264Y-105421172D01*
X40802418Y-105434432D01*
X40877556Y-105450257D01*
X40965673Y-105468013D01*
X41063761Y-105487065D01*
X41161186Y-105505369D01*
X41265960Y-105524924D01*
X41363682Y-105543511D01*
X41451325Y-105560528D01*
X41525862Y-105575372D01*
X41584264Y-105587441D01*
X41623506Y-105596134D01*
X41640125Y-105600648D01*
X41668700Y-105612655D01*
X41668700Y-106119568D01*
X41668636Y-106246754D01*
X41668379Y-106350886D01*
X41667827Y-106434312D01*
X41666878Y-106499378D01*
X41665433Y-106548431D01*
X41663390Y-106583818D01*
X41660648Y-106607885D01*
X41657106Y-106622979D01*
X41652663Y-106631446D01*
X41647218Y-106635634D01*
X41646475Y-106635968D01*
X41629230Y-106640427D01*
X41589959Y-106648932D01*
X41531609Y-106660896D01*
X41457128Y-106675731D01*
X41369462Y-106692850D01*
X41271559Y-106711667D01*
X41167794Y-106731326D01*
X41040655Y-106755502D01*
X40936687Y-106775882D01*
X40854015Y-106792895D01*
X40790764Y-106806966D01*
X40745059Y-106818523D01*
X40715024Y-106827993D01*
X40698784Y-106835803D01*
X40695496Y-106838863D01*
X40686906Y-106855806D01*
X40670281Y-106893240D01*
X40646931Y-106948042D01*
X40618166Y-107017084D01*
X40585298Y-107097242D01*
X40549637Y-107185390D01*
X40537767Y-107214980D01*
X40491060Y-107333092D01*
X40454447Y-107428928D01*
X40427615Y-107503382D01*
X40410251Y-107557349D01*
X40402041Y-107591723D01*
X40401490Y-107604140D01*
X40409837Y-107622438D01*
X40431054Y-107658918D01*
X40463450Y-107710951D01*
X40505333Y-107775909D01*
X40555011Y-107851162D01*
X40610792Y-107934083D01*
X40663250Y-108010822D01*
X40722634Y-108097659D01*
X40777148Y-108178534D01*
X40825155Y-108250927D01*
X40865015Y-108312316D01*
X40895089Y-108360181D01*
X40913738Y-108392000D01*
X40919399Y-108404825D01*
X40910670Y-108418396D01*
X40885773Y-108447724D01*
X40846650Y-108490753D01*
X40795241Y-108545426D01*
X40733484Y-108609687D01*
X40663321Y-108681479D01*
X40586692Y-108758747D01*
X40566003Y-108779424D01*
X40474061Y-108870879D01*
X40398256Y-108945594D01*
X40336996Y-109005017D01*
X40288689Y-109050596D01*
X40251742Y-109083779D01*
X40224563Y-109106015D01*
X40205559Y-109118751D01*
X40193138Y-109123435D01*
X40188178Y-109122981D01*
X40172261Y-109113873D01*
X40138019Y-109092044D01*
X40088028Y-109059209D01*
X40024863Y-109017083D01*
X39951096Y-108967381D01*
X39869304Y-108911819D01*
X39796732Y-108862184D01*
X39710307Y-108803364D01*
X39629726Y-108749420D01*
X39557555Y-108702001D01*
X39496361Y-108662758D01*
X39448712Y-108633340D01*
X39417175Y-108615397D01*
X39404992Y-108610400D01*
X39385443Y-108616186D01*
X39348298Y-108632108D01*
X39298191Y-108656007D01*
X39239753Y-108685724D01*
X39213209Y-108699757D01*
X39152801Y-108731027D01*
X39098850Y-108757017D01*
X39055933Y-108775667D01*
X39028625Y-108784918D01*
X39022753Y-108785482D01*
X39015866Y-108779646D01*
X39005049Y-108762851D01*
X38989724Y-108733787D01*
X38969314Y-108691145D01*
X38943242Y-108633615D01*
X38910930Y-108559886D01*
X38871802Y-108468649D01*
X38825280Y-108358593D01*
X38770788Y-108228409D01*
X38707748Y-108076786D01*
X38663978Y-107971102D01*
X38607728Y-107834776D01*
X38554437Y-107704945D01*
X38504894Y-107583573D01*
X38459887Y-107472627D01*
X38420205Y-107374068D01*
X38386637Y-107289863D01*
X38359971Y-107221976D01*
X38340997Y-107172371D01*
X38330502Y-107143012D01*
X38328600Y-107135797D01*
X38339687Y-107112586D01*
X38369953Y-107085108D01*
X38382575Y-107076465D01*
X38418707Y-107052221D01*
X38466252Y-107019028D01*
X38516276Y-106983147D01*
X38527871Y-106974674D01*
X38651267Y-106869037D01*
X38754977Y-106748937D01*
X38838327Y-106616758D01*
X38900641Y-106474883D01*
X38941245Y-106325693D01*
X38959463Y-106171573D01*
X38954621Y-106014903D01*
X38926044Y-105858068D01*
X38881916Y-105724740D01*
X38842167Y-105637644D01*
X38795461Y-105559177D01*
X38737119Y-105482587D01*
X38662462Y-105401126D01*
X38646100Y-105384594D01*
X38533554Y-105284532D01*
X38416331Y-105206402D01*
X38288657Y-105146757D01*
X38195250Y-105115668D01*
X38104453Y-105096764D01*
X37998460Y-105086315D01*
X37886024Y-105084320D01*
X37775900Y-105090780D01*
X37676842Y-105105695D01*
X37636450Y-105115668D01*
X37486831Y-105171447D01*
X37348663Y-105248192D01*
X37224005Y-105343701D01*
X37114917Y-105455774D01*
X37023462Y-105582208D01*
X36951698Y-105720802D01*
X36901687Y-105869354D01*
X36892192Y-105910833D01*
X36871820Y-106070414D01*
X36875860Y-106228713D01*
X36903350Y-106383246D01*
X36953329Y-106531532D01*
X37024838Y-106671087D01*
X37116915Y-106799429D01*
X37228600Y-106914075D01*
X37303828Y-106974674D01*
X37353099Y-107010261D01*
X37402076Y-107044689D01*
X37441824Y-107071700D01*
X37449125Y-107076465D01*
X37484441Y-107104263D01*
X37501976Y-107129332D01*
X37503100Y-107135797D01*
X37498348Y-107151402D01*
X37484621Y-107188489D01*
X37462705Y-107245096D01*
X37433391Y-107319257D01*
X37397466Y-107409008D01*
X37355719Y-107512384D01*
X37308940Y-107627422D01*
X37257916Y-107752156D01*
X37203438Y-107884622D01*
X37167721Y-107971102D01*
X37099074Y-108136718D01*
X37039334Y-108280081D01*
X36987923Y-108402500D01*
X36944265Y-108505287D01*
X36907782Y-108589750D01*
X36877897Y-108657201D01*
X36854033Y-108708948D01*
X36835614Y-108746302D01*
X36822061Y-108770573D01*
X36812798Y-108783070D01*
X36808946Y-108785482D01*
X36789915Y-108780996D01*
X36753271Y-108766209D01*
X36703589Y-108743180D01*
X36645445Y-108713969D01*
X36618490Y-108699757D01*
X36557893Y-108668202D01*
X36503635Y-108641536D01*
X36460348Y-108621919D01*
X36432662Y-108611508D01*
X36426707Y-108610400D01*
X36410752Y-108617383D01*
X36376521Y-108637232D01*
X36326581Y-108668299D01*
X36263498Y-108708932D01*
X36189840Y-108757482D01*
X36108173Y-108812299D01*
X36034967Y-108862184D01*
X35948446Y-108921325D01*
X35867801Y-108976037D01*
X35795608Y-109024606D01*
X35734439Y-109065316D01*
X35686871Y-109096453D01*
X35655478Y-109116300D01*
X35643521Y-109122981D01*
X35634288Y-109122437D01*
X35619429Y-109114711D01*
X35597352Y-109098355D01*
X35566463Y-109071921D01*
X35525170Y-109033961D01*
X35471882Y-108983027D01*
X35405004Y-108917671D01*
X35322946Y-108836445D01*
X35265696Y-108779424D01*
X35187706Y-108701073D01*
X35115680Y-108627663D01*
X35051557Y-108561252D01*
X34997278Y-108503895D01*
X34954783Y-108457649D01*
X34926011Y-108424571D01*
X34912903Y-108406716D01*
X34912300Y-108404825D01*
X34919294Y-108389560D01*
X34939185Y-108355987D01*
X34970333Y-108306625D01*
X35011100Y-108243997D01*
X35059846Y-108170623D01*
X35114933Y-108089023D01*
X35168449Y-108010822D01*
X35228181Y-107923351D01*
X35283289Y-107841248D01*
X35332083Y-107767142D01*
X35372868Y-107703661D01*
X35403955Y-107653435D01*
X35423650Y-107619092D01*
X35430209Y-107604140D01*
X35427890Y-107582252D01*
X35416624Y-107541363D01*
X35396098Y-107480579D01*
X35365999Y-107399005D01*
X35326013Y-107295748D01*
X35293932Y-107214980D01*
X35257650Y-107124924D01*
X35223739Y-107041850D01*
X35193509Y-106968885D01*
X35168271Y-106909153D01*
X35149335Y-106865781D01*
X35138014Y-106841894D01*
X35136203Y-106838863D01*
X35125513Y-106831657D01*
X35101864Y-106822980D01*
X35063381Y-106812407D01*
X35008190Y-106799510D01*
X34934414Y-106783863D01*
X34840179Y-106765038D01*
X34723609Y-106742608D01*
X34663905Y-106731326D01*
X34558790Y-106711410D01*
X34461003Y-106692611D01*
X34373493Y-106675518D01*
X34299205Y-106660717D01*
X34241089Y-106648795D01*
X34202090Y-106640340D01*
X34185225Y-106635968D01*
X34179649Y-106632144D01*
X34175089Y-106624329D01*
X34171441Y-106610176D01*
X34168606Y-106587338D01*
X34166483Y-106553469D01*
X34164969Y-106506221D01*
X34163966Y-106443249D01*
X34163370Y-106362205D01*
X34163082Y-106260744D01*
X34163000Y-106136517D01*
X34163000Y-105612655D01*
X34191575Y-105600648D01*
X34210373Y-105595620D01*
X34251136Y-105586657D01*
X34310836Y-105574361D01*
X34386446Y-105559336D01*
X34474938Y-105542182D01*
X34573286Y-105523503D01*
X34670513Y-105505369D01*
X34775172Y-105485682D01*
X34872651Y-105466701D01*
X34959945Y-105449062D01*
X35034047Y-105433398D01*
X35091951Y-105420344D01*
X35130650Y-105410534D01*
X35146763Y-105404883D01*
X35158416Y-105388897D01*
X35177898Y-105352960D01*
X35203631Y-105300713D01*
X35234038Y-105235800D01*
X35267542Y-105161862D01*
X35302564Y-105082543D01*
X35337528Y-105001484D01*
X35370856Y-104922328D01*
X35400969Y-104848718D01*
X35426292Y-104784296D01*
X35445246Y-104732704D01*
X35456253Y-104697585D01*
X35458400Y-104685334D01*
X35450854Y-104664597D01*
X35428317Y-104623697D01*
X35390935Y-104562868D01*
X35338855Y-104482341D01*
X35272226Y-104382349D01*
X35191194Y-104263124D01*
X35185350Y-104254594D01*
X35124034Y-104164483D01*
X35067523Y-104080158D01*
X35017399Y-104004077D01*
X34975245Y-103938698D01*
X34942643Y-103886478D01*
X34921174Y-103849876D01*
X34912421Y-103831349D01*
X34912300Y-103830398D01*
X34920991Y-103816269D01*
X34945476Y-103786831D01*
X34983365Y-103744515D01*
X35032272Y-103691750D01*
X35089810Y-103630967D01*
X35153590Y-103564596D01*
X35221227Y-103495067D01*
X35290332Y-103424810D01*
X35358519Y-103356256D01*
X35423399Y-103291834D01*
X35482586Y-103233974D01*
X35533692Y-103185107D01*
X35574331Y-103147662D01*
X35602114Y-103124070D01*
X35613258Y-103116869D01*
X35620699Y-103114672D01*
X35628416Y-103113973D01*
X35638415Y-103116020D01*
X35652699Y-103122063D01*
X35673272Y-103133349D01*
X35702140Y-103151128D01*
X35741305Y-103176649D01*
X35792772Y-103211159D01*
X35858546Y-103255908D01*
X35940631Y-103312145D01*
X36041031Y-103381118D01*
X36076287Y-103405349D01*
X36191984Y-103484350D01*
X36288053Y-103548797D01*
X36365312Y-103599206D01*
X36424579Y-103636095D01*
X36466671Y-103659980D01*
X36492405Y-103671377D01*
X36499227Y-103672562D01*
X36519473Y-103667445D01*
X36559069Y-103653848D01*
X36614240Y-103633314D01*
X36681213Y-103607391D01*
X36756213Y-103577624D01*
X36835468Y-103545557D01*
X36915204Y-103512737D01*
X36991647Y-103480710D01*
X37061022Y-103451019D01*
X37119557Y-103425212D01*
X37163478Y-103404833D01*
X37189011Y-103391428D01*
X37193268Y-103388327D01*
X37199219Y-103372462D01*
X37209065Y-103334425D01*
X37222202Y-103277044D01*
X37238029Y-103203145D01*
X37255942Y-103115554D01*
X37275338Y-103017100D01*
X37295616Y-102910609D01*
X37299154Y-102891660D01*
X37319475Y-102783684D01*
X37338863Y-102682905D01*
X37356731Y-102592213D01*
X37372491Y-102514495D01*
X37385557Y-102452639D01*
X37395340Y-102409534D01*
X37401254Y-102388068D01*
X37401802Y-102386835D01*
X37405991Y-102380588D01*
X37412815Y-102375487D01*
X37424671Y-102371415D01*
X37443955Y-102368256D01*
X37473063Y-102365895D01*
X37514392Y-102364217D01*
X37570337Y-102363104D01*
X37643296Y-102362443D01*
X37735663Y-102362116D01*
X37849836Y-102362008D01*
X37915849Y-102362000D01*
X38041845Y-102362043D01*
D11*
X339344000Y-31115000D03*
X332994000Y-33655000D03*
X108394500Y-107315000D03*
X102044500Y-109855000D03*
D12*
X40513000Y-71320000D03*
X40513000Y-76200000D03*
D13*
X43185000Y-26674000D03*
X44885000Y-26674000D03*
X44035000Y-26674000D03*
X42335000Y-26674000D03*
X41485000Y-26674000D03*
X40635000Y-26674000D03*
X39785000Y-26674000D03*
X38935000Y-26674000D03*
X44885000Y-25349000D03*
X44030000Y-25349000D03*
X43180000Y-25349000D03*
X42330000Y-25349000D03*
X41480000Y-25349000D03*
X40630000Y-25349000D03*
X39780000Y-25349000D03*
X38930000Y-25349000D03*
D14*
X46235000Y-25694000D03*
X37585000Y-25694000D03*
D15*
X46235000Y-22314000D03*
X37585000Y-22314000D03*
D16*
X61468000Y-43815000D03*
X46228000Y-92075000D03*
X61468000Y-46355000D03*
X46228000Y-89535000D03*
X61468000Y-48895000D03*
X46228000Y-86995000D03*
X61468000Y-51435000D03*
X46228000Y-84455000D03*
X61468000Y-53975000D03*
X46228000Y-81915000D03*
X61468000Y-56515000D03*
X46228000Y-79375000D03*
X61468000Y-59055000D03*
X46228000Y-76835000D03*
X61468000Y-61595000D03*
X46228000Y-74295000D03*
X61468000Y-64135000D03*
X46228000Y-71755000D03*
X61468000Y-66675000D03*
X46228000Y-69215000D03*
X61468000Y-69215000D03*
X46228000Y-66675000D03*
X61468000Y-71755000D03*
X46228000Y-64135000D03*
X61468000Y-74295000D03*
X46228000Y-61595000D03*
X61468000Y-76835000D03*
X46228000Y-59055000D03*
X61468000Y-79375000D03*
X46228000Y-56515000D03*
X61468000Y-81915000D03*
X46228000Y-53975000D03*
X61468000Y-84455000D03*
X46228000Y-51435000D03*
X61468000Y-86995000D03*
X46228000Y-48895000D03*
X61468000Y-89535000D03*
X46228000Y-46355000D03*
X61468000Y-92075000D03*
D17*
X46228000Y-43815000D03*
D18*
X34394000Y-87376000D03*
X34394000Y-82876000D03*
X40894000Y-87376000D03*
X40894000Y-82876000D03*
D19*
X40386000Y-44958000D03*
D20*
X32766000Y-44958000D03*
D19*
X43434000Y-39624000D03*
D20*
X51054000Y-39624000D03*
D19*
X40386000Y-39624000D03*
D20*
X32766000Y-39624000D03*
X35306000Y-25400000D03*
D19*
X35306000Y-33020000D03*
X48514000Y-33020000D03*
D20*
X48514000Y-25400000D03*
D19*
X30226000Y-63500000D03*
D20*
X30226000Y-55880000D03*
D11*
X346486500Y-60960000D03*
X349026500Y-67310000D03*
X367919000Y-107315000D03*
X361569000Y-109855000D03*
X367919000Y-88265000D03*
X361569000Y-90805000D03*
X367919000Y-69215000D03*
X361569000Y-71755000D03*
X367919000Y-50165000D03*
X361569000Y-52705000D03*
X367919000Y-31115000D03*
X361569000Y-33655000D03*
X348869000Y-107315000D03*
X342519000Y-109855000D03*
X348869000Y-88265000D03*
X342519000Y-90805000D03*
X325056500Y-69215000D03*
X318706500Y-71755000D03*
X344106500Y-50165000D03*
X337756500Y-52705000D03*
X329819000Y-107315000D03*
X323469000Y-109855000D03*
X322675300Y-88265000D03*
X316325300Y-90805000D03*
X336964000Y-69215000D03*
X330614000Y-71755000D03*
X320294000Y-50165000D03*
X313944000Y-52705000D03*
X310769000Y-31115000D03*
X304419000Y-33655000D03*
X310769000Y-107315000D03*
X304419000Y-109855000D03*
X296481500Y-88265000D03*
X290131500Y-90805000D03*
X306006500Y-69215000D03*
X299656500Y-71755000D03*
X301244000Y-50165000D03*
X294894000Y-52705000D03*
X291719000Y-31115000D03*
X285369000Y-33655000D03*
X306006500Y-107315000D03*
X299656500Y-109855000D03*
X291719000Y-107315000D03*
X285369000Y-109855000D03*
X277431500Y-88265000D03*
X271081500Y-90805000D03*
X286956500Y-69215000D03*
X280606500Y-71755000D03*
X282194000Y-50165000D03*
X275844000Y-52705000D03*
X272669000Y-31115000D03*
X266319000Y-33655000D03*
X277431500Y-107315000D03*
X271081500Y-109855000D03*
X272669000Y-107315000D03*
X266319000Y-109855000D03*
X258381500Y-88265000D03*
X252031500Y-90805000D03*
X267906500Y-69215000D03*
X261556500Y-71755000D03*
X263144000Y-50165000D03*
X256794000Y-52705000D03*
X253619000Y-31115000D03*
X247269000Y-33655000D03*
X239331500Y-88265000D03*
X232981500Y-90805000D03*
X248856500Y-69215000D03*
X242506500Y-71755000D03*
X244094000Y-50165000D03*
X237744000Y-52705000D03*
X234569000Y-31115000D03*
X228219000Y-33655000D03*
X220281500Y-88265000D03*
X213931500Y-90805000D03*
X229806500Y-69215000D03*
X223456500Y-71755000D03*
X225044000Y-50165000D03*
X218694000Y-52705000D03*
X215519000Y-31115000D03*
X209169000Y-33655000D03*
X201231500Y-88265000D03*
X194881500Y-90805000D03*
X210756500Y-69215000D03*
X204406500Y-71755000D03*
X205994000Y-50165000D03*
X199644000Y-52705000D03*
X196469000Y-31115000D03*
X190119000Y-33655000D03*
X196469000Y-107315000D03*
X190119000Y-109855000D03*
X203644500Y-107315000D03*
X197294500Y-109855000D03*
X182181500Y-88265000D03*
X175831500Y-90805000D03*
X191706500Y-69215000D03*
X185356500Y-71755000D03*
X186944000Y-50165000D03*
X180594000Y-52705000D03*
X177419000Y-31115000D03*
X171069000Y-33655000D03*
X163131500Y-88265000D03*
X156781500Y-90805000D03*
X172656500Y-69215000D03*
X166306500Y-71755000D03*
X167894000Y-50165000D03*
X161544000Y-52705000D03*
X158369000Y-31115000D03*
X152019000Y-33655000D03*
X144081500Y-88265000D03*
X137731500Y-90805000D03*
X153606500Y-69215000D03*
X147256500Y-71755000D03*
X148844000Y-50165000D03*
X142494000Y-52705000D03*
X139319000Y-31115000D03*
X132969000Y-33655000D03*
X115506500Y-107315000D03*
X109156500Y-109855000D03*
X132207000Y-107315000D03*
X125857000Y-109855000D03*
X125031500Y-88265000D03*
X118681500Y-90805000D03*
X134556500Y-69215000D03*
X128206500Y-71755000D03*
X129794000Y-50165000D03*
X123444000Y-52705000D03*
X120269000Y-31115000D03*
X113919000Y-33655000D03*
X105981500Y-88265000D03*
X99631500Y-90805000D03*
X115506500Y-69215000D03*
X109156500Y-71755000D03*
X110744000Y-50165000D03*
X104394000Y-52705000D03*
X101219000Y-31115000D03*
X94869000Y-33655000D03*
X86931500Y-107315000D03*
X80581500Y-109855000D03*
X84582000Y-107315000D03*
X78232000Y-109855000D03*
X94075300Y-88265000D03*
X87725300Y-90805000D03*
X89313800Y-69215000D03*
X82963800Y-71755000D03*
X86931500Y-50165000D03*
X80581500Y-52705000D03*
X82169000Y-31115000D03*
X75819000Y-33655000D03*
X84550300Y-88265000D03*
X78200300Y-90805000D03*
X84551000Y-69215000D03*
X78201000Y-71755000D03*
D21*
X39624000Y-60960000D03*
X39624000Y-58420000D03*
X39624000Y-55880000D03*
X37084000Y-60960000D03*
X37084000Y-58420000D03*
G04 #@! TA.AperFunction,ComponentPad*
G36*
G01*
X36234000Y-56480000D02*
X36234000Y-55280000D01*
G75*
G02*
X36484000Y-55030000I250000J0D01*
G01*
X37684000Y-55030000D01*
G75*
G02*
X37934000Y-55280000I0J-250000D01*
G01*
X37934000Y-56480000D01*
G75*
G02*
X37684000Y-56730000I-250000J0D01*
G01*
X36484000Y-56730000D01*
G75*
G02*
X36234000Y-56480000I0J250000D01*
G01*
G37*
G04 #@! TD.AperFunction*
D20*
X59382500Y-22606000D03*
X54282500Y-22606000D03*
D16*
X374967500Y-109982000D03*
D17*
X374967500Y-115062000D03*
D16*
X374904000Y-91186000D03*
D17*
X374904000Y-96266000D03*
D16*
X374967500Y-71882000D03*
D17*
X374967500Y-76962000D03*
D16*
X374904000Y-52641500D03*
D17*
X374904000Y-57721500D03*
D16*
X374904000Y-33274000D03*
D17*
X374904000Y-38354000D03*
D16*
X355917500Y-109982000D03*
D17*
X355917500Y-115062000D03*
D16*
X355854000Y-91186000D03*
D17*
X355854000Y-96266000D03*
D16*
X355854000Y-71882000D03*
D17*
X355854000Y-76962000D03*
D16*
X355790500Y-52641500D03*
D17*
X355790500Y-57721500D03*
D16*
X355854000Y-33274000D03*
D17*
X355854000Y-38354000D03*
D16*
X336804000Y-109982000D03*
D17*
X336804000Y-115062000D03*
D16*
X336867500Y-91186000D03*
D17*
X336867500Y-96266000D03*
D16*
X327279000Y-52641500D03*
D17*
X327279000Y-57721500D03*
D16*
X317754000Y-33274000D03*
D17*
X317754000Y-38354000D03*
D16*
X317754000Y-109982000D03*
D17*
X317754000Y-115062000D03*
D16*
X303593500Y-91186000D03*
D17*
X303593500Y-96266000D03*
D16*
X312991500Y-71882000D03*
D17*
X312991500Y-76962000D03*
D16*
X308229000Y-52641500D03*
D17*
X308229000Y-57721500D03*
D16*
X298704000Y-33274000D03*
D17*
X298704000Y-38354000D03*
D16*
X291719000Y-121920000D03*
D17*
X296799000Y-121920000D03*
D16*
X284353000Y-91186000D03*
D17*
X284353000Y-96266000D03*
D16*
X294005000Y-71882000D03*
D17*
X294005000Y-76962000D03*
D16*
X289179000Y-52641500D03*
D17*
X289179000Y-57721500D03*
D16*
X279654000Y-33274000D03*
D17*
X279654000Y-38354000D03*
D16*
X272669000Y-121920000D03*
D17*
X277749000Y-121920000D03*
D16*
X265366500Y-91186000D03*
D17*
X265366500Y-96266000D03*
D16*
X274955000Y-71882000D03*
D17*
X274955000Y-76962000D03*
D16*
X270129000Y-52641500D03*
D17*
X270129000Y-57721500D03*
D16*
X260604000Y-33274000D03*
D17*
X260604000Y-38354000D03*
D16*
X246316500Y-91186000D03*
D17*
X246316500Y-96266000D03*
D16*
X255905000Y-71882000D03*
D17*
X255905000Y-76962000D03*
D16*
X251015500Y-52641500D03*
D17*
X251015500Y-57721500D03*
D16*
X241744500Y-33274000D03*
D17*
X241744500Y-38354000D03*
D16*
X227266500Y-91186000D03*
D17*
X227266500Y-96266000D03*
D16*
X236728000Y-71882000D03*
D17*
X236728000Y-76962000D03*
D16*
X232029000Y-52641500D03*
D17*
X232029000Y-57721500D03*
D16*
X222504000Y-33274000D03*
D17*
X222504000Y-38354000D03*
D16*
X208280000Y-91186000D03*
D17*
X208280000Y-96266000D03*
D16*
X217741500Y-71882000D03*
D17*
X217741500Y-76962000D03*
D16*
X213042500Y-52641500D03*
D17*
X213042500Y-57721500D03*
D16*
X203454000Y-33274000D03*
D17*
X203454000Y-38354000D03*
D16*
X260604000Y-109982000D03*
D17*
X260604000Y-115062000D03*
D16*
X189166500Y-91186000D03*
D17*
X189166500Y-96266000D03*
D16*
X198628000Y-71882000D03*
D17*
X198628000Y-76962000D03*
D16*
X193929000Y-52641500D03*
D17*
X193929000Y-57721500D03*
D16*
X184340500Y-33274000D03*
D17*
X184340500Y-38354000D03*
D16*
X170116500Y-91186000D03*
D17*
X170116500Y-96266000D03*
D16*
X179578000Y-71882000D03*
D17*
X179578000Y-76962000D03*
D16*
X174879000Y-52641500D03*
D17*
X174879000Y-57721500D03*
D16*
X165354000Y-33274000D03*
D17*
X165354000Y-38354000D03*
D16*
X151130000Y-91186000D03*
D17*
X151130000Y-96266000D03*
D16*
X160655000Y-71882000D03*
D17*
X160655000Y-76962000D03*
D16*
X155892500Y-52641500D03*
D17*
X155892500Y-57721500D03*
D16*
X146304000Y-33274000D03*
D17*
X146304000Y-38354000D03*
D16*
X141541500Y-109982000D03*
D17*
X141541500Y-115062000D03*
D16*
X132080000Y-91186000D03*
D17*
X132080000Y-96266000D03*
D16*
X141541500Y-71882000D03*
D17*
X141541500Y-76962000D03*
D16*
X136779000Y-52641500D03*
D17*
X136779000Y-57721500D03*
D16*
X127317500Y-33274000D03*
D17*
X127317500Y-38354000D03*
D16*
X108394500Y-121920000D03*
D17*
X113474500Y-121920000D03*
D16*
X112966500Y-91186000D03*
D17*
X112966500Y-96266000D03*
D16*
X122491500Y-71882000D03*
D17*
X122491500Y-76962000D03*
D16*
X117729000Y-52641500D03*
D17*
X117729000Y-57721500D03*
D16*
X108204000Y-33274000D03*
D17*
X108204000Y-38354000D03*
D16*
X93980000Y-109982000D03*
D17*
X93980000Y-115062000D03*
D16*
X70104000Y-91186000D03*
D17*
X70104000Y-96266000D03*
D16*
X103505000Y-71882000D03*
D17*
X103505000Y-76962000D03*
D16*
X98679000Y-52641500D03*
D17*
X98679000Y-57721500D03*
D16*
X89154000Y-33274000D03*
D17*
X89154000Y-38354000D03*
D16*
X35306000Y-36068000D03*
D17*
X40386000Y-36068000D03*
D16*
X48514000Y-36068000D03*
D17*
X43434000Y-36068000D03*
D22*
X59356000Y-26162000D03*
X54356000Y-26162000D03*
X59356000Y-30480000D03*
X54356000Y-30480000D03*
D23*
X56642000Y-36044000D03*
D24*
X56642000Y-34544000D03*
D22*
X34798000Y-75605000D03*
X34798000Y-78105000D03*
X34798000Y-69255000D03*
X34798000Y-71755000D03*
D18*
X34648000Y-97972000D03*
X34648000Y-93472000D03*
X41148000Y-97972000D03*
X41148000Y-93472000D03*
D25*
X52895500Y-66675000D03*
X52006500Y-41529000D03*
D26*
X34648000Y-93472000D02*
X41148000Y-93472000D01*
X44831000Y-93472000D02*
X46228000Y-92075000D01*
X41148000Y-93472000D02*
X44831000Y-93472000D01*
X40078000Y-71755000D02*
X40513000Y-71320000D01*
X34798000Y-71755000D02*
X40078000Y-71755000D01*
X45793000Y-71320000D02*
X46228000Y-71755000D01*
X40513000Y-71320000D02*
X45793000Y-71320000D01*
X38608000Y-78105000D02*
X40513000Y-76200000D01*
X34798000Y-78105000D02*
X38608000Y-78105000D01*
X44323000Y-76200000D02*
X46228000Y-74295000D01*
X40513000Y-76200000D02*
X44323000Y-76200000D01*
D27*
X39624000Y-55880000D02*
X39624000Y-54038500D01*
X39624000Y-54038500D02*
X38925500Y-53340000D01*
X32766000Y-53340000D02*
X30226000Y-55880000D01*
X38925500Y-53340000D02*
X32766000Y-53340000D01*
X39624000Y-48116098D02*
X39624000Y-55880000D01*
X53927499Y-37258501D02*
X50481597Y-37258501D01*
X56642000Y-34544000D02*
X53927499Y-37258501D01*
X58928000Y-66675000D02*
X61468000Y-69215000D01*
X52895500Y-66675000D02*
X58928000Y-66675000D01*
X50481597Y-37258501D02*
X39624000Y-48116098D01*
X35924098Y-48116098D02*
X32766000Y-44958000D01*
X39624000Y-48116098D02*
X35924098Y-48116098D01*
D26*
X42335000Y-34969000D02*
X43434000Y-36068000D01*
X42335000Y-26674000D02*
X42335000Y-34969000D01*
X43434000Y-36068000D02*
X43434000Y-39624000D01*
X41485000Y-26561998D02*
X41485000Y-26674000D01*
X42330000Y-25716998D02*
X41485000Y-26561998D01*
X42330000Y-25349000D02*
X42330000Y-25716998D01*
X41485000Y-34969000D02*
X40386000Y-36068000D01*
X41485000Y-26674000D02*
X41485000Y-34969000D01*
X40386000Y-39624000D02*
X40386000Y-44958000D01*
X40386000Y-36068000D02*
X40386000Y-39624000D01*
X86995000Y-31115000D02*
X89154000Y-33274000D01*
X82169000Y-31115000D02*
X86995000Y-31115000D01*
X83693000Y-43815000D02*
X89154000Y-38354000D01*
X61468000Y-43815000D02*
X83693000Y-43815000D01*
X108044099Y-38513901D02*
X108204000Y-38354000D01*
X89313901Y-38513901D02*
X108044099Y-38513901D01*
X89154000Y-38354000D02*
X89313901Y-38513901D01*
X127157599Y-38513901D02*
X127317500Y-38354000D01*
X108363901Y-38513901D02*
X127157599Y-38513901D01*
X108204000Y-38354000D02*
X108363901Y-38513901D01*
X165194099Y-38513901D02*
X165354000Y-38354000D01*
X146463901Y-38513901D02*
X165194099Y-38513901D01*
X146304000Y-38354000D02*
X146463901Y-38513901D01*
X184180599Y-38513901D02*
X184340500Y-38354000D01*
X165513901Y-38513901D02*
X184180599Y-38513901D01*
X165354000Y-38354000D02*
X165513901Y-38513901D01*
X203294099Y-38513901D02*
X203454000Y-38354000D01*
X184500401Y-38513901D02*
X203294099Y-38513901D01*
X184340500Y-38354000D02*
X184500401Y-38513901D01*
X241584599Y-38513901D02*
X241744500Y-38354000D01*
X222663901Y-38513901D02*
X241584599Y-38513901D01*
X222504000Y-38354000D02*
X222663901Y-38513901D01*
X260444099Y-38513901D02*
X260604000Y-38354000D01*
X241904401Y-38513901D02*
X260444099Y-38513901D01*
X241744500Y-38354000D02*
X241904401Y-38513901D01*
X279494099Y-38513901D02*
X279654000Y-38354000D01*
X260763901Y-38513901D02*
X279494099Y-38513901D01*
X260604000Y-38354000D02*
X260763901Y-38513901D01*
X298544099Y-38513901D02*
X298704000Y-38354000D01*
X279813901Y-38513901D02*
X298544099Y-38513901D01*
X279654000Y-38354000D02*
X279813901Y-38513901D01*
X317594099Y-38513901D02*
X317754000Y-38354000D01*
X298863901Y-38513901D02*
X317594099Y-38513901D01*
X298704000Y-38354000D02*
X298863901Y-38513901D01*
X317913901Y-38513901D02*
X355694099Y-38513901D01*
X355694099Y-38513901D02*
X355854000Y-38354000D01*
X317754000Y-38354000D02*
X317913901Y-38513901D01*
X374744099Y-38513901D02*
X374904000Y-38354000D01*
X356013901Y-38513901D02*
X374744099Y-38513901D01*
X355854000Y-38354000D02*
X356013901Y-38513901D01*
X146144099Y-38513901D02*
X146304000Y-38354000D01*
X127477401Y-38513901D02*
X146144099Y-38513901D01*
X127317500Y-38354000D02*
X127477401Y-38513901D01*
X222344099Y-38513901D02*
X222504000Y-38354000D01*
X203613901Y-38513901D02*
X222344099Y-38513901D01*
X203454000Y-38354000D02*
X203613901Y-38513901D01*
X96202500Y-50165000D02*
X98679000Y-52641500D01*
X86931500Y-50165000D02*
X96202500Y-50165000D01*
X98679000Y-57721500D02*
X117729000Y-57721500D01*
X117729000Y-57721500D02*
X136779000Y-57721500D01*
X136779000Y-57721500D02*
X155892500Y-57721500D01*
X155892500Y-57721500D02*
X174879000Y-57721500D01*
X174879000Y-57721500D02*
X193929000Y-57721500D01*
X193929000Y-57721500D02*
X213042500Y-57721500D01*
X213042500Y-57721500D02*
X232029000Y-57721500D01*
X232029000Y-57721500D02*
X251015500Y-57721500D01*
X251015500Y-57721500D02*
X270129000Y-57721500D01*
X270129000Y-57721500D02*
X289179000Y-57721500D01*
X289179000Y-57721500D02*
X308229000Y-57721500D01*
X308229000Y-57721500D02*
X327279000Y-57721500D01*
X327279000Y-57721500D02*
X355790500Y-57721500D01*
X355790500Y-57721500D02*
X374904000Y-57721500D01*
X72834500Y-57721500D02*
X98679000Y-57721500D01*
X61468000Y-46355000D02*
X72834500Y-57721500D01*
X84551000Y-69215000D02*
X89313800Y-69215000D01*
X100838000Y-69215000D02*
X103505000Y-71882000D01*
X89313800Y-69215000D02*
X100838000Y-69215000D01*
X77821998Y-76962000D02*
X103505000Y-76962000D01*
X75730999Y-63157999D02*
X75730999Y-74871001D01*
X75730999Y-74871001D02*
X77821998Y-76962000D01*
X61468000Y-48895000D02*
X75730999Y-63157999D01*
X103505000Y-76962000D02*
X122491500Y-76962000D01*
X122491500Y-76962000D02*
X141541500Y-76962000D01*
X141541500Y-76962000D02*
X160655000Y-76962000D01*
X160655000Y-76962000D02*
X179578000Y-76962000D01*
X179578000Y-76962000D02*
X198628000Y-76962000D01*
X198628000Y-76962000D02*
X217741500Y-76962000D01*
X217741500Y-76962000D02*
X236728000Y-76962000D01*
X236728000Y-76962000D02*
X255905000Y-76962000D01*
X255905000Y-76962000D02*
X274955000Y-76962000D01*
X274955000Y-76962000D02*
X294005000Y-76962000D01*
X294005000Y-76962000D02*
X312991500Y-76962000D01*
X315056401Y-79026901D02*
X353789099Y-79026901D01*
X353789099Y-79026901D02*
X355854000Y-76962000D01*
X312991500Y-76962000D02*
X315056401Y-79026901D01*
X355854000Y-76962000D02*
X374967500Y-76962000D01*
X94075300Y-88265000D02*
X84550300Y-88265000D01*
X73025000Y-88265000D02*
X70104000Y-91186000D01*
X84550300Y-88265000D02*
X73025000Y-88265000D01*
X70104000Y-96266000D02*
X112966500Y-96266000D01*
X112966500Y-96266000D02*
X132080000Y-96266000D01*
X132080000Y-96266000D02*
X151130000Y-96266000D01*
X151130000Y-96266000D02*
X170116500Y-96266000D01*
X170116500Y-96266000D02*
X189166500Y-96266000D01*
X189166500Y-96266000D02*
X208280000Y-96266000D01*
X208280000Y-96266000D02*
X227266500Y-96266000D01*
X227266500Y-96266000D02*
X246316500Y-96266000D01*
X246316500Y-96266000D02*
X265366500Y-96266000D01*
X265366500Y-96266000D02*
X284353000Y-96266000D01*
X284353000Y-96266000D02*
X303593500Y-96266000D01*
X303593500Y-96266000D02*
X336867500Y-96266000D01*
X336867500Y-96266000D02*
X355854000Y-96266000D01*
X355854000Y-96266000D02*
X374904000Y-96266000D01*
X68978999Y-95140999D02*
X68978999Y-58945999D01*
X68978999Y-58945999D02*
X61468000Y-51435000D01*
X70104000Y-96266000D02*
X68978999Y-95140999D01*
X84582000Y-107315000D02*
X86931500Y-107315000D01*
X91313000Y-107315000D02*
X93980000Y-109982000D01*
X86931500Y-107315000D02*
X91313000Y-107315000D01*
X374967500Y-115062000D02*
X355917500Y-115062000D01*
X355917500Y-115062000D02*
X336804000Y-115062000D01*
X336804000Y-115062000D02*
X317754000Y-115062000D01*
X303657000Y-115062000D02*
X296799000Y-121920000D01*
X317754000Y-115062000D02*
X303657000Y-115062000D01*
X278874001Y-123045001D02*
X277749000Y-121920000D01*
X295673999Y-123045001D02*
X278874001Y-123045001D01*
X296799000Y-121920000D02*
X295673999Y-123045001D01*
X276623999Y-123045001D02*
X277749000Y-121920000D01*
X268587001Y-123045001D02*
X276623999Y-123045001D01*
X260604000Y-115062000D02*
X268587001Y-123045001D01*
X141541500Y-115062000D02*
X260604000Y-115062000D01*
X120332500Y-115062000D02*
X113474500Y-121920000D01*
X141541500Y-115062000D02*
X120332500Y-115062000D01*
X112349499Y-123045001D02*
X113474500Y-121920000D01*
X101963001Y-123045001D02*
X112349499Y-123045001D01*
X93980000Y-115062000D02*
X101963001Y-123045001D01*
X77852998Y-115062000D02*
X67500500Y-104709502D01*
X93980000Y-115062000D02*
X77852998Y-115062000D01*
X67500500Y-60007500D02*
X61468000Y-53975000D01*
X67500500Y-104709502D02*
X67500500Y-60007500D01*
X106045000Y-31115000D02*
X108204000Y-33274000D01*
X101219000Y-31115000D02*
X106045000Y-31115000D01*
X115252500Y-50165000D02*
X117729000Y-52641500D01*
X110744000Y-50165000D02*
X115252500Y-50165000D01*
X119824500Y-69215000D02*
X122491500Y-71882000D01*
X115506500Y-69215000D02*
X119824500Y-69215000D01*
X110045500Y-88265000D02*
X112966500Y-91186000D01*
X105981500Y-88265000D02*
X110045500Y-88265000D01*
X106803510Y-107315000D02*
X108394500Y-107315000D01*
X103535599Y-110582911D02*
X106803510Y-107315000D01*
X103535599Y-117061099D02*
X103535599Y-110582911D01*
X108394500Y-121920000D02*
X103535599Y-117061099D01*
X125158500Y-31115000D02*
X127317500Y-33274000D01*
X120269000Y-31115000D02*
X125158500Y-31115000D01*
X134302500Y-50165000D02*
X136779000Y-52641500D01*
X129794000Y-50165000D02*
X134302500Y-50165000D01*
X138874500Y-69215000D02*
X141541500Y-71882000D01*
X134556500Y-69215000D02*
X138874500Y-69215000D01*
X129159000Y-88265000D02*
X132080000Y-91186000D01*
X125031500Y-88265000D02*
X129159000Y-88265000D01*
X138874500Y-107315000D02*
X141541500Y-109982000D01*
X132207000Y-107315000D02*
X138874500Y-107315000D01*
X115506500Y-107315000D02*
X132207000Y-107315000D01*
X144145000Y-31115000D02*
X146304000Y-33274000D01*
X139319000Y-31115000D02*
X144145000Y-31115000D01*
X153416000Y-50165000D02*
X155892500Y-52641500D01*
X148844000Y-50165000D02*
X153416000Y-50165000D01*
X157988000Y-69215000D02*
X160655000Y-71882000D01*
X153606500Y-69215000D02*
X157988000Y-69215000D01*
X148209000Y-88265000D02*
X151130000Y-91186000D01*
X144081500Y-88265000D02*
X148209000Y-88265000D01*
X163195000Y-31115000D02*
X165354000Y-33274000D01*
X158369000Y-31115000D02*
X163195000Y-31115000D01*
X172402500Y-50165000D02*
X174879000Y-52641500D01*
X167894000Y-50165000D02*
X172402500Y-50165000D01*
X176911000Y-69215000D02*
X179578000Y-71882000D01*
X172656500Y-69215000D02*
X176911000Y-69215000D01*
X167195500Y-88265000D02*
X170116500Y-91186000D01*
X163131500Y-88265000D02*
X167195500Y-88265000D01*
X182181500Y-31115000D02*
X184340500Y-33274000D01*
X177419000Y-31115000D02*
X182181500Y-31115000D01*
X191452500Y-50165000D02*
X193929000Y-52641500D01*
X186944000Y-50165000D02*
X191452500Y-50165000D01*
X195961000Y-69215000D02*
X198628000Y-71882000D01*
X191706500Y-69215000D02*
X195961000Y-69215000D01*
X186245500Y-88265000D02*
X189166500Y-91186000D01*
X182181500Y-88265000D02*
X186245500Y-88265000D01*
X257937000Y-107315000D02*
X260604000Y-109982000D01*
X203644500Y-107315000D02*
X257937000Y-107315000D01*
X196469000Y-107315000D02*
X203644500Y-107315000D01*
X201295000Y-31115000D02*
X203454000Y-33274000D01*
X196469000Y-31115000D02*
X201295000Y-31115000D01*
X210566000Y-50165000D02*
X213042500Y-52641500D01*
X205994000Y-50165000D02*
X210566000Y-50165000D01*
X215074500Y-69215000D02*
X217741500Y-71882000D01*
X210756500Y-69215000D02*
X215074500Y-69215000D01*
X205359000Y-88265000D02*
X208280000Y-91186000D01*
X201231500Y-88265000D02*
X205359000Y-88265000D01*
X220345000Y-31115000D02*
X222504000Y-33274000D01*
X215519000Y-31115000D02*
X220345000Y-31115000D01*
X229552500Y-50165000D02*
X232029000Y-52641500D01*
X225044000Y-50165000D02*
X229552500Y-50165000D01*
X234061000Y-69215000D02*
X236728000Y-71882000D01*
X229806500Y-69215000D02*
X234061000Y-69215000D01*
X224345500Y-88265000D02*
X227266500Y-91186000D01*
X220281500Y-88265000D02*
X224345500Y-88265000D01*
X239585500Y-31115000D02*
X241744500Y-33274000D01*
X234569000Y-31115000D02*
X239585500Y-31115000D01*
X248539000Y-50165000D02*
X251015500Y-52641500D01*
X244094000Y-50165000D02*
X248539000Y-50165000D01*
X253238000Y-69215000D02*
X255905000Y-71882000D01*
X248856500Y-69215000D02*
X253238000Y-69215000D01*
X243395500Y-88265000D02*
X246316500Y-91186000D01*
X239331500Y-88265000D02*
X243395500Y-88265000D01*
X258445000Y-31115000D02*
X260604000Y-33274000D01*
X253619000Y-31115000D02*
X258445000Y-31115000D01*
X267652500Y-50165000D02*
X270129000Y-52641500D01*
X263144000Y-50165000D02*
X267652500Y-50165000D01*
X272288000Y-69215000D02*
X274955000Y-71882000D01*
X267906500Y-69215000D02*
X272288000Y-69215000D01*
X262445500Y-88265000D02*
X265366500Y-91186000D01*
X258381500Y-88265000D02*
X262445500Y-88265000D01*
X277210401Y-107536099D02*
X277431500Y-107315000D01*
X277210401Y-117378599D02*
X277210401Y-107536099D01*
X272669000Y-121920000D02*
X277210401Y-117378599D01*
X277431500Y-107315000D02*
X272669000Y-107315000D01*
X277495000Y-31115000D02*
X279654000Y-33274000D01*
X272669000Y-31115000D02*
X277495000Y-31115000D01*
X286702500Y-50165000D02*
X289179000Y-52641500D01*
X282194000Y-50165000D02*
X286702500Y-50165000D01*
X291338000Y-69215000D02*
X294005000Y-71882000D01*
X286956500Y-69215000D02*
X291338000Y-69215000D01*
X281432000Y-88265000D02*
X284353000Y-91186000D01*
X277431500Y-88265000D02*
X281432000Y-88265000D01*
X291719000Y-121920000D02*
X291719000Y-107315000D01*
X291719000Y-107315000D02*
X306006500Y-107315000D01*
X296545000Y-31115000D02*
X298704000Y-33274000D01*
X291719000Y-31115000D02*
X296545000Y-31115000D01*
X305752500Y-50165000D02*
X308229000Y-52641500D01*
X301244000Y-50165000D02*
X305752500Y-50165000D01*
X310324500Y-69215000D02*
X312991500Y-71882000D01*
X306006500Y-69215000D02*
X310324500Y-69215000D01*
X300672500Y-88265000D02*
X303593500Y-91186000D01*
X296481500Y-88265000D02*
X300672500Y-88265000D01*
X313436000Y-109982000D02*
X310769000Y-107315000D01*
X317754000Y-109982000D02*
X313436000Y-109982000D01*
X315595000Y-31115000D02*
X317754000Y-33274000D01*
X310769000Y-31115000D02*
X315595000Y-31115000D01*
X324802500Y-50165000D02*
X327279000Y-52641500D01*
X320294000Y-50165000D02*
X324802500Y-50165000D01*
X333946500Y-88265000D02*
X336867500Y-91186000D01*
X322675300Y-88265000D02*
X333946500Y-88265000D01*
X332486000Y-109982000D02*
X329819000Y-107315000D01*
X336804000Y-109982000D02*
X332486000Y-109982000D01*
X353695000Y-31115000D02*
X355854000Y-33274000D01*
X339344000Y-31115000D02*
X353695000Y-31115000D01*
X353314000Y-50165000D02*
X355790500Y-52641500D01*
X344106500Y-50165000D02*
X353314000Y-50165000D01*
X325056500Y-69215000D02*
X336964000Y-69215000D01*
X348273248Y-71882000D02*
X355854000Y-71882000D01*
X344481249Y-68090001D02*
X348273248Y-71882000D01*
X338088999Y-68090001D02*
X344481249Y-68090001D01*
X336964000Y-69215000D02*
X338088999Y-68090001D01*
X352933000Y-88265000D02*
X355854000Y-91186000D01*
X348869000Y-88265000D02*
X352933000Y-88265000D01*
X351536000Y-109982000D02*
X348869000Y-107315000D01*
X355917500Y-109982000D02*
X351536000Y-109982000D01*
X372745000Y-31115000D02*
X374904000Y-33274000D01*
X367919000Y-31115000D02*
X372745000Y-31115000D01*
X372427500Y-50165000D02*
X374904000Y-52641500D01*
X367919000Y-50165000D02*
X372427500Y-50165000D01*
X372300500Y-69215000D02*
X374967500Y-71882000D01*
X367919000Y-69215000D02*
X372300500Y-69215000D01*
X371983000Y-88265000D02*
X374904000Y-91186000D01*
X367919000Y-88265000D02*
X371983000Y-88265000D01*
X370586000Y-109982000D02*
X367919000Y-107315000D01*
X374967500Y-109982000D02*
X370586000Y-109982000D01*
X44323000Y-58420000D02*
X46228000Y-56515000D01*
X39624000Y-58420000D02*
X44323000Y-58420000D01*
X34394000Y-82876000D02*
X40894000Y-82876000D01*
X34544000Y-63500000D02*
X37084000Y-60960000D01*
X30226000Y-63500000D02*
X34544000Y-63500000D01*
X40259000Y-64135000D02*
X46228000Y-64135000D01*
X37084000Y-60960000D02*
X40259000Y-64135000D01*
X30226000Y-78708000D02*
X30226000Y-63500000D01*
X34394000Y-82876000D02*
X30226000Y-78708000D01*
X39059999Y-62135001D02*
X45687999Y-62135001D01*
X38448999Y-61524001D02*
X39059999Y-62135001D01*
X45687999Y-62135001D02*
X46228000Y-61595000D01*
X38448999Y-59784999D02*
X38448999Y-61524001D01*
X37084000Y-58420000D02*
X38448999Y-59784999D01*
X47353001Y-55974999D02*
X47353001Y-57929999D01*
X46768001Y-55389999D02*
X47353001Y-55974999D01*
X47353001Y-57929999D02*
X46228000Y-59055000D01*
X45687999Y-55389999D02*
X46768001Y-55389999D01*
X38259001Y-57055001D02*
X44022997Y-57055001D01*
X44022997Y-57055001D02*
X45687999Y-55389999D01*
X37084000Y-55880000D02*
X38259001Y-57055001D01*
X43185000Y-27691000D02*
X48514000Y-33020000D01*
X43185000Y-26674000D02*
X43185000Y-27691000D01*
X36331001Y-31994999D02*
X35306000Y-33020000D01*
X36331001Y-25101970D02*
X36331001Y-31994999D01*
X37263981Y-24168990D02*
X36331001Y-25101970D01*
X39909609Y-24168990D02*
X37263981Y-24168990D01*
X40630000Y-24889381D02*
X39909609Y-24168990D01*
X40630000Y-25349000D02*
X40630000Y-24889381D01*
X52006500Y-78676500D02*
X46228000Y-84455000D01*
X52006500Y-41529000D02*
X52006500Y-78676500D01*
X51054000Y-77089000D02*
X46228000Y-81915000D01*
X51054000Y-39624000D02*
X51054000Y-77089000D01*
M02*
