%TF.GenerationSoftware,KiCad,Pcbnew,(5.1.8-0-10_14)*%
%TF.CreationDate,2020-12-18T20:02:30+00:00*%
%TF.ProjectId,Draytronics Jade,44726179-7472-46f6-9e69-6373204a6164,rev?*%
%TF.SameCoordinates,Original*%
%TF.FileFunction,Copper,L2,Bot*%
%TF.FilePolarity,Positive*%
%FSLAX46Y46*%
G04 Gerber Fmt 4.6, Leading zero omitted, Abs format (unit mm)*
G04 Created by KiCad (PCBNEW (5.1.8-0-10_14)) date 2020-12-18 20:02:30*
%MOMM*%
%LPD*%
G01*
G04 APERTURE LIST*
%TA.AperFunction,ComponentPad*%
%ADD10C,2.250000*%
%TD*%
%TA.AperFunction,ComponentPad*%
%ADD11C,1.500000*%
%TD*%
%TA.AperFunction,ComponentPad*%
%ADD12C,0.650000*%
%TD*%
%TA.AperFunction,ComponentPad*%
%ADD13O,0.900000X2.400000*%
%TD*%
%TA.AperFunction,ComponentPad*%
%ADD14O,0.900000X1.700000*%
%TD*%
%TA.AperFunction,ComponentPad*%
%ADD15O,1.600000X1.600000*%
%TD*%
%TA.AperFunction,ComponentPad*%
%ADD16R,1.600000X1.600000*%
%TD*%
%TA.AperFunction,ComponentPad*%
%ADD17C,2.000000*%
%TD*%
%TA.AperFunction,ComponentPad*%
%ADD18O,1.400000X1.400000*%
%TD*%
%TA.AperFunction,ComponentPad*%
%ADD19C,1.400000*%
%TD*%
%TA.AperFunction,ComponentPad*%
%ADD20C,1.700000*%
%TD*%
%TA.AperFunction,ComponentPad*%
%ADD21C,1.600000*%
%TD*%
%TA.AperFunction,ComponentPad*%
%ADD22C,1.200000*%
%TD*%
%TA.AperFunction,ComponentPad*%
%ADD23R,1.200000X1.200000*%
%TD*%
%TA.AperFunction,ViaPad*%
%ADD24C,0.800000*%
%TD*%
%TA.AperFunction,Conductor*%
%ADD25C,0.250000*%
%TD*%
%TA.AperFunction,Conductor*%
%ADD26C,0.381000*%
%TD*%
G04 APERTURE END LIST*
D10*
%TO.P,MX68,2*%
%TO.N,Net-(D62-Pad2)*%
X339344000Y-31115000D03*
%TO.P,MX68,1*%
%TO.N,col13*%
X332994000Y-33655000D03*
%TD*%
%TO.P,MX13,2*%
%TO.N,Net-(D12-Pad2)*%
X108394500Y-107315000D03*
%TO.P,MX13,1*%
%TO.N,col1*%
X102044500Y-109855000D03*
%TD*%
D11*
%TO.P,Y1,2*%
%TO.N,Net-(C1-Pad1)*%
X40513000Y-71320000D03*
%TO.P,Y1,1*%
%TO.N,Net-(C2-Pad1)*%
X40513000Y-76200000D03*
%TD*%
D12*
%TO.P,USB1,A5*%
%TO.N,Net-(R2-Pad2)*%
X43185000Y-26674000D03*
%TO.P,USB1,A1*%
%TO.N,GND*%
X44885000Y-26674000D03*
%TO.P,USB1,A4*%
%TO.N,VCC*%
X44035000Y-26674000D03*
%TO.P,USB1,A6*%
%TO.N,Net-(D1-Pad1)*%
X42335000Y-26674000D03*
%TO.P,USB1,A7*%
%TO.N,Net-(D2-Pad1)*%
X41485000Y-26674000D03*
%TO.P,USB1,A8*%
%TO.N,Net-(USB1-PadA8)*%
X40635000Y-26674000D03*
%TO.P,USB1,A9*%
%TO.N,VCC*%
X39785000Y-26674000D03*
%TO.P,USB1,A12*%
%TO.N,GND*%
X38935000Y-26674000D03*
%TO.P,USB1,B12*%
X44885000Y-25349000D03*
%TO.P,USB1,B9*%
%TO.N,VCC*%
X44030000Y-25349000D03*
%TO.P,USB1,B8*%
%TO.N,Net-(USB1-PadB8)*%
X43180000Y-25349000D03*
%TO.P,USB1,B7*%
%TO.N,Net-(D2-Pad1)*%
X42330000Y-25349000D03*
%TO.P,USB1,B6*%
%TO.N,Net-(D1-Pad1)*%
X41480000Y-25349000D03*
%TO.P,USB1,B5*%
%TO.N,Net-(R3-Pad2)*%
X40630000Y-25349000D03*
%TO.P,USB1,B4*%
%TO.N,VCC*%
X39780000Y-25349000D03*
%TO.P,USB1,B1*%
%TO.N,GND*%
X38930000Y-25349000D03*
D13*
%TO.P,USB1,S1*%
X46235000Y-25694000D03*
X37585000Y-25694000D03*
D14*
X46235000Y-22314000D03*
X37585000Y-22314000D03*
%TD*%
D15*
%TO.P,U1,40*%
%TO.N,row0*%
X61468000Y-43815000D03*
%TO.P,U1,20*%
%TO.N,bload*%
X46228000Y-92075000D03*
%TO.P,U1,39*%
%TO.N,row1*%
X61468000Y-46355000D03*
%TO.P,U1,19*%
%TO.N,Net-(U1-Pad19)*%
X46228000Y-89535000D03*
%TO.P,U1,38*%
%TO.N,row2*%
X61468000Y-48895000D03*
%TO.P,U1,18*%
%TO.N,Net-(U1-Pad18)*%
X46228000Y-86995000D03*
%TO.P,U1,37*%
%TO.N,row3*%
X61468000Y-51435000D03*
%TO.P,U1,17*%
%TO.N,D-*%
X46228000Y-84455000D03*
%TO.P,U1,36*%
%TO.N,row4*%
X61468000Y-53975000D03*
%TO.P,U1,16*%
%TO.N,D+*%
X46228000Y-81915000D03*
%TO.P,U1,35*%
%TO.N,col0*%
X61468000Y-56515000D03*
%TO.P,U1,15*%
%TO.N,Net-(U1-Pad15)*%
X46228000Y-79375000D03*
%TO.P,U1,34*%
%TO.N,col1*%
X61468000Y-59055000D03*
%TO.P,U1,14*%
%TO.N,Net-(U1-Pad14)*%
X46228000Y-76835000D03*
%TO.P,U1,33*%
%TO.N,col2*%
X61468000Y-61595000D03*
%TO.P,U1,13*%
%TO.N,Net-(C2-Pad1)*%
X46228000Y-74295000D03*
%TO.P,U1,32*%
%TO.N,Net-(U1-Pad32)*%
X61468000Y-64135000D03*
%TO.P,U1,12*%
%TO.N,Net-(C1-Pad1)*%
X46228000Y-71755000D03*
%TO.P,U1,31*%
%TO.N,GND*%
X61468000Y-66675000D03*
%TO.P,U1,11*%
X46228000Y-69215000D03*
%TO.P,U1,30*%
%TO.N,+5V*%
X61468000Y-69215000D03*
%TO.P,U1,10*%
X46228000Y-66675000D03*
%TO.P,U1,29*%
%TO.N,col3*%
X61468000Y-71755000D03*
%TO.P,U1,9*%
%TO.N,reset*%
X46228000Y-64135000D03*
%TO.P,U1,28*%
%TO.N,col4*%
X61468000Y-74295000D03*
%TO.P,U1,8*%
%TO.N,sck*%
X46228000Y-61595000D03*
%TO.P,U1,27*%
%TO.N,col5*%
X61468000Y-76835000D03*
%TO.P,U1,7*%
%TO.N,miso*%
X46228000Y-59055000D03*
%TO.P,U1,26*%
%TO.N,col6*%
X61468000Y-79375000D03*
%TO.P,U1,6*%
%TO.N,mosi*%
X46228000Y-56515000D03*
%TO.P,U1,25*%
%TO.N,col7*%
X61468000Y-81915000D03*
%TO.P,U1,5*%
%TO.N,Net-(U1-Pad5)*%
X46228000Y-53975000D03*
%TO.P,U1,24*%
%TO.N,col8*%
X61468000Y-84455000D03*
%TO.P,U1,4*%
%TO.N,col14*%
X46228000Y-51435000D03*
%TO.P,U1,23*%
%TO.N,col9*%
X61468000Y-86995000D03*
%TO.P,U1,3*%
%TO.N,col13*%
X46228000Y-48895000D03*
%TO.P,U1,22*%
%TO.N,col10*%
X61468000Y-89535000D03*
%TO.P,U1,2*%
%TO.N,col12*%
X46228000Y-46355000D03*
%TO.P,U1,21*%
%TO.N,Net-(U1-Pad21)*%
X61468000Y-92075000D03*
D16*
%TO.P,U1,1*%
%TO.N,col11*%
X46228000Y-43815000D03*
%TD*%
D17*
%TO.P,Reset1,1*%
%TO.N,GND*%
X34394000Y-87376000D03*
%TO.P,Reset1,2*%
%TO.N,reset*%
X34394000Y-82876000D03*
%TO.P,Reset1,1*%
%TO.N,GND*%
X40894000Y-87376000D03*
%TO.P,Reset1,2*%
%TO.N,reset*%
X40894000Y-82876000D03*
%TD*%
D18*
%TO.P,R6,2*%
%TO.N,Net-(D2-Pad1)*%
X40386000Y-44958000D03*
D19*
%TO.P,R6,1*%
%TO.N,+5V*%
X32766000Y-44958000D03*
%TD*%
D18*
%TO.P,R5,2*%
%TO.N,Net-(D1-Pad1)*%
X43434000Y-39624000D03*
D19*
%TO.P,R5,1*%
%TO.N,D+*%
X51054000Y-39624000D03*
%TD*%
D18*
%TO.P,R4,2*%
%TO.N,Net-(D2-Pad1)*%
X40386000Y-39624000D03*
D19*
%TO.P,R4,1*%
%TO.N,D-*%
X32766000Y-39624000D03*
%TD*%
%TO.P,R3,1*%
%TO.N,GND*%
X35306000Y-25400000D03*
D18*
%TO.P,R3,2*%
%TO.N,Net-(R3-Pad2)*%
X35306000Y-33020000D03*
%TD*%
%TO.P,R2,2*%
%TO.N,Net-(R2-Pad2)*%
X48514000Y-33020000D03*
D19*
%TO.P,R2,1*%
%TO.N,GND*%
X48514000Y-25400000D03*
%TD*%
D18*
%TO.P,R1,2*%
%TO.N,reset*%
X30226000Y-63500000D03*
D19*
%TO.P,R1,1*%
%TO.N,+5V*%
X30226000Y-55880000D03*
%TD*%
D10*
%TO.P,MX78,1*%
%TO.N,col13*%
X346486500Y-60960000D03*
%TO.P,MX78,2*%
%TO.N,Net-(D63-Pad2)*%
X349026500Y-67310000D03*
%TD*%
%TO.P,MX77,2*%
%TO.N,Net-(D71-Pad2)*%
X367919000Y-107315000D03*
%TO.P,MX77,1*%
%TO.N,col14*%
X361569000Y-109855000D03*
%TD*%
%TO.P,MX76,2*%
%TO.N,Net-(D70-Pad2)*%
X367919000Y-88265000D03*
%TO.P,MX76,1*%
%TO.N,col14*%
X361569000Y-90805000D03*
%TD*%
%TO.P,MX75,2*%
%TO.N,Net-(D69-Pad2)*%
X367919000Y-69215000D03*
%TO.P,MX75,1*%
%TO.N,col14*%
X361569000Y-71755000D03*
%TD*%
%TO.P,MX74,2*%
%TO.N,Net-(D68-Pad2)*%
X367919000Y-50165000D03*
%TO.P,MX74,1*%
%TO.N,col14*%
X361569000Y-52705000D03*
%TD*%
%TO.P,MX73,2*%
%TO.N,Net-(D67-Pad2)*%
X367919000Y-31115000D03*
%TO.P,MX73,1*%
%TO.N,col14*%
X361569000Y-33655000D03*
%TD*%
%TO.P,MX72,2*%
%TO.N,Net-(D66-Pad2)*%
X348869000Y-107315000D03*
%TO.P,MX72,1*%
%TO.N,col13*%
X342519000Y-109855000D03*
%TD*%
%TO.P,MX71,2*%
%TO.N,Net-(D65-Pad2)*%
X348869000Y-88265000D03*
%TO.P,MX71,1*%
%TO.N,col13*%
X342519000Y-90805000D03*
%TD*%
%TO.P,MX70,2*%
%TO.N,Net-(D64-Pad2)*%
X325056500Y-69215000D03*
%TO.P,MX70,1*%
%TO.N,col13*%
X318706500Y-71755000D03*
%TD*%
%TO.P,MX69,2*%
%TO.N,Net-(D63-Pad2)*%
X344106500Y-50165000D03*
%TO.P,MX69,1*%
%TO.N,col13*%
X337756500Y-52705000D03*
%TD*%
%TO.P,MX67,2*%
%TO.N,Net-(D61-Pad2)*%
X329819000Y-107315000D03*
%TO.P,MX67,1*%
%TO.N,col12*%
X323469000Y-109855000D03*
%TD*%
%TO.P,MX66,2*%
%TO.N,Net-(D60-Pad2)*%
X322675300Y-88265000D03*
%TO.P,MX66,1*%
%TO.N,col12*%
X316325300Y-90805000D03*
%TD*%
%TO.P,MX65,2*%
%TO.N,Net-(D64-Pad2)*%
X336964000Y-69215000D03*
%TO.P,MX65,1*%
%TO.N,col13*%
X330614000Y-71755000D03*
%TD*%
%TO.P,MX64,2*%
%TO.N,Net-(D59-Pad2)*%
X320294000Y-50165000D03*
%TO.P,MX64,1*%
%TO.N,col12*%
X313944000Y-52705000D03*
%TD*%
%TO.P,MX63,2*%
%TO.N,Net-(D58-Pad2)*%
X310769000Y-31115000D03*
%TO.P,MX63,1*%
%TO.N,col12*%
X304419000Y-33655000D03*
%TD*%
%TO.P,MX62,2*%
%TO.N,Net-(D57-Pad2)*%
X310769000Y-107315000D03*
%TO.P,MX62,1*%
%TO.N,col11*%
X304419000Y-109855000D03*
%TD*%
%TO.P,MX61,2*%
%TO.N,Net-(D56-Pad2)*%
X296481500Y-88265000D03*
%TO.P,MX61,1*%
%TO.N,col11*%
X290131500Y-90805000D03*
%TD*%
%TO.P,MX60,2*%
%TO.N,Net-(D55-Pad2)*%
X306006500Y-69215000D03*
%TO.P,MX60,1*%
%TO.N,col11*%
X299656500Y-71755000D03*
%TD*%
%TO.P,MX59,2*%
%TO.N,Net-(D54-Pad2)*%
X301244000Y-50165000D03*
%TO.P,MX59,1*%
%TO.N,col11*%
X294894000Y-52705000D03*
%TD*%
%TO.P,MX58,2*%
%TO.N,Net-(D53-Pad2)*%
X291719000Y-31115000D03*
%TO.P,MX58,1*%
%TO.N,col11*%
X285369000Y-33655000D03*
%TD*%
%TO.P,MX57,2*%
%TO.N,Net-(D52-Pad2)*%
X306006500Y-107315000D03*
%TO.P,MX57,1*%
%TO.N,col10*%
X299656500Y-109855000D03*
%TD*%
%TO.P,MX56,2*%
%TO.N,Net-(D52-Pad2)*%
X291719000Y-107315000D03*
%TO.P,MX56,1*%
%TO.N,col10*%
X285369000Y-109855000D03*
%TD*%
%TO.P,MX55,2*%
%TO.N,Net-(D51-Pad2)*%
X277431500Y-88265000D03*
%TO.P,MX55,1*%
%TO.N,col10*%
X271081500Y-90805000D03*
%TD*%
%TO.P,MX54,2*%
%TO.N,Net-(D50-Pad2)*%
X286956500Y-69215000D03*
%TO.P,MX54,1*%
%TO.N,col10*%
X280606500Y-71755000D03*
%TD*%
%TO.P,MX53,2*%
%TO.N,Net-(D49-Pad2)*%
X282194000Y-50165000D03*
%TO.P,MX53,1*%
%TO.N,col10*%
X275844000Y-52705000D03*
%TD*%
%TO.P,MX52,2*%
%TO.N,Net-(D48-Pad2)*%
X272669000Y-31115000D03*
%TO.P,MX52,1*%
%TO.N,col10*%
X266319000Y-33655000D03*
%TD*%
%TO.P,MX51,2*%
%TO.N,Net-(D47-Pad2)*%
X277431500Y-107315000D03*
%TO.P,MX51,1*%
%TO.N,col9*%
X271081500Y-109855000D03*
%TD*%
%TO.P,MX50,2*%
%TO.N,Net-(D47-Pad2)*%
X272669000Y-107315000D03*
%TO.P,MX50,1*%
%TO.N,col9*%
X266319000Y-109855000D03*
%TD*%
%TO.P,MX49,2*%
%TO.N,Net-(D46-Pad2)*%
X258381500Y-88265000D03*
%TO.P,MX49,1*%
%TO.N,col9*%
X252031500Y-90805000D03*
%TD*%
%TO.P,MX48,2*%
%TO.N,Net-(D45-Pad2)*%
X267906500Y-69215000D03*
%TO.P,MX48,1*%
%TO.N,col9*%
X261556500Y-71755000D03*
%TD*%
%TO.P,MX47,2*%
%TO.N,Net-(D44-Pad2)*%
X263144000Y-50165000D03*
%TO.P,MX47,1*%
%TO.N,col9*%
X256794000Y-52705000D03*
%TD*%
%TO.P,MX46,2*%
%TO.N,Net-(D43-Pad2)*%
X253619000Y-31115000D03*
%TO.P,MX46,1*%
%TO.N,col9*%
X247269000Y-33655000D03*
%TD*%
%TO.P,MX45,2*%
%TO.N,Net-(D42-Pad2)*%
X239331500Y-88265000D03*
%TO.P,MX45,1*%
%TO.N,col8*%
X232981500Y-90805000D03*
%TD*%
%TO.P,MX44,2*%
%TO.N,Net-(D41-Pad2)*%
X248856500Y-69215000D03*
%TO.P,MX44,1*%
%TO.N,col8*%
X242506500Y-71755000D03*
%TD*%
%TO.P,MX43,2*%
%TO.N,Net-(D40-Pad2)*%
X244094000Y-50165000D03*
%TO.P,MX43,1*%
%TO.N,col8*%
X237744000Y-52705000D03*
%TD*%
%TO.P,MX42,2*%
%TO.N,Net-(D39-Pad2)*%
X234569000Y-31115000D03*
%TO.P,MX42,1*%
%TO.N,col8*%
X228219000Y-33655000D03*
%TD*%
%TO.P,MX41,2*%
%TO.N,Net-(D38-Pad2)*%
X220281500Y-88265000D03*
%TO.P,MX41,1*%
%TO.N,col7*%
X213931500Y-90805000D03*
%TD*%
%TO.P,MX40,2*%
%TO.N,Net-(D37-Pad2)*%
X229806500Y-69215000D03*
%TO.P,MX40,1*%
%TO.N,col7*%
X223456500Y-71755000D03*
%TD*%
%TO.P,MX39,2*%
%TO.N,Net-(D36-Pad2)*%
X225044000Y-50165000D03*
%TO.P,MX39,1*%
%TO.N,col7*%
X218694000Y-52705000D03*
%TD*%
%TO.P,MX38,2*%
%TO.N,Net-(D35-Pad2)*%
X215519000Y-31115000D03*
%TO.P,MX38,1*%
%TO.N,col7*%
X209169000Y-33655000D03*
%TD*%
%TO.P,MX37,2*%
%TO.N,Net-(D34-Pad2)*%
X201231500Y-88265000D03*
%TO.P,MX37,1*%
%TO.N,col6*%
X194881500Y-90805000D03*
%TD*%
%TO.P,MX36,2*%
%TO.N,Net-(D33-Pad2)*%
X210756500Y-69215000D03*
%TO.P,MX36,1*%
%TO.N,col6*%
X204406500Y-71755000D03*
%TD*%
%TO.P,MX35,2*%
%TO.N,Net-(D32-Pad2)*%
X205994000Y-50165000D03*
%TO.P,MX35,1*%
%TO.N,col6*%
X199644000Y-52705000D03*
%TD*%
%TO.P,MX34,2*%
%TO.N,Net-(D31-Pad2)*%
X196469000Y-31115000D03*
%TO.P,MX34,1*%
%TO.N,col6*%
X190119000Y-33655000D03*
%TD*%
%TO.P,MX33,2*%
%TO.N,Net-(D30-Pad2)*%
X196469000Y-107315000D03*
%TO.P,MX33,1*%
%TO.N,col5*%
X190119000Y-109855000D03*
%TD*%
%TO.P,MX32,2*%
%TO.N,Net-(D30-Pad2)*%
X203644500Y-107315000D03*
%TO.P,MX32,1*%
%TO.N,col5*%
X197294500Y-109855000D03*
%TD*%
%TO.P,MX31,2*%
%TO.N,Net-(D29-Pad2)*%
X182181500Y-88265000D03*
%TO.P,MX31,1*%
%TO.N,col5*%
X175831500Y-90805000D03*
%TD*%
%TO.P,MX30,2*%
%TO.N,Net-(D28-Pad2)*%
X191706500Y-69215000D03*
%TO.P,MX30,1*%
%TO.N,col5*%
X185356500Y-71755000D03*
%TD*%
%TO.P,MX29,2*%
%TO.N,Net-(D27-Pad2)*%
X186944000Y-50165000D03*
%TO.P,MX29,1*%
%TO.N,col5*%
X180594000Y-52705000D03*
%TD*%
%TO.P,MX28,2*%
%TO.N,Net-(D26-Pad2)*%
X177419000Y-31115000D03*
%TO.P,MX28,1*%
%TO.N,col5*%
X171069000Y-33655000D03*
%TD*%
%TO.P,MX27,2*%
%TO.N,Net-(D25-Pad2)*%
X163131500Y-88265000D03*
%TO.P,MX27,1*%
%TO.N,col4*%
X156781500Y-90805000D03*
%TD*%
%TO.P,MX26,2*%
%TO.N,Net-(D24-Pad2)*%
X172656500Y-69215000D03*
%TO.P,MX26,1*%
%TO.N,col4*%
X166306500Y-71755000D03*
%TD*%
%TO.P,MX25,2*%
%TO.N,Net-(D23-Pad2)*%
X167894000Y-50165000D03*
%TO.P,MX25,1*%
%TO.N,col4*%
X161544000Y-52705000D03*
%TD*%
%TO.P,MX24,2*%
%TO.N,Net-(D22-Pad2)*%
X158369000Y-31115000D03*
%TO.P,MX24,1*%
%TO.N,col4*%
X152019000Y-33655000D03*
%TD*%
%TO.P,MX23,2*%
%TO.N,Net-(D21-Pad2)*%
X144081500Y-88265000D03*
%TO.P,MX23,1*%
%TO.N,col3*%
X137731500Y-90805000D03*
%TD*%
%TO.P,MX22,2*%
%TO.N,Net-(D20-Pad2)*%
X153606500Y-69215000D03*
%TO.P,MX22,1*%
%TO.N,col3*%
X147256500Y-71755000D03*
%TD*%
%TO.P,MX21,2*%
%TO.N,Net-(D19-Pad2)*%
X148844000Y-50165000D03*
%TO.P,MX21,1*%
%TO.N,col3*%
X142494000Y-52705000D03*
%TD*%
%TO.P,MX20,2*%
%TO.N,Net-(D18-Pad2)*%
X139319000Y-31115000D03*
%TO.P,MX20,1*%
%TO.N,col3*%
X132969000Y-33655000D03*
%TD*%
%TO.P,MX19,2*%
%TO.N,Net-(D17-Pad2)*%
X115506500Y-107315000D03*
%TO.P,MX19,1*%
%TO.N,col2*%
X109156500Y-109855000D03*
%TD*%
%TO.P,MX18,2*%
%TO.N,Net-(D17-Pad2)*%
X132207000Y-107315000D03*
%TO.P,MX18,1*%
%TO.N,col2*%
X125857000Y-109855000D03*
%TD*%
%TO.P,MX17,2*%
%TO.N,Net-(D16-Pad2)*%
X125031500Y-88265000D03*
%TO.P,MX17,1*%
%TO.N,col2*%
X118681500Y-90805000D03*
%TD*%
%TO.P,MX16,2*%
%TO.N,Net-(D15-Pad2)*%
X134556500Y-69215000D03*
%TO.P,MX16,1*%
%TO.N,col2*%
X128206500Y-71755000D03*
%TD*%
%TO.P,MX15,2*%
%TO.N,Net-(D14-Pad2)*%
X129794000Y-50165000D03*
%TO.P,MX15,1*%
%TO.N,col2*%
X123444000Y-52705000D03*
%TD*%
%TO.P,MX14,2*%
%TO.N,Net-(D13-Pad2)*%
X120269000Y-31115000D03*
%TO.P,MX14,1*%
%TO.N,col2*%
X113919000Y-33655000D03*
%TD*%
%TO.P,MX12,2*%
%TO.N,Net-(D11-Pad2)*%
X105981500Y-88265000D03*
%TO.P,MX12,1*%
%TO.N,col1*%
X99631500Y-90805000D03*
%TD*%
%TO.P,MX11,2*%
%TO.N,Net-(D10-Pad2)*%
X115506500Y-69215000D03*
%TO.P,MX11,1*%
%TO.N,col1*%
X109156500Y-71755000D03*
%TD*%
%TO.P,MX10,2*%
%TO.N,Net-(D9-Pad2)*%
X110744000Y-50165000D03*
%TO.P,MX10,1*%
%TO.N,col1*%
X104394000Y-52705000D03*
%TD*%
%TO.P,MX9,2*%
%TO.N,Net-(D8-Pad2)*%
X101219000Y-31115000D03*
%TO.P,MX9,1*%
%TO.N,col1*%
X94869000Y-33655000D03*
%TD*%
%TO.P,MX8,2*%
%TO.N,Net-(D7-Pad2)*%
X86931500Y-107315000D03*
%TO.P,MX8,1*%
%TO.N,col0*%
X80581500Y-109855000D03*
%TD*%
%TO.P,MX7,2*%
%TO.N,Net-(D7-Pad2)*%
X84582000Y-107315000D03*
%TO.P,MX7,1*%
%TO.N,col0*%
X78232000Y-109855000D03*
%TD*%
%TO.P,MX6,2*%
%TO.N,Net-(D6-Pad2)*%
X94075300Y-88265000D03*
%TO.P,MX6,1*%
%TO.N,col0*%
X87725300Y-90805000D03*
%TD*%
%TO.P,MX5,2*%
%TO.N,Net-(D5-Pad2)*%
X89313800Y-69215000D03*
%TO.P,MX5,1*%
%TO.N,col0*%
X82963800Y-71755000D03*
%TD*%
%TO.P,MX4,2*%
%TO.N,Net-(D4-Pad2)*%
X86931500Y-50165000D03*
%TO.P,MX4,1*%
%TO.N,col0*%
X80581500Y-52705000D03*
%TD*%
%TO.P,MX3,2*%
%TO.N,Net-(D3-Pad2)*%
X82169000Y-31115000D03*
%TO.P,MX3,1*%
%TO.N,col0*%
X75819000Y-33655000D03*
%TD*%
%TO.P,MX2,2*%
%TO.N,Net-(D6-Pad2)*%
X84550300Y-88265000D03*
%TO.P,MX2,1*%
%TO.N,col0*%
X78200300Y-90805000D03*
%TD*%
%TO.P,MX1,2*%
%TO.N,Net-(D5-Pad2)*%
X84551000Y-69215000D03*
%TO.P,MX1,1*%
%TO.N,col0*%
X78201000Y-71755000D03*
%TD*%
D20*
%TO.P,J1-ISP1,6*%
%TO.N,GND*%
X39624000Y-60960000D03*
%TO.P,J1-ISP1,4*%
%TO.N,mosi*%
X39624000Y-58420000D03*
%TO.P,J1-ISP1,2*%
%TO.N,+5V*%
X39624000Y-55880000D03*
%TO.P,J1-ISP1,5*%
%TO.N,reset*%
X37084000Y-60960000D03*
%TO.P,J1-ISP1,3*%
%TO.N,sck*%
X37084000Y-58420000D03*
%TO.P,J1-ISP1,1*%
%TO.N,miso*%
%TA.AperFunction,ComponentPad*%
G36*
G01*
X36234000Y-56480000D02*
X36234000Y-55280000D01*
G75*
G02*
X36484000Y-55030000I250000J0D01*
G01*
X37684000Y-55030000D01*
G75*
G02*
X37934000Y-55280000I0J-250000D01*
G01*
X37934000Y-56480000D01*
G75*
G02*
X37684000Y-56730000I-250000J0D01*
G01*
X36484000Y-56730000D01*
G75*
G02*
X36234000Y-56480000I0J250000D01*
G01*
G37*
%TD.AperFunction*%
%TD*%
D19*
%TO.P,F1,1*%
%TO.N,+5V*%
X59382500Y-22606000D03*
%TO.P,F1,2*%
%TO.N,VCC*%
X54282500Y-22606000D03*
%TD*%
D15*
%TO.P,D71,2*%
%TO.N,Net-(D71-Pad2)*%
X374967500Y-109982000D03*
D16*
%TO.P,D71,1*%
%TO.N,row4*%
X374967500Y-115062000D03*
%TD*%
D15*
%TO.P,D70,2*%
%TO.N,Net-(D70-Pad2)*%
X374904000Y-91186000D03*
D16*
%TO.P,D70,1*%
%TO.N,row3*%
X374904000Y-96266000D03*
%TD*%
D15*
%TO.P,D69,2*%
%TO.N,Net-(D69-Pad2)*%
X374967500Y-71882000D03*
D16*
%TO.P,D69,1*%
%TO.N,row2*%
X374967500Y-76962000D03*
%TD*%
D15*
%TO.P,D68,2*%
%TO.N,Net-(D68-Pad2)*%
X374904000Y-52641500D03*
D16*
%TO.P,D68,1*%
%TO.N,row1*%
X374904000Y-57721500D03*
%TD*%
D15*
%TO.P,D67,2*%
%TO.N,Net-(D67-Pad2)*%
X374904000Y-33274000D03*
D16*
%TO.P,D67,1*%
%TO.N,row0*%
X374904000Y-38354000D03*
%TD*%
D15*
%TO.P,D66,2*%
%TO.N,Net-(D66-Pad2)*%
X355917500Y-109982000D03*
D16*
%TO.P,D66,1*%
%TO.N,row4*%
X355917500Y-115062000D03*
%TD*%
D15*
%TO.P,D65,2*%
%TO.N,Net-(D65-Pad2)*%
X355854000Y-91186000D03*
D16*
%TO.P,D65,1*%
%TO.N,row3*%
X355854000Y-96266000D03*
%TD*%
D15*
%TO.P,D64,2*%
%TO.N,Net-(D64-Pad2)*%
X355854000Y-71882000D03*
D16*
%TO.P,D64,1*%
%TO.N,row2*%
X355854000Y-76962000D03*
%TD*%
D15*
%TO.P,D63,2*%
%TO.N,Net-(D63-Pad2)*%
X355790500Y-52641500D03*
D16*
%TO.P,D63,1*%
%TO.N,row1*%
X355790500Y-57721500D03*
%TD*%
D15*
%TO.P,D62,2*%
%TO.N,Net-(D62-Pad2)*%
X355854000Y-33274000D03*
D16*
%TO.P,D62,1*%
%TO.N,row0*%
X355854000Y-38354000D03*
%TD*%
D15*
%TO.P,D61,2*%
%TO.N,Net-(D61-Pad2)*%
X336804000Y-109982000D03*
D16*
%TO.P,D61,1*%
%TO.N,row4*%
X336804000Y-115062000D03*
%TD*%
D15*
%TO.P,D60,2*%
%TO.N,Net-(D60-Pad2)*%
X336867500Y-91186000D03*
D16*
%TO.P,D60,1*%
%TO.N,row3*%
X336867500Y-96266000D03*
%TD*%
D15*
%TO.P,D59,2*%
%TO.N,Net-(D59-Pad2)*%
X327279000Y-52641500D03*
D16*
%TO.P,D59,1*%
%TO.N,row1*%
X327279000Y-57721500D03*
%TD*%
D15*
%TO.P,D58,2*%
%TO.N,Net-(D58-Pad2)*%
X317754000Y-33274000D03*
D16*
%TO.P,D58,1*%
%TO.N,row0*%
X317754000Y-38354000D03*
%TD*%
D15*
%TO.P,D57,2*%
%TO.N,Net-(D57-Pad2)*%
X317754000Y-109982000D03*
D16*
%TO.P,D57,1*%
%TO.N,row4*%
X317754000Y-115062000D03*
%TD*%
D15*
%TO.P,D56,2*%
%TO.N,Net-(D56-Pad2)*%
X303593500Y-91186000D03*
D16*
%TO.P,D56,1*%
%TO.N,row3*%
X303593500Y-96266000D03*
%TD*%
D15*
%TO.P,D55,2*%
%TO.N,Net-(D55-Pad2)*%
X312991500Y-71882000D03*
D16*
%TO.P,D55,1*%
%TO.N,row2*%
X312991500Y-76962000D03*
%TD*%
D15*
%TO.P,D54,2*%
%TO.N,Net-(D54-Pad2)*%
X308229000Y-52641500D03*
D16*
%TO.P,D54,1*%
%TO.N,row1*%
X308229000Y-57721500D03*
%TD*%
D15*
%TO.P,D53,2*%
%TO.N,Net-(D53-Pad2)*%
X298704000Y-33274000D03*
D16*
%TO.P,D53,1*%
%TO.N,row0*%
X298704000Y-38354000D03*
%TD*%
D15*
%TO.P,D52,2*%
%TO.N,Net-(D52-Pad2)*%
X291719000Y-121920000D03*
D16*
%TO.P,D52,1*%
%TO.N,row4*%
X296799000Y-121920000D03*
%TD*%
D15*
%TO.P,D51,2*%
%TO.N,Net-(D51-Pad2)*%
X284353000Y-91186000D03*
D16*
%TO.P,D51,1*%
%TO.N,row3*%
X284353000Y-96266000D03*
%TD*%
D15*
%TO.P,D50,2*%
%TO.N,Net-(D50-Pad2)*%
X294005000Y-71882000D03*
D16*
%TO.P,D50,1*%
%TO.N,row2*%
X294005000Y-76962000D03*
%TD*%
D15*
%TO.P,D49,2*%
%TO.N,Net-(D49-Pad2)*%
X289179000Y-52641500D03*
D16*
%TO.P,D49,1*%
%TO.N,row1*%
X289179000Y-57721500D03*
%TD*%
D15*
%TO.P,D48,2*%
%TO.N,Net-(D48-Pad2)*%
X279654000Y-33274000D03*
D16*
%TO.P,D48,1*%
%TO.N,row0*%
X279654000Y-38354000D03*
%TD*%
D15*
%TO.P,D47,2*%
%TO.N,Net-(D47-Pad2)*%
X272669000Y-121920000D03*
D16*
%TO.P,D47,1*%
%TO.N,row4*%
X277749000Y-121920000D03*
%TD*%
D15*
%TO.P,D46,2*%
%TO.N,Net-(D46-Pad2)*%
X265366500Y-91186000D03*
D16*
%TO.P,D46,1*%
%TO.N,row3*%
X265366500Y-96266000D03*
%TD*%
D15*
%TO.P,D45,2*%
%TO.N,Net-(D45-Pad2)*%
X274955000Y-71882000D03*
D16*
%TO.P,D45,1*%
%TO.N,row2*%
X274955000Y-76962000D03*
%TD*%
D15*
%TO.P,D44,2*%
%TO.N,Net-(D44-Pad2)*%
X270129000Y-52641500D03*
D16*
%TO.P,D44,1*%
%TO.N,row1*%
X270129000Y-57721500D03*
%TD*%
D15*
%TO.P,D43,2*%
%TO.N,Net-(D43-Pad2)*%
X260604000Y-33274000D03*
D16*
%TO.P,D43,1*%
%TO.N,row0*%
X260604000Y-38354000D03*
%TD*%
D15*
%TO.P,D42,2*%
%TO.N,Net-(D42-Pad2)*%
X246316500Y-91186000D03*
D16*
%TO.P,D42,1*%
%TO.N,row3*%
X246316500Y-96266000D03*
%TD*%
D15*
%TO.P,D41,2*%
%TO.N,Net-(D41-Pad2)*%
X255905000Y-71882000D03*
D16*
%TO.P,D41,1*%
%TO.N,row2*%
X255905000Y-76962000D03*
%TD*%
D15*
%TO.P,D40,2*%
%TO.N,Net-(D40-Pad2)*%
X251015500Y-52641500D03*
D16*
%TO.P,D40,1*%
%TO.N,row1*%
X251015500Y-57721500D03*
%TD*%
D15*
%TO.P,D39,2*%
%TO.N,Net-(D39-Pad2)*%
X241744500Y-33274000D03*
D16*
%TO.P,D39,1*%
%TO.N,row0*%
X241744500Y-38354000D03*
%TD*%
D15*
%TO.P,D38,2*%
%TO.N,Net-(D38-Pad2)*%
X227266500Y-91186000D03*
D16*
%TO.P,D38,1*%
%TO.N,row3*%
X227266500Y-96266000D03*
%TD*%
D15*
%TO.P,D37,2*%
%TO.N,Net-(D37-Pad2)*%
X236728000Y-71882000D03*
D16*
%TO.P,D37,1*%
%TO.N,row2*%
X236728000Y-76962000D03*
%TD*%
D15*
%TO.P,D36,2*%
%TO.N,Net-(D36-Pad2)*%
X232029000Y-52641500D03*
D16*
%TO.P,D36,1*%
%TO.N,row1*%
X232029000Y-57721500D03*
%TD*%
D15*
%TO.P,D35,2*%
%TO.N,Net-(D35-Pad2)*%
X222504000Y-33274000D03*
D16*
%TO.P,D35,1*%
%TO.N,row0*%
X222504000Y-38354000D03*
%TD*%
D15*
%TO.P,D34,2*%
%TO.N,Net-(D34-Pad2)*%
X208280000Y-91186000D03*
D16*
%TO.P,D34,1*%
%TO.N,row3*%
X208280000Y-96266000D03*
%TD*%
D15*
%TO.P,D33,2*%
%TO.N,Net-(D33-Pad2)*%
X217741500Y-71882000D03*
D16*
%TO.P,D33,1*%
%TO.N,row2*%
X217741500Y-76962000D03*
%TD*%
D15*
%TO.P,D32,2*%
%TO.N,Net-(D32-Pad2)*%
X213042500Y-52641500D03*
D16*
%TO.P,D32,1*%
%TO.N,row1*%
X213042500Y-57721500D03*
%TD*%
D15*
%TO.P,D31,2*%
%TO.N,Net-(D31-Pad2)*%
X203454000Y-33274000D03*
D16*
%TO.P,D31,1*%
%TO.N,row0*%
X203454000Y-38354000D03*
%TD*%
D15*
%TO.P,D30,2*%
%TO.N,Net-(D30-Pad2)*%
X260604000Y-109982000D03*
D16*
%TO.P,D30,1*%
%TO.N,row4*%
X260604000Y-115062000D03*
%TD*%
D15*
%TO.P,D29,2*%
%TO.N,Net-(D29-Pad2)*%
X189166500Y-91186000D03*
D16*
%TO.P,D29,1*%
%TO.N,row3*%
X189166500Y-96266000D03*
%TD*%
D15*
%TO.P,D28,2*%
%TO.N,Net-(D28-Pad2)*%
X198628000Y-71882000D03*
D16*
%TO.P,D28,1*%
%TO.N,row2*%
X198628000Y-76962000D03*
%TD*%
D15*
%TO.P,D27,2*%
%TO.N,Net-(D27-Pad2)*%
X193929000Y-52641500D03*
D16*
%TO.P,D27,1*%
%TO.N,row1*%
X193929000Y-57721500D03*
%TD*%
D15*
%TO.P,D26,2*%
%TO.N,Net-(D26-Pad2)*%
X184340500Y-33274000D03*
D16*
%TO.P,D26,1*%
%TO.N,row0*%
X184340500Y-38354000D03*
%TD*%
D15*
%TO.P,D25,2*%
%TO.N,Net-(D25-Pad2)*%
X170116500Y-91186000D03*
D16*
%TO.P,D25,1*%
%TO.N,row3*%
X170116500Y-96266000D03*
%TD*%
D15*
%TO.P,D24,2*%
%TO.N,Net-(D24-Pad2)*%
X179578000Y-71882000D03*
D16*
%TO.P,D24,1*%
%TO.N,row2*%
X179578000Y-76962000D03*
%TD*%
D15*
%TO.P,D23,2*%
%TO.N,Net-(D23-Pad2)*%
X174879000Y-52641500D03*
D16*
%TO.P,D23,1*%
%TO.N,row1*%
X174879000Y-57721500D03*
%TD*%
D15*
%TO.P,D22,2*%
%TO.N,Net-(D22-Pad2)*%
X165354000Y-33274000D03*
D16*
%TO.P,D22,1*%
%TO.N,row0*%
X165354000Y-38354000D03*
%TD*%
D15*
%TO.P,D21,2*%
%TO.N,Net-(D21-Pad2)*%
X151130000Y-91186000D03*
D16*
%TO.P,D21,1*%
%TO.N,row3*%
X151130000Y-96266000D03*
%TD*%
D15*
%TO.P,D20,2*%
%TO.N,Net-(D20-Pad2)*%
X160655000Y-71882000D03*
D16*
%TO.P,D20,1*%
%TO.N,row2*%
X160655000Y-76962000D03*
%TD*%
D15*
%TO.P,D19,2*%
%TO.N,Net-(D19-Pad2)*%
X155892500Y-52641500D03*
D16*
%TO.P,D19,1*%
%TO.N,row1*%
X155892500Y-57721500D03*
%TD*%
D15*
%TO.P,D18,2*%
%TO.N,Net-(D18-Pad2)*%
X146304000Y-33274000D03*
D16*
%TO.P,D18,1*%
%TO.N,row0*%
X146304000Y-38354000D03*
%TD*%
D15*
%TO.P,D17,2*%
%TO.N,Net-(D17-Pad2)*%
X141541500Y-109982000D03*
D16*
%TO.P,D17,1*%
%TO.N,row4*%
X141541500Y-115062000D03*
%TD*%
D15*
%TO.P,D16,2*%
%TO.N,Net-(D16-Pad2)*%
X132080000Y-91186000D03*
D16*
%TO.P,D16,1*%
%TO.N,row3*%
X132080000Y-96266000D03*
%TD*%
D15*
%TO.P,D15,2*%
%TO.N,Net-(D15-Pad2)*%
X141541500Y-71882000D03*
D16*
%TO.P,D15,1*%
%TO.N,row2*%
X141541500Y-76962000D03*
%TD*%
D15*
%TO.P,D14,2*%
%TO.N,Net-(D14-Pad2)*%
X136779000Y-52641500D03*
D16*
%TO.P,D14,1*%
%TO.N,row1*%
X136779000Y-57721500D03*
%TD*%
D15*
%TO.P,D13,2*%
%TO.N,Net-(D13-Pad2)*%
X127317500Y-33274000D03*
D16*
%TO.P,D13,1*%
%TO.N,row0*%
X127317500Y-38354000D03*
%TD*%
D15*
%TO.P,D12,2*%
%TO.N,Net-(D12-Pad2)*%
X108394500Y-121920000D03*
D16*
%TO.P,D12,1*%
%TO.N,row4*%
X113474500Y-121920000D03*
%TD*%
D15*
%TO.P,D11,2*%
%TO.N,Net-(D11-Pad2)*%
X112966500Y-91186000D03*
D16*
%TO.P,D11,1*%
%TO.N,row3*%
X112966500Y-96266000D03*
%TD*%
D15*
%TO.P,D10,2*%
%TO.N,Net-(D10-Pad2)*%
X122491500Y-71882000D03*
D16*
%TO.P,D10,1*%
%TO.N,row2*%
X122491500Y-76962000D03*
%TD*%
D15*
%TO.P,D9,2*%
%TO.N,Net-(D9-Pad2)*%
X117729000Y-52641500D03*
D16*
%TO.P,D9,1*%
%TO.N,row1*%
X117729000Y-57721500D03*
%TD*%
D15*
%TO.P,D8,2*%
%TO.N,Net-(D8-Pad2)*%
X108204000Y-33274000D03*
D16*
%TO.P,D8,1*%
%TO.N,row0*%
X108204000Y-38354000D03*
%TD*%
D15*
%TO.P,D7,2*%
%TO.N,Net-(D7-Pad2)*%
X93980000Y-109982000D03*
D16*
%TO.P,D7,1*%
%TO.N,row4*%
X93980000Y-115062000D03*
%TD*%
D15*
%TO.P,D6,2*%
%TO.N,Net-(D6-Pad2)*%
X70104000Y-91186000D03*
D16*
%TO.P,D6,1*%
%TO.N,row3*%
X70104000Y-96266000D03*
%TD*%
D15*
%TO.P,D5,2*%
%TO.N,Net-(D5-Pad2)*%
X103505000Y-71882000D03*
D16*
%TO.P,D5,1*%
%TO.N,row2*%
X103505000Y-76962000D03*
%TD*%
D15*
%TO.P,D4,2*%
%TO.N,Net-(D4-Pad2)*%
X98679000Y-52641500D03*
D16*
%TO.P,D4,1*%
%TO.N,row1*%
X98679000Y-57721500D03*
%TD*%
D15*
%TO.P,D3,2*%
%TO.N,Net-(D3-Pad2)*%
X89154000Y-33274000D03*
D16*
%TO.P,D3,1*%
%TO.N,row0*%
X89154000Y-38354000D03*
%TD*%
D15*
%TO.P,D2,2*%
%TO.N,GND*%
X35306000Y-36068000D03*
D16*
%TO.P,D2,1*%
%TO.N,Net-(D2-Pad1)*%
X40386000Y-36068000D03*
%TD*%
D15*
%TO.P,D1,2*%
%TO.N,GND*%
X48514000Y-36068000D03*
D16*
%TO.P,D1,1*%
%TO.N,Net-(D1-Pad1)*%
X43434000Y-36068000D03*
%TD*%
D21*
%TO.P,C5,2*%
%TO.N,GND*%
X59356000Y-26162000D03*
%TO.P,C5,1*%
%TO.N,+5V*%
X54356000Y-26162000D03*
%TD*%
%TO.P,C4,2*%
%TO.N,GND*%
X59356000Y-30480000D03*
%TO.P,C4,1*%
%TO.N,+5V*%
X54356000Y-30480000D03*
%TD*%
D22*
%TO.P,C3,2*%
%TO.N,GND*%
X56642000Y-36044000D03*
D23*
%TO.P,C3,1*%
%TO.N,+5V*%
X56642000Y-34544000D03*
%TD*%
D21*
%TO.P,C2,2*%
%TO.N,GND*%
X34798000Y-75605000D03*
%TO.P,C2,1*%
%TO.N,Net-(C2-Pad1)*%
X34798000Y-78105000D03*
%TD*%
%TO.P,C1,2*%
%TO.N,GND*%
X34798000Y-69255000D03*
%TO.P,C1,1*%
%TO.N,Net-(C1-Pad1)*%
X34798000Y-71755000D03*
%TD*%
D17*
%TO.P,Boot1,1*%
%TO.N,GND*%
X34648000Y-97972000D03*
%TO.P,Boot1,2*%
%TO.N,bload*%
X34648000Y-93472000D03*
%TO.P,Boot1,1*%
%TO.N,GND*%
X41148000Y-97972000D03*
%TO.P,Boot1,2*%
%TO.N,bload*%
X41148000Y-93472000D03*
%TD*%
D24*
%TO.N,+5V*%
X52895500Y-66675000D03*
%TO.N,D-*%
X52006500Y-41529000D03*
%TD*%
D25*
%TO.N,bload*%
X34648000Y-93472000D02*
X41148000Y-93472000D01*
X44831000Y-93472000D02*
X46228000Y-92075000D01*
X41148000Y-93472000D02*
X44831000Y-93472000D01*
%TO.N,Net-(C1-Pad1)*%
X40078000Y-71755000D02*
X40513000Y-71320000D01*
X34798000Y-71755000D02*
X40078000Y-71755000D01*
X45793000Y-71320000D02*
X46228000Y-71755000D01*
X40513000Y-71320000D02*
X45793000Y-71320000D01*
%TO.N,Net-(C2-Pad1)*%
X38608000Y-78105000D02*
X40513000Y-76200000D01*
X34798000Y-78105000D02*
X38608000Y-78105000D01*
X44323000Y-76200000D02*
X46228000Y-74295000D01*
X40513000Y-76200000D02*
X44323000Y-76200000D01*
D26*
%TO.N,+5V*%
X39624000Y-55880000D02*
X39624000Y-54038500D01*
X39624000Y-54038500D02*
X38925500Y-53340000D01*
X32766000Y-53340000D02*
X30226000Y-55880000D01*
X38925500Y-53340000D02*
X32766000Y-53340000D01*
X39624000Y-48116098D02*
X39624000Y-55880000D01*
X53927499Y-37258501D02*
X50481597Y-37258501D01*
X56642000Y-34544000D02*
X53927499Y-37258501D01*
X58928000Y-66675000D02*
X61468000Y-69215000D01*
X52895500Y-66675000D02*
X58928000Y-66675000D01*
X50481597Y-37258501D02*
X39624000Y-48116098D01*
X35924098Y-48116098D02*
X32766000Y-44958000D01*
X39624000Y-48116098D02*
X35924098Y-48116098D01*
D25*
%TO.N,Net-(D1-Pad1)*%
X42335000Y-34969000D02*
X43434000Y-36068000D01*
X42335000Y-26674000D02*
X42335000Y-34969000D01*
X43434000Y-36068000D02*
X43434000Y-39624000D01*
%TO.N,Net-(D2-Pad1)*%
X41485000Y-26561998D02*
X41485000Y-26674000D01*
X42330000Y-25716998D02*
X41485000Y-26561998D01*
X42330000Y-25349000D02*
X42330000Y-25716998D01*
X41485000Y-34969000D02*
X40386000Y-36068000D01*
X41485000Y-26674000D02*
X41485000Y-34969000D01*
X40386000Y-39624000D02*
X40386000Y-44958000D01*
X40386000Y-36068000D02*
X40386000Y-39624000D01*
%TO.N,Net-(D3-Pad2)*%
X86995000Y-31115000D02*
X89154000Y-33274000D01*
X82169000Y-31115000D02*
X86995000Y-31115000D01*
%TO.N,row0*%
X83693000Y-43815000D02*
X89154000Y-38354000D01*
X61468000Y-43815000D02*
X83693000Y-43815000D01*
X108044099Y-38513901D02*
X108204000Y-38354000D01*
X89313901Y-38513901D02*
X108044099Y-38513901D01*
X89154000Y-38354000D02*
X89313901Y-38513901D01*
X127157599Y-38513901D02*
X127317500Y-38354000D01*
X108363901Y-38513901D02*
X127157599Y-38513901D01*
X108204000Y-38354000D02*
X108363901Y-38513901D01*
X165194099Y-38513901D02*
X165354000Y-38354000D01*
X146463901Y-38513901D02*
X165194099Y-38513901D01*
X146304000Y-38354000D02*
X146463901Y-38513901D01*
X184180599Y-38513901D02*
X184340500Y-38354000D01*
X165513901Y-38513901D02*
X184180599Y-38513901D01*
X165354000Y-38354000D02*
X165513901Y-38513901D01*
X203294099Y-38513901D02*
X203454000Y-38354000D01*
X184500401Y-38513901D02*
X203294099Y-38513901D01*
X184340500Y-38354000D02*
X184500401Y-38513901D01*
X241584599Y-38513901D02*
X241744500Y-38354000D01*
X222663901Y-38513901D02*
X241584599Y-38513901D01*
X222504000Y-38354000D02*
X222663901Y-38513901D01*
X260444099Y-38513901D02*
X260604000Y-38354000D01*
X241904401Y-38513901D02*
X260444099Y-38513901D01*
X241744500Y-38354000D02*
X241904401Y-38513901D01*
X279494099Y-38513901D02*
X279654000Y-38354000D01*
X260763901Y-38513901D02*
X279494099Y-38513901D01*
X260604000Y-38354000D02*
X260763901Y-38513901D01*
X298544099Y-38513901D02*
X298704000Y-38354000D01*
X279813901Y-38513901D02*
X298544099Y-38513901D01*
X279654000Y-38354000D02*
X279813901Y-38513901D01*
X317594099Y-38513901D02*
X317754000Y-38354000D01*
X298863901Y-38513901D02*
X317594099Y-38513901D01*
X298704000Y-38354000D02*
X298863901Y-38513901D01*
X317913901Y-38513901D02*
X355694099Y-38513901D01*
X355694099Y-38513901D02*
X355854000Y-38354000D01*
X317754000Y-38354000D02*
X317913901Y-38513901D01*
X374744099Y-38513901D02*
X374904000Y-38354000D01*
X356013901Y-38513901D02*
X374744099Y-38513901D01*
X355854000Y-38354000D02*
X356013901Y-38513901D01*
X146144099Y-38513901D02*
X146304000Y-38354000D01*
X127477401Y-38513901D02*
X146144099Y-38513901D01*
X127317500Y-38354000D02*
X127477401Y-38513901D01*
X222344099Y-38513901D02*
X222504000Y-38354000D01*
X203613901Y-38513901D02*
X222344099Y-38513901D01*
X203454000Y-38354000D02*
X203613901Y-38513901D01*
%TO.N,Net-(D4-Pad2)*%
X96202500Y-50165000D02*
X98679000Y-52641500D01*
X86931500Y-50165000D02*
X96202500Y-50165000D01*
%TO.N,row1*%
X98679000Y-57721500D02*
X117729000Y-57721500D01*
X117729000Y-57721500D02*
X136779000Y-57721500D01*
X136779000Y-57721500D02*
X155892500Y-57721500D01*
X155892500Y-57721500D02*
X174879000Y-57721500D01*
X174879000Y-57721500D02*
X193929000Y-57721500D01*
X193929000Y-57721500D02*
X213042500Y-57721500D01*
X213042500Y-57721500D02*
X232029000Y-57721500D01*
X232029000Y-57721500D02*
X251015500Y-57721500D01*
X251015500Y-57721500D02*
X270129000Y-57721500D01*
X270129000Y-57721500D02*
X289179000Y-57721500D01*
X289179000Y-57721500D02*
X308229000Y-57721500D01*
X308229000Y-57721500D02*
X327279000Y-57721500D01*
X327279000Y-57721500D02*
X355790500Y-57721500D01*
X355790500Y-57721500D02*
X374904000Y-57721500D01*
X72834500Y-57721500D02*
X98679000Y-57721500D01*
X61468000Y-46355000D02*
X72834500Y-57721500D01*
%TO.N,Net-(D5-Pad2)*%
X84551000Y-69215000D02*
X89313800Y-69215000D01*
X100838000Y-69215000D02*
X103505000Y-71882000D01*
X89313800Y-69215000D02*
X100838000Y-69215000D01*
%TO.N,row2*%
X77821998Y-76962000D02*
X103505000Y-76962000D01*
X75730999Y-63157999D02*
X75730999Y-74871001D01*
X75730999Y-74871001D02*
X77821998Y-76962000D01*
X61468000Y-48895000D02*
X75730999Y-63157999D01*
X103505000Y-76962000D02*
X122491500Y-76962000D01*
X122491500Y-76962000D02*
X141541500Y-76962000D01*
X141541500Y-76962000D02*
X160655000Y-76962000D01*
X160655000Y-76962000D02*
X179578000Y-76962000D01*
X179578000Y-76962000D02*
X198628000Y-76962000D01*
X198628000Y-76962000D02*
X217741500Y-76962000D01*
X217741500Y-76962000D02*
X236728000Y-76962000D01*
X236728000Y-76962000D02*
X255905000Y-76962000D01*
X255905000Y-76962000D02*
X274955000Y-76962000D01*
X274955000Y-76962000D02*
X294005000Y-76962000D01*
X294005000Y-76962000D02*
X312991500Y-76962000D01*
X315056401Y-79026901D02*
X353789099Y-79026901D01*
X353789099Y-79026901D02*
X355854000Y-76962000D01*
X312991500Y-76962000D02*
X315056401Y-79026901D01*
X355854000Y-76962000D02*
X374967500Y-76962000D01*
%TO.N,Net-(D6-Pad2)*%
X94075300Y-88265000D02*
X84550300Y-88265000D01*
X73025000Y-88265000D02*
X70104000Y-91186000D01*
X84550300Y-88265000D02*
X73025000Y-88265000D01*
%TO.N,row3*%
X70104000Y-96266000D02*
X112966500Y-96266000D01*
X112966500Y-96266000D02*
X132080000Y-96266000D01*
X132080000Y-96266000D02*
X151130000Y-96266000D01*
X151130000Y-96266000D02*
X170116500Y-96266000D01*
X170116500Y-96266000D02*
X189166500Y-96266000D01*
X189166500Y-96266000D02*
X208280000Y-96266000D01*
X208280000Y-96266000D02*
X227266500Y-96266000D01*
X227266500Y-96266000D02*
X246316500Y-96266000D01*
X246316500Y-96266000D02*
X265366500Y-96266000D01*
X265366500Y-96266000D02*
X284353000Y-96266000D01*
X284353000Y-96266000D02*
X303593500Y-96266000D01*
X303593500Y-96266000D02*
X336867500Y-96266000D01*
X336867500Y-96266000D02*
X355854000Y-96266000D01*
X355854000Y-96266000D02*
X374904000Y-96266000D01*
X68978999Y-95140999D02*
X68978999Y-58945999D01*
X68978999Y-58945999D02*
X61468000Y-51435000D01*
X70104000Y-96266000D02*
X68978999Y-95140999D01*
%TO.N,Net-(D7-Pad2)*%
X84582000Y-107315000D02*
X86931500Y-107315000D01*
X91313000Y-107315000D02*
X93980000Y-109982000D01*
X86931500Y-107315000D02*
X91313000Y-107315000D01*
%TO.N,row4*%
X374967500Y-115062000D02*
X355917500Y-115062000D01*
X355917500Y-115062000D02*
X336804000Y-115062000D01*
X336804000Y-115062000D02*
X317754000Y-115062000D01*
X303657000Y-115062000D02*
X296799000Y-121920000D01*
X317754000Y-115062000D02*
X303657000Y-115062000D01*
X278874001Y-123045001D02*
X277749000Y-121920000D01*
X295673999Y-123045001D02*
X278874001Y-123045001D01*
X296799000Y-121920000D02*
X295673999Y-123045001D01*
X276623999Y-123045001D02*
X277749000Y-121920000D01*
X268587001Y-123045001D02*
X276623999Y-123045001D01*
X260604000Y-115062000D02*
X268587001Y-123045001D01*
X141541500Y-115062000D02*
X260604000Y-115062000D01*
X120332500Y-115062000D02*
X113474500Y-121920000D01*
X141541500Y-115062000D02*
X120332500Y-115062000D01*
X112349499Y-123045001D02*
X113474500Y-121920000D01*
X101963001Y-123045001D02*
X112349499Y-123045001D01*
X93980000Y-115062000D02*
X101963001Y-123045001D01*
X77852998Y-115062000D02*
X67500500Y-104709502D01*
X93980000Y-115062000D02*
X77852998Y-115062000D01*
X67500500Y-60007500D02*
X61468000Y-53975000D01*
X67500500Y-104709502D02*
X67500500Y-60007500D01*
%TO.N,Net-(D8-Pad2)*%
X106045000Y-31115000D02*
X108204000Y-33274000D01*
X101219000Y-31115000D02*
X106045000Y-31115000D01*
%TO.N,Net-(D9-Pad2)*%
X115252500Y-50165000D02*
X117729000Y-52641500D01*
X110744000Y-50165000D02*
X115252500Y-50165000D01*
%TO.N,Net-(D10-Pad2)*%
X119824500Y-69215000D02*
X122491500Y-71882000D01*
X115506500Y-69215000D02*
X119824500Y-69215000D01*
%TO.N,Net-(D11-Pad2)*%
X110045500Y-88265000D02*
X112966500Y-91186000D01*
X105981500Y-88265000D02*
X110045500Y-88265000D01*
%TO.N,Net-(D12-Pad2)*%
X106803510Y-107315000D02*
X108394500Y-107315000D01*
X103535599Y-110582911D02*
X106803510Y-107315000D01*
X103535599Y-117061099D02*
X103535599Y-110582911D01*
X108394500Y-121920000D02*
X103535599Y-117061099D01*
%TO.N,Net-(D13-Pad2)*%
X125158500Y-31115000D02*
X127317500Y-33274000D01*
X120269000Y-31115000D02*
X125158500Y-31115000D01*
%TO.N,Net-(D14-Pad2)*%
X134302500Y-50165000D02*
X136779000Y-52641500D01*
X129794000Y-50165000D02*
X134302500Y-50165000D01*
%TO.N,Net-(D15-Pad2)*%
X138874500Y-69215000D02*
X141541500Y-71882000D01*
X134556500Y-69215000D02*
X138874500Y-69215000D01*
%TO.N,Net-(D16-Pad2)*%
X129159000Y-88265000D02*
X132080000Y-91186000D01*
X125031500Y-88265000D02*
X129159000Y-88265000D01*
%TO.N,Net-(D17-Pad2)*%
X138874500Y-107315000D02*
X141541500Y-109982000D01*
X132207000Y-107315000D02*
X138874500Y-107315000D01*
X115506500Y-107315000D02*
X132207000Y-107315000D01*
%TO.N,Net-(D18-Pad2)*%
X144145000Y-31115000D02*
X146304000Y-33274000D01*
X139319000Y-31115000D02*
X144145000Y-31115000D01*
%TO.N,Net-(D19-Pad2)*%
X153416000Y-50165000D02*
X155892500Y-52641500D01*
X148844000Y-50165000D02*
X153416000Y-50165000D01*
%TO.N,Net-(D20-Pad2)*%
X157988000Y-69215000D02*
X160655000Y-71882000D01*
X153606500Y-69215000D02*
X157988000Y-69215000D01*
%TO.N,Net-(D21-Pad2)*%
X148209000Y-88265000D02*
X151130000Y-91186000D01*
X144081500Y-88265000D02*
X148209000Y-88265000D01*
%TO.N,Net-(D22-Pad2)*%
X163195000Y-31115000D02*
X165354000Y-33274000D01*
X158369000Y-31115000D02*
X163195000Y-31115000D01*
%TO.N,Net-(D23-Pad2)*%
X172402500Y-50165000D02*
X174879000Y-52641500D01*
X167894000Y-50165000D02*
X172402500Y-50165000D01*
%TO.N,Net-(D24-Pad2)*%
X176911000Y-69215000D02*
X179578000Y-71882000D01*
X172656500Y-69215000D02*
X176911000Y-69215000D01*
%TO.N,Net-(D25-Pad2)*%
X167195500Y-88265000D02*
X170116500Y-91186000D01*
X163131500Y-88265000D02*
X167195500Y-88265000D01*
%TO.N,Net-(D26-Pad2)*%
X182181500Y-31115000D02*
X184340500Y-33274000D01*
X177419000Y-31115000D02*
X182181500Y-31115000D01*
%TO.N,Net-(D27-Pad2)*%
X191452500Y-50165000D02*
X193929000Y-52641500D01*
X186944000Y-50165000D02*
X191452500Y-50165000D01*
%TO.N,Net-(D28-Pad2)*%
X195961000Y-69215000D02*
X198628000Y-71882000D01*
X191706500Y-69215000D02*
X195961000Y-69215000D01*
%TO.N,Net-(D29-Pad2)*%
X186245500Y-88265000D02*
X189166500Y-91186000D01*
X182181500Y-88265000D02*
X186245500Y-88265000D01*
%TO.N,Net-(D30-Pad2)*%
X257937000Y-107315000D02*
X260604000Y-109982000D01*
X203644500Y-107315000D02*
X257937000Y-107315000D01*
X196469000Y-107315000D02*
X203644500Y-107315000D01*
%TO.N,Net-(D31-Pad2)*%
X201295000Y-31115000D02*
X203454000Y-33274000D01*
X196469000Y-31115000D02*
X201295000Y-31115000D01*
%TO.N,Net-(D32-Pad2)*%
X210566000Y-50165000D02*
X213042500Y-52641500D01*
X205994000Y-50165000D02*
X210566000Y-50165000D01*
%TO.N,Net-(D33-Pad2)*%
X215074500Y-69215000D02*
X217741500Y-71882000D01*
X210756500Y-69215000D02*
X215074500Y-69215000D01*
%TO.N,Net-(D34-Pad2)*%
X205359000Y-88265000D02*
X208280000Y-91186000D01*
X201231500Y-88265000D02*
X205359000Y-88265000D01*
%TO.N,Net-(D35-Pad2)*%
X220345000Y-31115000D02*
X222504000Y-33274000D01*
X215519000Y-31115000D02*
X220345000Y-31115000D01*
%TO.N,Net-(D36-Pad2)*%
X229552500Y-50165000D02*
X232029000Y-52641500D01*
X225044000Y-50165000D02*
X229552500Y-50165000D01*
%TO.N,Net-(D37-Pad2)*%
X234061000Y-69215000D02*
X236728000Y-71882000D01*
X229806500Y-69215000D02*
X234061000Y-69215000D01*
%TO.N,Net-(D38-Pad2)*%
X224345500Y-88265000D02*
X227266500Y-91186000D01*
X220281500Y-88265000D02*
X224345500Y-88265000D01*
%TO.N,Net-(D39-Pad2)*%
X239585500Y-31115000D02*
X241744500Y-33274000D01*
X234569000Y-31115000D02*
X239585500Y-31115000D01*
%TO.N,Net-(D40-Pad2)*%
X248539000Y-50165000D02*
X251015500Y-52641500D01*
X244094000Y-50165000D02*
X248539000Y-50165000D01*
%TO.N,Net-(D41-Pad2)*%
X253238000Y-69215000D02*
X255905000Y-71882000D01*
X248856500Y-69215000D02*
X253238000Y-69215000D01*
%TO.N,Net-(D42-Pad2)*%
X243395500Y-88265000D02*
X246316500Y-91186000D01*
X239331500Y-88265000D02*
X243395500Y-88265000D01*
%TO.N,Net-(D43-Pad2)*%
X258445000Y-31115000D02*
X260604000Y-33274000D01*
X253619000Y-31115000D02*
X258445000Y-31115000D01*
%TO.N,Net-(D44-Pad2)*%
X267652500Y-50165000D02*
X270129000Y-52641500D01*
X263144000Y-50165000D02*
X267652500Y-50165000D01*
%TO.N,Net-(D45-Pad2)*%
X272288000Y-69215000D02*
X274955000Y-71882000D01*
X267906500Y-69215000D02*
X272288000Y-69215000D01*
%TO.N,Net-(D46-Pad2)*%
X262445500Y-88265000D02*
X265366500Y-91186000D01*
X258381500Y-88265000D02*
X262445500Y-88265000D01*
%TO.N,Net-(D47-Pad2)*%
X277210401Y-107536099D02*
X277431500Y-107315000D01*
X277210401Y-117378599D02*
X277210401Y-107536099D01*
X272669000Y-121920000D02*
X277210401Y-117378599D01*
X277431500Y-107315000D02*
X272669000Y-107315000D01*
%TO.N,Net-(D48-Pad2)*%
X277495000Y-31115000D02*
X279654000Y-33274000D01*
X272669000Y-31115000D02*
X277495000Y-31115000D01*
%TO.N,Net-(D49-Pad2)*%
X286702500Y-50165000D02*
X289179000Y-52641500D01*
X282194000Y-50165000D02*
X286702500Y-50165000D01*
%TO.N,Net-(D50-Pad2)*%
X291338000Y-69215000D02*
X294005000Y-71882000D01*
X286956500Y-69215000D02*
X291338000Y-69215000D01*
%TO.N,Net-(D51-Pad2)*%
X281432000Y-88265000D02*
X284353000Y-91186000D01*
X277431500Y-88265000D02*
X281432000Y-88265000D01*
%TO.N,Net-(D52-Pad2)*%
X291719000Y-121920000D02*
X291719000Y-107315000D01*
X291719000Y-107315000D02*
X306006500Y-107315000D01*
%TO.N,Net-(D53-Pad2)*%
X296545000Y-31115000D02*
X298704000Y-33274000D01*
X291719000Y-31115000D02*
X296545000Y-31115000D01*
%TO.N,Net-(D54-Pad2)*%
X305752500Y-50165000D02*
X308229000Y-52641500D01*
X301244000Y-50165000D02*
X305752500Y-50165000D01*
%TO.N,Net-(D55-Pad2)*%
X310324500Y-69215000D02*
X312991500Y-71882000D01*
X306006500Y-69215000D02*
X310324500Y-69215000D01*
%TO.N,Net-(D56-Pad2)*%
X300672500Y-88265000D02*
X303593500Y-91186000D01*
X296481500Y-88265000D02*
X300672500Y-88265000D01*
%TO.N,Net-(D57-Pad2)*%
X313436000Y-109982000D02*
X310769000Y-107315000D01*
X317754000Y-109982000D02*
X313436000Y-109982000D01*
%TO.N,Net-(D58-Pad2)*%
X315595000Y-31115000D02*
X317754000Y-33274000D01*
X310769000Y-31115000D02*
X315595000Y-31115000D01*
%TO.N,Net-(D59-Pad2)*%
X324802500Y-50165000D02*
X327279000Y-52641500D01*
X320294000Y-50165000D02*
X324802500Y-50165000D01*
%TO.N,Net-(D60-Pad2)*%
X333946500Y-88265000D02*
X336867500Y-91186000D01*
X322675300Y-88265000D02*
X333946500Y-88265000D01*
%TO.N,Net-(D61-Pad2)*%
X332486000Y-109982000D02*
X329819000Y-107315000D01*
X336804000Y-109982000D02*
X332486000Y-109982000D01*
%TO.N,Net-(D62-Pad2)*%
X353695000Y-31115000D02*
X355854000Y-33274000D01*
X339344000Y-31115000D02*
X353695000Y-31115000D01*
%TO.N,Net-(D63-Pad2)*%
X353314000Y-50165000D02*
X355790500Y-52641500D01*
X344106500Y-50165000D02*
X353314000Y-50165000D01*
%TO.N,Net-(D64-Pad2)*%
X325056500Y-69215000D02*
X336964000Y-69215000D01*
X348273248Y-71882000D02*
X355854000Y-71882000D01*
X344481249Y-68090001D02*
X348273248Y-71882000D01*
X338088999Y-68090001D02*
X344481249Y-68090001D01*
X336964000Y-69215000D02*
X338088999Y-68090001D01*
%TO.N,Net-(D65-Pad2)*%
X352933000Y-88265000D02*
X355854000Y-91186000D01*
X348869000Y-88265000D02*
X352933000Y-88265000D01*
%TO.N,Net-(D66-Pad2)*%
X351536000Y-109982000D02*
X348869000Y-107315000D01*
X355917500Y-109982000D02*
X351536000Y-109982000D01*
%TO.N,Net-(D67-Pad2)*%
X372745000Y-31115000D02*
X374904000Y-33274000D01*
X367919000Y-31115000D02*
X372745000Y-31115000D01*
%TO.N,Net-(D68-Pad2)*%
X372427500Y-50165000D02*
X374904000Y-52641500D01*
X367919000Y-50165000D02*
X372427500Y-50165000D01*
%TO.N,Net-(D69-Pad2)*%
X372300500Y-69215000D02*
X374967500Y-71882000D01*
X367919000Y-69215000D02*
X372300500Y-69215000D01*
%TO.N,Net-(D70-Pad2)*%
X371983000Y-88265000D02*
X374904000Y-91186000D01*
X367919000Y-88265000D02*
X371983000Y-88265000D01*
%TO.N,Net-(D71-Pad2)*%
X370586000Y-109982000D02*
X367919000Y-107315000D01*
X374967500Y-109982000D02*
X370586000Y-109982000D01*
%TO.N,mosi*%
X44323000Y-58420000D02*
X46228000Y-56515000D01*
X39624000Y-58420000D02*
X44323000Y-58420000D01*
%TO.N,reset*%
X34394000Y-82876000D02*
X40894000Y-82876000D01*
X34544000Y-63500000D02*
X37084000Y-60960000D01*
X30226000Y-63500000D02*
X34544000Y-63500000D01*
X40259000Y-64135000D02*
X46228000Y-64135000D01*
X37084000Y-60960000D02*
X40259000Y-64135000D01*
X30226000Y-78708000D02*
X30226000Y-63500000D01*
X34394000Y-82876000D02*
X30226000Y-78708000D01*
%TO.N,sck*%
X39059999Y-62135001D02*
X45687999Y-62135001D01*
X38448999Y-61524001D02*
X39059999Y-62135001D01*
X45687999Y-62135001D02*
X46228000Y-61595000D01*
X38448999Y-59784999D02*
X38448999Y-61524001D01*
X37084000Y-58420000D02*
X38448999Y-59784999D01*
%TO.N,miso*%
X47353001Y-55974999D02*
X47353001Y-57929999D01*
X46768001Y-55389999D02*
X47353001Y-55974999D01*
X47353001Y-57929999D02*
X46228000Y-59055000D01*
X45687999Y-55389999D02*
X46768001Y-55389999D01*
X38259001Y-57055001D02*
X44022997Y-57055001D01*
X44022997Y-57055001D02*
X45687999Y-55389999D01*
X37084000Y-55880000D02*
X38259001Y-57055001D01*
%TO.N,Net-(R2-Pad2)*%
X43185000Y-27691000D02*
X48514000Y-33020000D01*
X43185000Y-26674000D02*
X43185000Y-27691000D01*
%TO.N,Net-(R3-Pad2)*%
X36331001Y-31994999D02*
X35306000Y-33020000D01*
X36331001Y-25101970D02*
X36331001Y-31994999D01*
X37263981Y-24168990D02*
X36331001Y-25101970D01*
X39909609Y-24168990D02*
X37263981Y-24168990D01*
X40630000Y-24889381D02*
X39909609Y-24168990D01*
X40630000Y-25349000D02*
X40630000Y-24889381D01*
%TO.N,D-*%
X52006500Y-78676500D02*
X46228000Y-84455000D01*
X52006500Y-41529000D02*
X52006500Y-78676500D01*
%TO.N,D+*%
X51054000Y-77089000D02*
X46228000Y-81915000D01*
X51054000Y-39624000D02*
X51054000Y-77089000D01*
%TD*%
M02*
