%TF.GenerationSoftware,KiCad,Pcbnew,(5.1.8-0-10_14)*%
%TF.CreationDate,2020-12-18T20:02:30+00:00*%
%TF.ProjectId,Draytronics Jade,44726179-7472-46f6-9e69-6373204a6164,rev?*%
%TF.SameCoordinates,Original*%
%TF.FileFunction,Soldermask,Top*%
%TF.FilePolarity,Negative*%
%FSLAX46Y46*%
G04 Gerber Fmt 4.6, Leading zero omitted, Abs format (unit mm)*
G04 Created by KiCad (PCBNEW (5.1.8-0-10_14)) date 2020-12-18 20:02:30*
%MOMM*%
%LPD*%
G01*
G04 APERTURE LIST*
%ADD10C,4.200000*%
%ADD11C,4.087800*%
%ADD12C,1.850000*%
%ADD13C,3.148000*%
%ADD14C,1.600000*%
%ADD15C,0.750000*%
%ADD16O,1.000000X2.500000*%
%ADD17O,1.000000X1.800000*%
%ADD18O,1.700000X1.700000*%
%ADD19C,2.100000*%
%ADD20O,1.500000X1.500000*%
%ADD21C,1.500000*%
%ADD22C,1.800000*%
%ADD23C,1.700000*%
%ADD24C,1.300000*%
G04 APERTURE END LIST*
D10*
%TO.C,*%
X378000000Y-121920000D03*
%TD*%
%TO.C,*%
X378000000Y-25400000D03*
%TD*%
%TO.C,*%
X65000000Y-121920000D03*
%TD*%
%TO.C,*%
X65000000Y-25400000D03*
%TD*%
%TO.C,*%
X30480000Y-121920000D03*
%TD*%
%TO.C,*%
X30480000Y-25400000D03*
%TD*%
D11*
%TO.C,MX68*%
X336804000Y-36195000D03*
D12*
X331724000Y-36195000D03*
X341884000Y-36195000D03*
D13*
X324897750Y-29210000D03*
X348710250Y-29210000D03*
D11*
X324897750Y-44450000D03*
X348710250Y-44450000D03*
%TD*%
%TO.C,MX13*%
X105854500Y-112395000D03*
D12*
X100774500Y-112395000D03*
X110934500Y-112395000D03*
%TD*%
D14*
%TO.C,Y1*%
X40513000Y-71320000D03*
X40513000Y-76200000D03*
%TD*%
D15*
%TO.C,USB1*%
X43185000Y-26674000D03*
X44885000Y-26674000D03*
X44035000Y-26674000D03*
X42335000Y-26674000D03*
X41485000Y-26674000D03*
X40635000Y-26674000D03*
X39785000Y-26674000D03*
X38935000Y-26674000D03*
X44885000Y-25349000D03*
X44030000Y-25349000D03*
X43180000Y-25349000D03*
X42330000Y-25349000D03*
X41480000Y-25349000D03*
X40630000Y-25349000D03*
X39780000Y-25349000D03*
X38930000Y-25349000D03*
D16*
X46235000Y-25694000D03*
X37585000Y-25694000D03*
D17*
X46235000Y-22314000D03*
X37585000Y-22314000D03*
%TD*%
D18*
%TO.C,U1*%
X61468000Y-43815000D03*
X46228000Y-92075000D03*
X61468000Y-46355000D03*
X46228000Y-89535000D03*
X61468000Y-48895000D03*
X46228000Y-86995000D03*
X61468000Y-51435000D03*
X46228000Y-84455000D03*
X61468000Y-53975000D03*
X46228000Y-81915000D03*
X61468000Y-56515000D03*
X46228000Y-79375000D03*
X61468000Y-59055000D03*
X46228000Y-76835000D03*
X61468000Y-61595000D03*
X46228000Y-74295000D03*
X61468000Y-64135000D03*
X46228000Y-71755000D03*
X61468000Y-66675000D03*
X46228000Y-69215000D03*
X61468000Y-69215000D03*
X46228000Y-66675000D03*
X61468000Y-71755000D03*
X46228000Y-64135000D03*
X61468000Y-74295000D03*
X46228000Y-61595000D03*
X61468000Y-76835000D03*
X46228000Y-59055000D03*
X61468000Y-79375000D03*
X46228000Y-56515000D03*
X61468000Y-81915000D03*
X46228000Y-53975000D03*
X61468000Y-84455000D03*
X46228000Y-51435000D03*
X61468000Y-86995000D03*
X46228000Y-48895000D03*
X61468000Y-89535000D03*
X46228000Y-46355000D03*
X61468000Y-92075000D03*
G36*
G01*
X45378000Y-44615000D02*
X45378000Y-43015000D01*
G75*
G02*
X45428000Y-42965000I50000J0D01*
G01*
X47028000Y-42965000D01*
G75*
G02*
X47078000Y-43015000I0J-50000D01*
G01*
X47078000Y-44615000D01*
G75*
G02*
X47028000Y-44665000I-50000J0D01*
G01*
X45428000Y-44665000D01*
G75*
G02*
X45378000Y-44615000I0J50000D01*
G01*
G37*
%TD*%
D19*
%TO.C,Reset1*%
X34394000Y-87376000D03*
X34394000Y-82876000D03*
X40894000Y-87376000D03*
X40894000Y-82876000D03*
%TD*%
D20*
%TO.C,R6*%
X40386000Y-44958000D03*
D21*
X32766000Y-44958000D03*
%TD*%
D20*
%TO.C,R5*%
X43434000Y-39624000D03*
D21*
X51054000Y-39624000D03*
%TD*%
D20*
%TO.C,R4*%
X40386000Y-39624000D03*
D21*
X32766000Y-39624000D03*
%TD*%
%TO.C,R3*%
X35306000Y-25400000D03*
D20*
X35306000Y-33020000D03*
%TD*%
%TO.C,R2*%
X48514000Y-33020000D03*
D21*
X48514000Y-25400000D03*
%TD*%
D20*
%TO.C,R1*%
X30226000Y-63500000D03*
D21*
X30226000Y-55880000D03*
%TD*%
D11*
%TO.C,MX78*%
X335691500Y-52832000D03*
X335691500Y-76708000D03*
D13*
X350931500Y-52832000D03*
X350931500Y-76708000D03*
D12*
X343946500Y-69850000D03*
X343946500Y-59690000D03*
D11*
X343946500Y-64770000D03*
%TD*%
%TO.C,MX77*%
X365379000Y-112395000D03*
D12*
X360299000Y-112395000D03*
X370459000Y-112395000D03*
%TD*%
D11*
%TO.C,MX76*%
X365379000Y-93345000D03*
D12*
X360299000Y-93345000D03*
X370459000Y-93345000D03*
%TD*%
D11*
%TO.C,MX75*%
X365379000Y-74295000D03*
D12*
X360299000Y-74295000D03*
X370459000Y-74295000D03*
%TD*%
D11*
%TO.C,MX74*%
X365379000Y-55245000D03*
D12*
X360299000Y-55245000D03*
X370459000Y-55245000D03*
%TD*%
D11*
%TO.C,MX73*%
X365379000Y-36195000D03*
D12*
X360299000Y-36195000D03*
X370459000Y-36195000D03*
%TD*%
D11*
%TO.C,MX72*%
X346329000Y-112395000D03*
D12*
X341249000Y-112395000D03*
X351409000Y-112395000D03*
%TD*%
D11*
%TO.C,MX71*%
X346329000Y-93345000D03*
D12*
X341249000Y-93345000D03*
X351409000Y-93345000D03*
%TD*%
D11*
%TO.C,MX70*%
X322516500Y-74295000D03*
D12*
X317436500Y-74295000D03*
X327596500Y-74295000D03*
%TD*%
D11*
%TO.C,MX69*%
X341566500Y-55245000D03*
D12*
X336486500Y-55245000D03*
X346646500Y-55245000D03*
%TD*%
D11*
%TO.C,MX67*%
X327279000Y-112395000D03*
D12*
X322199000Y-112395000D03*
X332359000Y-112395000D03*
%TD*%
D11*
%TO.C,MX66*%
X320135300Y-93345000D03*
D12*
X315055300Y-93345000D03*
X325215300Y-93345000D03*
%TD*%
D11*
%TO.C,MX65*%
X334424000Y-74295000D03*
D12*
X329344000Y-74295000D03*
X339504000Y-74295000D03*
D13*
X322517750Y-67310000D03*
X346330250Y-67310000D03*
D11*
X322517750Y-82550000D03*
X346330250Y-82550000D03*
%TD*%
%TO.C,MX64*%
X317754000Y-55245000D03*
D12*
X312674000Y-55245000D03*
X322834000Y-55245000D03*
%TD*%
D11*
%TO.C,MX63*%
X308229000Y-36195000D03*
D12*
X303149000Y-36195000D03*
X313309000Y-36195000D03*
%TD*%
D11*
%TO.C,MX62*%
X308229000Y-112395000D03*
D12*
X303149000Y-112395000D03*
X313309000Y-112395000D03*
%TD*%
D11*
%TO.C,MX61*%
X293941500Y-93345000D03*
D12*
X288861500Y-93345000D03*
X299021500Y-93345000D03*
%TD*%
D11*
%TO.C,MX60*%
X303466500Y-74295000D03*
D12*
X298386500Y-74295000D03*
X308546500Y-74295000D03*
%TD*%
D11*
%TO.C,MX59*%
X298704000Y-55245000D03*
D12*
X293624000Y-55245000D03*
X303784000Y-55245000D03*
%TD*%
D11*
%TO.C,MX58*%
X289179000Y-36195000D03*
D12*
X284099000Y-36195000D03*
X294259000Y-36195000D03*
%TD*%
D11*
%TO.C,MX57*%
X303466500Y-112395000D03*
D12*
X298386500Y-112395000D03*
X308546500Y-112395000D03*
%TD*%
D11*
%TO.C,MX56*%
X289179000Y-112395000D03*
D12*
X284099000Y-112395000D03*
X294259000Y-112395000D03*
%TD*%
D11*
%TO.C,MX55*%
X274891500Y-93345000D03*
D12*
X269811500Y-93345000D03*
X279971500Y-93345000D03*
%TD*%
D11*
%TO.C,MX54*%
X284416500Y-74295000D03*
D12*
X279336500Y-74295000D03*
X289496500Y-74295000D03*
%TD*%
D11*
%TO.C,MX53*%
X279654000Y-55245000D03*
D12*
X274574000Y-55245000D03*
X284734000Y-55245000D03*
%TD*%
D11*
%TO.C,MX52*%
X270129000Y-36195000D03*
D12*
X265049000Y-36195000D03*
X275209000Y-36195000D03*
%TD*%
D11*
%TO.C,MX51*%
X274891500Y-112395000D03*
D12*
X269811500Y-112395000D03*
X279971500Y-112395000D03*
%TD*%
D11*
%TO.C,MX50*%
X270129000Y-112395000D03*
D12*
X265049000Y-112395000D03*
X275209000Y-112395000D03*
%TD*%
D11*
%TO.C,MX49*%
X255841500Y-93345000D03*
D12*
X250761500Y-93345000D03*
X260921500Y-93345000D03*
%TD*%
D11*
%TO.C,MX48*%
X265366500Y-74295000D03*
D12*
X260286500Y-74295000D03*
X270446500Y-74295000D03*
%TD*%
D11*
%TO.C,MX47*%
X260604000Y-55245000D03*
D12*
X255524000Y-55245000D03*
X265684000Y-55245000D03*
%TD*%
D11*
%TO.C,MX46*%
X251079000Y-36195000D03*
D12*
X245999000Y-36195000D03*
X256159000Y-36195000D03*
%TD*%
D11*
%TO.C,MX45*%
X236791500Y-93345000D03*
D12*
X231711500Y-93345000D03*
X241871500Y-93345000D03*
%TD*%
D11*
%TO.C,MX44*%
X246316500Y-74295000D03*
D12*
X241236500Y-74295000D03*
X251396500Y-74295000D03*
%TD*%
D11*
%TO.C,MX43*%
X241554000Y-55245000D03*
D12*
X236474000Y-55245000D03*
X246634000Y-55245000D03*
%TD*%
D11*
%TO.C,MX42*%
X232029000Y-36195000D03*
D12*
X226949000Y-36195000D03*
X237109000Y-36195000D03*
%TD*%
D11*
%TO.C,MX41*%
X217741500Y-93345000D03*
D12*
X212661500Y-93345000D03*
X222821500Y-93345000D03*
%TD*%
D11*
%TO.C,MX40*%
X227266500Y-74295000D03*
D12*
X222186500Y-74295000D03*
X232346500Y-74295000D03*
%TD*%
D11*
%TO.C,MX39*%
X222504000Y-55245000D03*
D12*
X217424000Y-55245000D03*
X227584000Y-55245000D03*
%TD*%
D11*
%TO.C,MX38*%
X212979000Y-36195000D03*
D12*
X207899000Y-36195000D03*
X218059000Y-36195000D03*
%TD*%
D11*
%TO.C,MX37*%
X198691500Y-93345000D03*
D12*
X193611500Y-93345000D03*
X203771500Y-93345000D03*
%TD*%
D11*
%TO.C,MX36*%
X208216500Y-74295000D03*
D12*
X203136500Y-74295000D03*
X213296500Y-74295000D03*
%TD*%
D11*
%TO.C,MX35*%
X203454000Y-55245000D03*
D12*
X198374000Y-55245000D03*
X208534000Y-55245000D03*
%TD*%
D11*
%TO.C,MX34*%
X193929000Y-36195000D03*
D12*
X188849000Y-36195000D03*
X199009000Y-36195000D03*
%TD*%
D11*
%TO.C,MX33*%
X193929000Y-112395000D03*
D12*
X188849000Y-112395000D03*
X199009000Y-112395000D03*
D13*
X136779000Y-105410000D03*
X251079000Y-105410000D03*
D11*
X136779000Y-120650000D03*
X251079000Y-120650000D03*
%TD*%
%TO.C,MX32*%
X201104500Y-112395000D03*
D12*
X196024500Y-112395000D03*
X206184500Y-112395000D03*
D13*
X151104600Y-105410000D03*
X251104400Y-105410000D03*
D11*
X151104600Y-120650000D03*
X251104400Y-120650000D03*
%TD*%
%TO.C,MX31*%
X179641500Y-93345000D03*
D12*
X174561500Y-93345000D03*
X184721500Y-93345000D03*
%TD*%
D11*
%TO.C,MX30*%
X189166500Y-74295000D03*
D12*
X184086500Y-74295000D03*
X194246500Y-74295000D03*
%TD*%
D11*
%TO.C,MX29*%
X184404000Y-55245000D03*
D12*
X179324000Y-55245000D03*
X189484000Y-55245000D03*
%TD*%
D11*
%TO.C,MX28*%
X174879000Y-36195000D03*
D12*
X169799000Y-36195000D03*
X179959000Y-36195000D03*
%TD*%
D11*
%TO.C,MX27*%
X160591500Y-93345000D03*
D12*
X155511500Y-93345000D03*
X165671500Y-93345000D03*
%TD*%
D11*
%TO.C,MX26*%
X170116500Y-74295000D03*
D12*
X165036500Y-74295000D03*
X175196500Y-74295000D03*
%TD*%
D11*
%TO.C,MX25*%
X165354000Y-55245000D03*
D12*
X160274000Y-55245000D03*
X170434000Y-55245000D03*
%TD*%
D11*
%TO.C,MX24*%
X155829000Y-36195000D03*
D12*
X150749000Y-36195000D03*
X160909000Y-36195000D03*
%TD*%
D11*
%TO.C,MX23*%
X141541500Y-93345000D03*
D12*
X136461500Y-93345000D03*
X146621500Y-93345000D03*
%TD*%
D11*
%TO.C,MX22*%
X151066500Y-74295000D03*
D12*
X145986500Y-74295000D03*
X156146500Y-74295000D03*
%TD*%
D11*
%TO.C,MX21*%
X146304000Y-55245000D03*
D12*
X141224000Y-55245000D03*
X151384000Y-55245000D03*
%TD*%
D11*
%TO.C,MX20*%
X136779000Y-36195000D03*
D12*
X131699000Y-36195000D03*
X141859000Y-36195000D03*
%TD*%
D11*
%TO.C,MX19*%
X112966500Y-112395000D03*
D12*
X107886500Y-112395000D03*
X118046500Y-112395000D03*
%TD*%
D11*
%TO.C,MX18*%
X129667000Y-112395000D03*
D12*
X124587000Y-112395000D03*
X134747000Y-112395000D03*
%TD*%
D11*
%TO.C,MX17*%
X122491500Y-93345000D03*
D12*
X117411500Y-93345000D03*
X127571500Y-93345000D03*
%TD*%
D11*
%TO.C,MX16*%
X132016500Y-74295000D03*
D12*
X126936500Y-74295000D03*
X137096500Y-74295000D03*
%TD*%
D11*
%TO.C,MX15*%
X127254000Y-55245000D03*
D12*
X122174000Y-55245000D03*
X132334000Y-55245000D03*
%TD*%
D11*
%TO.C,MX14*%
X117729000Y-36195000D03*
D12*
X112649000Y-36195000D03*
X122809000Y-36195000D03*
%TD*%
D11*
%TO.C,MX12*%
X103441500Y-93345000D03*
D12*
X98361500Y-93345000D03*
X108521500Y-93345000D03*
%TD*%
D11*
%TO.C,MX11*%
X112966500Y-74295000D03*
D12*
X107886500Y-74295000D03*
X118046500Y-74295000D03*
%TD*%
D11*
%TO.C,MX10*%
X108204000Y-55245000D03*
D12*
X103124000Y-55245000D03*
X113284000Y-55245000D03*
%TD*%
D11*
%TO.C,MX9*%
X98679000Y-36195000D03*
D12*
X93599000Y-36195000D03*
X103759000Y-36195000D03*
%TD*%
D11*
%TO.C,MX8*%
X84391500Y-112395000D03*
D12*
X79311500Y-112395000D03*
X89471500Y-112395000D03*
%TD*%
D11*
%TO.C,MX7*%
X82042000Y-112395000D03*
D12*
X76962000Y-112395000D03*
X87122000Y-112395000D03*
%TD*%
D11*
%TO.C,MX6*%
X91535300Y-93345000D03*
D12*
X86455300Y-93345000D03*
X96615300Y-93345000D03*
D13*
X79629050Y-86360000D03*
X103441550Y-86360000D03*
D11*
X79629050Y-101600000D03*
X103441550Y-101600000D03*
%TD*%
%TO.C,MX5*%
X86773800Y-74295000D03*
D12*
X81693800Y-74295000D03*
X91853800Y-74295000D03*
%TD*%
D11*
%TO.C,MX4*%
X84391500Y-55245000D03*
D12*
X79311500Y-55245000D03*
X89471500Y-55245000D03*
%TD*%
D11*
%TO.C,MX3*%
X79629000Y-36195000D03*
D12*
X74549000Y-36195000D03*
X84709000Y-36195000D03*
%TD*%
D11*
%TO.C,MX2*%
X82010300Y-93345000D03*
D12*
X76930300Y-93345000D03*
X87090300Y-93345000D03*
%TD*%
D11*
%TO.C,MX1*%
X82011000Y-74295000D03*
D12*
X76931000Y-74295000D03*
X87091000Y-74295000D03*
%TD*%
D22*
%TO.C,J1-ISP1*%
X39624000Y-60960000D03*
X39624000Y-58420000D03*
X39624000Y-55880000D03*
X37084000Y-60960000D03*
X37084000Y-58420000D03*
G36*
G01*
X36184000Y-56515295D02*
X36184000Y-55244705D01*
G75*
G02*
X36448705Y-54980000I264705J0D01*
G01*
X37719295Y-54980000D01*
G75*
G02*
X37984000Y-55244705I0J-264705D01*
G01*
X37984000Y-56515295D01*
G75*
G02*
X37719295Y-56780000I-264705J0D01*
G01*
X36448705Y-56780000D01*
G75*
G02*
X36184000Y-56515295I0J264705D01*
G01*
G37*
%TD*%
D21*
%TO.C,F1*%
X59382500Y-22606000D03*
X54282500Y-22606000D03*
%TD*%
D18*
%TO.C,D71*%
X374967500Y-109982000D03*
G36*
G01*
X375767500Y-115912000D02*
X374167500Y-115912000D01*
G75*
G02*
X374117500Y-115862000I0J50000D01*
G01*
X374117500Y-114262000D01*
G75*
G02*
X374167500Y-114212000I50000J0D01*
G01*
X375767500Y-114212000D01*
G75*
G02*
X375817500Y-114262000I0J-50000D01*
G01*
X375817500Y-115862000D01*
G75*
G02*
X375767500Y-115912000I-50000J0D01*
G01*
G37*
%TD*%
%TO.C,D70*%
X374904000Y-91186000D03*
G36*
G01*
X375704000Y-97116000D02*
X374104000Y-97116000D01*
G75*
G02*
X374054000Y-97066000I0J50000D01*
G01*
X374054000Y-95466000D01*
G75*
G02*
X374104000Y-95416000I50000J0D01*
G01*
X375704000Y-95416000D01*
G75*
G02*
X375754000Y-95466000I0J-50000D01*
G01*
X375754000Y-97066000D01*
G75*
G02*
X375704000Y-97116000I-50000J0D01*
G01*
G37*
%TD*%
%TO.C,D69*%
X374967500Y-71882000D03*
G36*
G01*
X375767500Y-77812000D02*
X374167500Y-77812000D01*
G75*
G02*
X374117500Y-77762000I0J50000D01*
G01*
X374117500Y-76162000D01*
G75*
G02*
X374167500Y-76112000I50000J0D01*
G01*
X375767500Y-76112000D01*
G75*
G02*
X375817500Y-76162000I0J-50000D01*
G01*
X375817500Y-77762000D01*
G75*
G02*
X375767500Y-77812000I-50000J0D01*
G01*
G37*
%TD*%
%TO.C,D68*%
X374904000Y-52641500D03*
G36*
G01*
X375704000Y-58571500D02*
X374104000Y-58571500D01*
G75*
G02*
X374054000Y-58521500I0J50000D01*
G01*
X374054000Y-56921500D01*
G75*
G02*
X374104000Y-56871500I50000J0D01*
G01*
X375704000Y-56871500D01*
G75*
G02*
X375754000Y-56921500I0J-50000D01*
G01*
X375754000Y-58521500D01*
G75*
G02*
X375704000Y-58571500I-50000J0D01*
G01*
G37*
%TD*%
%TO.C,D67*%
X374904000Y-33274000D03*
G36*
G01*
X375704000Y-39204000D02*
X374104000Y-39204000D01*
G75*
G02*
X374054000Y-39154000I0J50000D01*
G01*
X374054000Y-37554000D01*
G75*
G02*
X374104000Y-37504000I50000J0D01*
G01*
X375704000Y-37504000D01*
G75*
G02*
X375754000Y-37554000I0J-50000D01*
G01*
X375754000Y-39154000D01*
G75*
G02*
X375704000Y-39204000I-50000J0D01*
G01*
G37*
%TD*%
%TO.C,D66*%
X355917500Y-109982000D03*
G36*
G01*
X356717500Y-115912000D02*
X355117500Y-115912000D01*
G75*
G02*
X355067500Y-115862000I0J50000D01*
G01*
X355067500Y-114262000D01*
G75*
G02*
X355117500Y-114212000I50000J0D01*
G01*
X356717500Y-114212000D01*
G75*
G02*
X356767500Y-114262000I0J-50000D01*
G01*
X356767500Y-115862000D01*
G75*
G02*
X356717500Y-115912000I-50000J0D01*
G01*
G37*
%TD*%
%TO.C,D65*%
X355854000Y-91186000D03*
G36*
G01*
X356654000Y-97116000D02*
X355054000Y-97116000D01*
G75*
G02*
X355004000Y-97066000I0J50000D01*
G01*
X355004000Y-95466000D01*
G75*
G02*
X355054000Y-95416000I50000J0D01*
G01*
X356654000Y-95416000D01*
G75*
G02*
X356704000Y-95466000I0J-50000D01*
G01*
X356704000Y-97066000D01*
G75*
G02*
X356654000Y-97116000I-50000J0D01*
G01*
G37*
%TD*%
%TO.C,D64*%
X355854000Y-71882000D03*
G36*
G01*
X356654000Y-77812000D02*
X355054000Y-77812000D01*
G75*
G02*
X355004000Y-77762000I0J50000D01*
G01*
X355004000Y-76162000D01*
G75*
G02*
X355054000Y-76112000I50000J0D01*
G01*
X356654000Y-76112000D01*
G75*
G02*
X356704000Y-76162000I0J-50000D01*
G01*
X356704000Y-77762000D01*
G75*
G02*
X356654000Y-77812000I-50000J0D01*
G01*
G37*
%TD*%
%TO.C,D63*%
X355790500Y-52641500D03*
G36*
G01*
X356590500Y-58571500D02*
X354990500Y-58571500D01*
G75*
G02*
X354940500Y-58521500I0J50000D01*
G01*
X354940500Y-56921500D01*
G75*
G02*
X354990500Y-56871500I50000J0D01*
G01*
X356590500Y-56871500D01*
G75*
G02*
X356640500Y-56921500I0J-50000D01*
G01*
X356640500Y-58521500D01*
G75*
G02*
X356590500Y-58571500I-50000J0D01*
G01*
G37*
%TD*%
%TO.C,D62*%
X355854000Y-33274000D03*
G36*
G01*
X356654000Y-39204000D02*
X355054000Y-39204000D01*
G75*
G02*
X355004000Y-39154000I0J50000D01*
G01*
X355004000Y-37554000D01*
G75*
G02*
X355054000Y-37504000I50000J0D01*
G01*
X356654000Y-37504000D01*
G75*
G02*
X356704000Y-37554000I0J-50000D01*
G01*
X356704000Y-39154000D01*
G75*
G02*
X356654000Y-39204000I-50000J0D01*
G01*
G37*
%TD*%
%TO.C,D61*%
X336804000Y-109982000D03*
G36*
G01*
X337604000Y-115912000D02*
X336004000Y-115912000D01*
G75*
G02*
X335954000Y-115862000I0J50000D01*
G01*
X335954000Y-114262000D01*
G75*
G02*
X336004000Y-114212000I50000J0D01*
G01*
X337604000Y-114212000D01*
G75*
G02*
X337654000Y-114262000I0J-50000D01*
G01*
X337654000Y-115862000D01*
G75*
G02*
X337604000Y-115912000I-50000J0D01*
G01*
G37*
%TD*%
%TO.C,D60*%
X336867500Y-91186000D03*
G36*
G01*
X337667500Y-97116000D02*
X336067500Y-97116000D01*
G75*
G02*
X336017500Y-97066000I0J50000D01*
G01*
X336017500Y-95466000D01*
G75*
G02*
X336067500Y-95416000I50000J0D01*
G01*
X337667500Y-95416000D01*
G75*
G02*
X337717500Y-95466000I0J-50000D01*
G01*
X337717500Y-97066000D01*
G75*
G02*
X337667500Y-97116000I-50000J0D01*
G01*
G37*
%TD*%
%TO.C,D59*%
X327279000Y-52641500D03*
G36*
G01*
X328079000Y-58571500D02*
X326479000Y-58571500D01*
G75*
G02*
X326429000Y-58521500I0J50000D01*
G01*
X326429000Y-56921500D01*
G75*
G02*
X326479000Y-56871500I50000J0D01*
G01*
X328079000Y-56871500D01*
G75*
G02*
X328129000Y-56921500I0J-50000D01*
G01*
X328129000Y-58521500D01*
G75*
G02*
X328079000Y-58571500I-50000J0D01*
G01*
G37*
%TD*%
%TO.C,D58*%
X317754000Y-33274000D03*
G36*
G01*
X318554000Y-39204000D02*
X316954000Y-39204000D01*
G75*
G02*
X316904000Y-39154000I0J50000D01*
G01*
X316904000Y-37554000D01*
G75*
G02*
X316954000Y-37504000I50000J0D01*
G01*
X318554000Y-37504000D01*
G75*
G02*
X318604000Y-37554000I0J-50000D01*
G01*
X318604000Y-39154000D01*
G75*
G02*
X318554000Y-39204000I-50000J0D01*
G01*
G37*
%TD*%
%TO.C,D57*%
X317754000Y-109982000D03*
G36*
G01*
X318554000Y-115912000D02*
X316954000Y-115912000D01*
G75*
G02*
X316904000Y-115862000I0J50000D01*
G01*
X316904000Y-114262000D01*
G75*
G02*
X316954000Y-114212000I50000J0D01*
G01*
X318554000Y-114212000D01*
G75*
G02*
X318604000Y-114262000I0J-50000D01*
G01*
X318604000Y-115862000D01*
G75*
G02*
X318554000Y-115912000I-50000J0D01*
G01*
G37*
%TD*%
%TO.C,D56*%
X303593500Y-91186000D03*
G36*
G01*
X304393500Y-97116000D02*
X302793500Y-97116000D01*
G75*
G02*
X302743500Y-97066000I0J50000D01*
G01*
X302743500Y-95466000D01*
G75*
G02*
X302793500Y-95416000I50000J0D01*
G01*
X304393500Y-95416000D01*
G75*
G02*
X304443500Y-95466000I0J-50000D01*
G01*
X304443500Y-97066000D01*
G75*
G02*
X304393500Y-97116000I-50000J0D01*
G01*
G37*
%TD*%
%TO.C,D55*%
X312991500Y-71882000D03*
G36*
G01*
X313791500Y-77812000D02*
X312191500Y-77812000D01*
G75*
G02*
X312141500Y-77762000I0J50000D01*
G01*
X312141500Y-76162000D01*
G75*
G02*
X312191500Y-76112000I50000J0D01*
G01*
X313791500Y-76112000D01*
G75*
G02*
X313841500Y-76162000I0J-50000D01*
G01*
X313841500Y-77762000D01*
G75*
G02*
X313791500Y-77812000I-50000J0D01*
G01*
G37*
%TD*%
%TO.C,D54*%
X308229000Y-52641500D03*
G36*
G01*
X309029000Y-58571500D02*
X307429000Y-58571500D01*
G75*
G02*
X307379000Y-58521500I0J50000D01*
G01*
X307379000Y-56921500D01*
G75*
G02*
X307429000Y-56871500I50000J0D01*
G01*
X309029000Y-56871500D01*
G75*
G02*
X309079000Y-56921500I0J-50000D01*
G01*
X309079000Y-58521500D01*
G75*
G02*
X309029000Y-58571500I-50000J0D01*
G01*
G37*
%TD*%
%TO.C,D53*%
X298704000Y-33274000D03*
G36*
G01*
X299504000Y-39204000D02*
X297904000Y-39204000D01*
G75*
G02*
X297854000Y-39154000I0J50000D01*
G01*
X297854000Y-37554000D01*
G75*
G02*
X297904000Y-37504000I50000J0D01*
G01*
X299504000Y-37504000D01*
G75*
G02*
X299554000Y-37554000I0J-50000D01*
G01*
X299554000Y-39154000D01*
G75*
G02*
X299504000Y-39204000I-50000J0D01*
G01*
G37*
%TD*%
%TO.C,D52*%
X291719000Y-121920000D03*
G36*
G01*
X297649000Y-121120000D02*
X297649000Y-122720000D01*
G75*
G02*
X297599000Y-122770000I-50000J0D01*
G01*
X295999000Y-122770000D01*
G75*
G02*
X295949000Y-122720000I0J50000D01*
G01*
X295949000Y-121120000D01*
G75*
G02*
X295999000Y-121070000I50000J0D01*
G01*
X297599000Y-121070000D01*
G75*
G02*
X297649000Y-121120000I0J-50000D01*
G01*
G37*
%TD*%
%TO.C,D51*%
X284353000Y-91186000D03*
G36*
G01*
X285153000Y-97116000D02*
X283553000Y-97116000D01*
G75*
G02*
X283503000Y-97066000I0J50000D01*
G01*
X283503000Y-95466000D01*
G75*
G02*
X283553000Y-95416000I50000J0D01*
G01*
X285153000Y-95416000D01*
G75*
G02*
X285203000Y-95466000I0J-50000D01*
G01*
X285203000Y-97066000D01*
G75*
G02*
X285153000Y-97116000I-50000J0D01*
G01*
G37*
%TD*%
%TO.C,D50*%
X294005000Y-71882000D03*
G36*
G01*
X294805000Y-77812000D02*
X293205000Y-77812000D01*
G75*
G02*
X293155000Y-77762000I0J50000D01*
G01*
X293155000Y-76162000D01*
G75*
G02*
X293205000Y-76112000I50000J0D01*
G01*
X294805000Y-76112000D01*
G75*
G02*
X294855000Y-76162000I0J-50000D01*
G01*
X294855000Y-77762000D01*
G75*
G02*
X294805000Y-77812000I-50000J0D01*
G01*
G37*
%TD*%
%TO.C,D49*%
X289179000Y-52641500D03*
G36*
G01*
X289979000Y-58571500D02*
X288379000Y-58571500D01*
G75*
G02*
X288329000Y-58521500I0J50000D01*
G01*
X288329000Y-56921500D01*
G75*
G02*
X288379000Y-56871500I50000J0D01*
G01*
X289979000Y-56871500D01*
G75*
G02*
X290029000Y-56921500I0J-50000D01*
G01*
X290029000Y-58521500D01*
G75*
G02*
X289979000Y-58571500I-50000J0D01*
G01*
G37*
%TD*%
%TO.C,D48*%
X279654000Y-33274000D03*
G36*
G01*
X280454000Y-39204000D02*
X278854000Y-39204000D01*
G75*
G02*
X278804000Y-39154000I0J50000D01*
G01*
X278804000Y-37554000D01*
G75*
G02*
X278854000Y-37504000I50000J0D01*
G01*
X280454000Y-37504000D01*
G75*
G02*
X280504000Y-37554000I0J-50000D01*
G01*
X280504000Y-39154000D01*
G75*
G02*
X280454000Y-39204000I-50000J0D01*
G01*
G37*
%TD*%
%TO.C,D47*%
X272669000Y-121920000D03*
G36*
G01*
X278599000Y-121120000D02*
X278599000Y-122720000D01*
G75*
G02*
X278549000Y-122770000I-50000J0D01*
G01*
X276949000Y-122770000D01*
G75*
G02*
X276899000Y-122720000I0J50000D01*
G01*
X276899000Y-121120000D01*
G75*
G02*
X276949000Y-121070000I50000J0D01*
G01*
X278549000Y-121070000D01*
G75*
G02*
X278599000Y-121120000I0J-50000D01*
G01*
G37*
%TD*%
%TO.C,D46*%
X265366500Y-91186000D03*
G36*
G01*
X266166500Y-97116000D02*
X264566500Y-97116000D01*
G75*
G02*
X264516500Y-97066000I0J50000D01*
G01*
X264516500Y-95466000D01*
G75*
G02*
X264566500Y-95416000I50000J0D01*
G01*
X266166500Y-95416000D01*
G75*
G02*
X266216500Y-95466000I0J-50000D01*
G01*
X266216500Y-97066000D01*
G75*
G02*
X266166500Y-97116000I-50000J0D01*
G01*
G37*
%TD*%
%TO.C,D45*%
X274955000Y-71882000D03*
G36*
G01*
X275755000Y-77812000D02*
X274155000Y-77812000D01*
G75*
G02*
X274105000Y-77762000I0J50000D01*
G01*
X274105000Y-76162000D01*
G75*
G02*
X274155000Y-76112000I50000J0D01*
G01*
X275755000Y-76112000D01*
G75*
G02*
X275805000Y-76162000I0J-50000D01*
G01*
X275805000Y-77762000D01*
G75*
G02*
X275755000Y-77812000I-50000J0D01*
G01*
G37*
%TD*%
%TO.C,D44*%
X270129000Y-52641500D03*
G36*
G01*
X270929000Y-58571500D02*
X269329000Y-58571500D01*
G75*
G02*
X269279000Y-58521500I0J50000D01*
G01*
X269279000Y-56921500D01*
G75*
G02*
X269329000Y-56871500I50000J0D01*
G01*
X270929000Y-56871500D01*
G75*
G02*
X270979000Y-56921500I0J-50000D01*
G01*
X270979000Y-58521500D01*
G75*
G02*
X270929000Y-58571500I-50000J0D01*
G01*
G37*
%TD*%
%TO.C,D43*%
X260604000Y-33274000D03*
G36*
G01*
X261404000Y-39204000D02*
X259804000Y-39204000D01*
G75*
G02*
X259754000Y-39154000I0J50000D01*
G01*
X259754000Y-37554000D01*
G75*
G02*
X259804000Y-37504000I50000J0D01*
G01*
X261404000Y-37504000D01*
G75*
G02*
X261454000Y-37554000I0J-50000D01*
G01*
X261454000Y-39154000D01*
G75*
G02*
X261404000Y-39204000I-50000J0D01*
G01*
G37*
%TD*%
%TO.C,D42*%
X246316500Y-91186000D03*
G36*
G01*
X247116500Y-97116000D02*
X245516500Y-97116000D01*
G75*
G02*
X245466500Y-97066000I0J50000D01*
G01*
X245466500Y-95466000D01*
G75*
G02*
X245516500Y-95416000I50000J0D01*
G01*
X247116500Y-95416000D01*
G75*
G02*
X247166500Y-95466000I0J-50000D01*
G01*
X247166500Y-97066000D01*
G75*
G02*
X247116500Y-97116000I-50000J0D01*
G01*
G37*
%TD*%
%TO.C,D41*%
X255905000Y-71882000D03*
G36*
G01*
X256705000Y-77812000D02*
X255105000Y-77812000D01*
G75*
G02*
X255055000Y-77762000I0J50000D01*
G01*
X255055000Y-76162000D01*
G75*
G02*
X255105000Y-76112000I50000J0D01*
G01*
X256705000Y-76112000D01*
G75*
G02*
X256755000Y-76162000I0J-50000D01*
G01*
X256755000Y-77762000D01*
G75*
G02*
X256705000Y-77812000I-50000J0D01*
G01*
G37*
%TD*%
%TO.C,D40*%
X251015500Y-52641500D03*
G36*
G01*
X251815500Y-58571500D02*
X250215500Y-58571500D01*
G75*
G02*
X250165500Y-58521500I0J50000D01*
G01*
X250165500Y-56921500D01*
G75*
G02*
X250215500Y-56871500I50000J0D01*
G01*
X251815500Y-56871500D01*
G75*
G02*
X251865500Y-56921500I0J-50000D01*
G01*
X251865500Y-58521500D01*
G75*
G02*
X251815500Y-58571500I-50000J0D01*
G01*
G37*
%TD*%
%TO.C,D39*%
X241744500Y-33274000D03*
G36*
G01*
X242544500Y-39204000D02*
X240944500Y-39204000D01*
G75*
G02*
X240894500Y-39154000I0J50000D01*
G01*
X240894500Y-37554000D01*
G75*
G02*
X240944500Y-37504000I50000J0D01*
G01*
X242544500Y-37504000D01*
G75*
G02*
X242594500Y-37554000I0J-50000D01*
G01*
X242594500Y-39154000D01*
G75*
G02*
X242544500Y-39204000I-50000J0D01*
G01*
G37*
%TD*%
%TO.C,D38*%
X227266500Y-91186000D03*
G36*
G01*
X228066500Y-97116000D02*
X226466500Y-97116000D01*
G75*
G02*
X226416500Y-97066000I0J50000D01*
G01*
X226416500Y-95466000D01*
G75*
G02*
X226466500Y-95416000I50000J0D01*
G01*
X228066500Y-95416000D01*
G75*
G02*
X228116500Y-95466000I0J-50000D01*
G01*
X228116500Y-97066000D01*
G75*
G02*
X228066500Y-97116000I-50000J0D01*
G01*
G37*
%TD*%
%TO.C,D37*%
X236728000Y-71882000D03*
G36*
G01*
X237528000Y-77812000D02*
X235928000Y-77812000D01*
G75*
G02*
X235878000Y-77762000I0J50000D01*
G01*
X235878000Y-76162000D01*
G75*
G02*
X235928000Y-76112000I50000J0D01*
G01*
X237528000Y-76112000D01*
G75*
G02*
X237578000Y-76162000I0J-50000D01*
G01*
X237578000Y-77762000D01*
G75*
G02*
X237528000Y-77812000I-50000J0D01*
G01*
G37*
%TD*%
%TO.C,D36*%
X232029000Y-52641500D03*
G36*
G01*
X232829000Y-58571500D02*
X231229000Y-58571500D01*
G75*
G02*
X231179000Y-58521500I0J50000D01*
G01*
X231179000Y-56921500D01*
G75*
G02*
X231229000Y-56871500I50000J0D01*
G01*
X232829000Y-56871500D01*
G75*
G02*
X232879000Y-56921500I0J-50000D01*
G01*
X232879000Y-58521500D01*
G75*
G02*
X232829000Y-58571500I-50000J0D01*
G01*
G37*
%TD*%
%TO.C,D35*%
X222504000Y-33274000D03*
G36*
G01*
X223304000Y-39204000D02*
X221704000Y-39204000D01*
G75*
G02*
X221654000Y-39154000I0J50000D01*
G01*
X221654000Y-37554000D01*
G75*
G02*
X221704000Y-37504000I50000J0D01*
G01*
X223304000Y-37504000D01*
G75*
G02*
X223354000Y-37554000I0J-50000D01*
G01*
X223354000Y-39154000D01*
G75*
G02*
X223304000Y-39204000I-50000J0D01*
G01*
G37*
%TD*%
%TO.C,D34*%
X208280000Y-91186000D03*
G36*
G01*
X209080000Y-97116000D02*
X207480000Y-97116000D01*
G75*
G02*
X207430000Y-97066000I0J50000D01*
G01*
X207430000Y-95466000D01*
G75*
G02*
X207480000Y-95416000I50000J0D01*
G01*
X209080000Y-95416000D01*
G75*
G02*
X209130000Y-95466000I0J-50000D01*
G01*
X209130000Y-97066000D01*
G75*
G02*
X209080000Y-97116000I-50000J0D01*
G01*
G37*
%TD*%
%TO.C,D33*%
X217741500Y-71882000D03*
G36*
G01*
X218541500Y-77812000D02*
X216941500Y-77812000D01*
G75*
G02*
X216891500Y-77762000I0J50000D01*
G01*
X216891500Y-76162000D01*
G75*
G02*
X216941500Y-76112000I50000J0D01*
G01*
X218541500Y-76112000D01*
G75*
G02*
X218591500Y-76162000I0J-50000D01*
G01*
X218591500Y-77762000D01*
G75*
G02*
X218541500Y-77812000I-50000J0D01*
G01*
G37*
%TD*%
%TO.C,D32*%
X213042500Y-52641500D03*
G36*
G01*
X213842500Y-58571500D02*
X212242500Y-58571500D01*
G75*
G02*
X212192500Y-58521500I0J50000D01*
G01*
X212192500Y-56921500D01*
G75*
G02*
X212242500Y-56871500I50000J0D01*
G01*
X213842500Y-56871500D01*
G75*
G02*
X213892500Y-56921500I0J-50000D01*
G01*
X213892500Y-58521500D01*
G75*
G02*
X213842500Y-58571500I-50000J0D01*
G01*
G37*
%TD*%
%TO.C,D31*%
X203454000Y-33274000D03*
G36*
G01*
X204254000Y-39204000D02*
X202654000Y-39204000D01*
G75*
G02*
X202604000Y-39154000I0J50000D01*
G01*
X202604000Y-37554000D01*
G75*
G02*
X202654000Y-37504000I50000J0D01*
G01*
X204254000Y-37504000D01*
G75*
G02*
X204304000Y-37554000I0J-50000D01*
G01*
X204304000Y-39154000D01*
G75*
G02*
X204254000Y-39204000I-50000J0D01*
G01*
G37*
%TD*%
%TO.C,D30*%
X260604000Y-109982000D03*
G36*
G01*
X261404000Y-115912000D02*
X259804000Y-115912000D01*
G75*
G02*
X259754000Y-115862000I0J50000D01*
G01*
X259754000Y-114262000D01*
G75*
G02*
X259804000Y-114212000I50000J0D01*
G01*
X261404000Y-114212000D01*
G75*
G02*
X261454000Y-114262000I0J-50000D01*
G01*
X261454000Y-115862000D01*
G75*
G02*
X261404000Y-115912000I-50000J0D01*
G01*
G37*
%TD*%
%TO.C,D29*%
X189166500Y-91186000D03*
G36*
G01*
X189966500Y-97116000D02*
X188366500Y-97116000D01*
G75*
G02*
X188316500Y-97066000I0J50000D01*
G01*
X188316500Y-95466000D01*
G75*
G02*
X188366500Y-95416000I50000J0D01*
G01*
X189966500Y-95416000D01*
G75*
G02*
X190016500Y-95466000I0J-50000D01*
G01*
X190016500Y-97066000D01*
G75*
G02*
X189966500Y-97116000I-50000J0D01*
G01*
G37*
%TD*%
%TO.C,D28*%
X198628000Y-71882000D03*
G36*
G01*
X199428000Y-77812000D02*
X197828000Y-77812000D01*
G75*
G02*
X197778000Y-77762000I0J50000D01*
G01*
X197778000Y-76162000D01*
G75*
G02*
X197828000Y-76112000I50000J0D01*
G01*
X199428000Y-76112000D01*
G75*
G02*
X199478000Y-76162000I0J-50000D01*
G01*
X199478000Y-77762000D01*
G75*
G02*
X199428000Y-77812000I-50000J0D01*
G01*
G37*
%TD*%
%TO.C,D27*%
X193929000Y-52641500D03*
G36*
G01*
X194729000Y-58571500D02*
X193129000Y-58571500D01*
G75*
G02*
X193079000Y-58521500I0J50000D01*
G01*
X193079000Y-56921500D01*
G75*
G02*
X193129000Y-56871500I50000J0D01*
G01*
X194729000Y-56871500D01*
G75*
G02*
X194779000Y-56921500I0J-50000D01*
G01*
X194779000Y-58521500D01*
G75*
G02*
X194729000Y-58571500I-50000J0D01*
G01*
G37*
%TD*%
%TO.C,D26*%
X184340500Y-33274000D03*
G36*
G01*
X185140500Y-39204000D02*
X183540500Y-39204000D01*
G75*
G02*
X183490500Y-39154000I0J50000D01*
G01*
X183490500Y-37554000D01*
G75*
G02*
X183540500Y-37504000I50000J0D01*
G01*
X185140500Y-37504000D01*
G75*
G02*
X185190500Y-37554000I0J-50000D01*
G01*
X185190500Y-39154000D01*
G75*
G02*
X185140500Y-39204000I-50000J0D01*
G01*
G37*
%TD*%
%TO.C,D25*%
X170116500Y-91186000D03*
G36*
G01*
X170916500Y-97116000D02*
X169316500Y-97116000D01*
G75*
G02*
X169266500Y-97066000I0J50000D01*
G01*
X169266500Y-95466000D01*
G75*
G02*
X169316500Y-95416000I50000J0D01*
G01*
X170916500Y-95416000D01*
G75*
G02*
X170966500Y-95466000I0J-50000D01*
G01*
X170966500Y-97066000D01*
G75*
G02*
X170916500Y-97116000I-50000J0D01*
G01*
G37*
%TD*%
%TO.C,D24*%
X179578000Y-71882000D03*
G36*
G01*
X180378000Y-77812000D02*
X178778000Y-77812000D01*
G75*
G02*
X178728000Y-77762000I0J50000D01*
G01*
X178728000Y-76162000D01*
G75*
G02*
X178778000Y-76112000I50000J0D01*
G01*
X180378000Y-76112000D01*
G75*
G02*
X180428000Y-76162000I0J-50000D01*
G01*
X180428000Y-77762000D01*
G75*
G02*
X180378000Y-77812000I-50000J0D01*
G01*
G37*
%TD*%
%TO.C,D23*%
X174879000Y-52641500D03*
G36*
G01*
X175679000Y-58571500D02*
X174079000Y-58571500D01*
G75*
G02*
X174029000Y-58521500I0J50000D01*
G01*
X174029000Y-56921500D01*
G75*
G02*
X174079000Y-56871500I50000J0D01*
G01*
X175679000Y-56871500D01*
G75*
G02*
X175729000Y-56921500I0J-50000D01*
G01*
X175729000Y-58521500D01*
G75*
G02*
X175679000Y-58571500I-50000J0D01*
G01*
G37*
%TD*%
%TO.C,D22*%
X165354000Y-33274000D03*
G36*
G01*
X166154000Y-39204000D02*
X164554000Y-39204000D01*
G75*
G02*
X164504000Y-39154000I0J50000D01*
G01*
X164504000Y-37554000D01*
G75*
G02*
X164554000Y-37504000I50000J0D01*
G01*
X166154000Y-37504000D01*
G75*
G02*
X166204000Y-37554000I0J-50000D01*
G01*
X166204000Y-39154000D01*
G75*
G02*
X166154000Y-39204000I-50000J0D01*
G01*
G37*
%TD*%
%TO.C,D21*%
X151130000Y-91186000D03*
G36*
G01*
X151930000Y-97116000D02*
X150330000Y-97116000D01*
G75*
G02*
X150280000Y-97066000I0J50000D01*
G01*
X150280000Y-95466000D01*
G75*
G02*
X150330000Y-95416000I50000J0D01*
G01*
X151930000Y-95416000D01*
G75*
G02*
X151980000Y-95466000I0J-50000D01*
G01*
X151980000Y-97066000D01*
G75*
G02*
X151930000Y-97116000I-50000J0D01*
G01*
G37*
%TD*%
%TO.C,D20*%
X160655000Y-71882000D03*
G36*
G01*
X161455000Y-77812000D02*
X159855000Y-77812000D01*
G75*
G02*
X159805000Y-77762000I0J50000D01*
G01*
X159805000Y-76162000D01*
G75*
G02*
X159855000Y-76112000I50000J0D01*
G01*
X161455000Y-76112000D01*
G75*
G02*
X161505000Y-76162000I0J-50000D01*
G01*
X161505000Y-77762000D01*
G75*
G02*
X161455000Y-77812000I-50000J0D01*
G01*
G37*
%TD*%
%TO.C,D19*%
X155892500Y-52641500D03*
G36*
G01*
X156692500Y-58571500D02*
X155092500Y-58571500D01*
G75*
G02*
X155042500Y-58521500I0J50000D01*
G01*
X155042500Y-56921500D01*
G75*
G02*
X155092500Y-56871500I50000J0D01*
G01*
X156692500Y-56871500D01*
G75*
G02*
X156742500Y-56921500I0J-50000D01*
G01*
X156742500Y-58521500D01*
G75*
G02*
X156692500Y-58571500I-50000J0D01*
G01*
G37*
%TD*%
%TO.C,D18*%
X146304000Y-33274000D03*
G36*
G01*
X147104000Y-39204000D02*
X145504000Y-39204000D01*
G75*
G02*
X145454000Y-39154000I0J50000D01*
G01*
X145454000Y-37554000D01*
G75*
G02*
X145504000Y-37504000I50000J0D01*
G01*
X147104000Y-37504000D01*
G75*
G02*
X147154000Y-37554000I0J-50000D01*
G01*
X147154000Y-39154000D01*
G75*
G02*
X147104000Y-39204000I-50000J0D01*
G01*
G37*
%TD*%
%TO.C,D17*%
X141541500Y-109982000D03*
G36*
G01*
X142341500Y-115912000D02*
X140741500Y-115912000D01*
G75*
G02*
X140691500Y-115862000I0J50000D01*
G01*
X140691500Y-114262000D01*
G75*
G02*
X140741500Y-114212000I50000J0D01*
G01*
X142341500Y-114212000D01*
G75*
G02*
X142391500Y-114262000I0J-50000D01*
G01*
X142391500Y-115862000D01*
G75*
G02*
X142341500Y-115912000I-50000J0D01*
G01*
G37*
%TD*%
%TO.C,D16*%
X132080000Y-91186000D03*
G36*
G01*
X132880000Y-97116000D02*
X131280000Y-97116000D01*
G75*
G02*
X131230000Y-97066000I0J50000D01*
G01*
X131230000Y-95466000D01*
G75*
G02*
X131280000Y-95416000I50000J0D01*
G01*
X132880000Y-95416000D01*
G75*
G02*
X132930000Y-95466000I0J-50000D01*
G01*
X132930000Y-97066000D01*
G75*
G02*
X132880000Y-97116000I-50000J0D01*
G01*
G37*
%TD*%
%TO.C,D15*%
X141541500Y-71882000D03*
G36*
G01*
X142341500Y-77812000D02*
X140741500Y-77812000D01*
G75*
G02*
X140691500Y-77762000I0J50000D01*
G01*
X140691500Y-76162000D01*
G75*
G02*
X140741500Y-76112000I50000J0D01*
G01*
X142341500Y-76112000D01*
G75*
G02*
X142391500Y-76162000I0J-50000D01*
G01*
X142391500Y-77762000D01*
G75*
G02*
X142341500Y-77812000I-50000J0D01*
G01*
G37*
%TD*%
%TO.C,D14*%
X136779000Y-52641500D03*
G36*
G01*
X137579000Y-58571500D02*
X135979000Y-58571500D01*
G75*
G02*
X135929000Y-58521500I0J50000D01*
G01*
X135929000Y-56921500D01*
G75*
G02*
X135979000Y-56871500I50000J0D01*
G01*
X137579000Y-56871500D01*
G75*
G02*
X137629000Y-56921500I0J-50000D01*
G01*
X137629000Y-58521500D01*
G75*
G02*
X137579000Y-58571500I-50000J0D01*
G01*
G37*
%TD*%
%TO.C,D13*%
X127317500Y-33274000D03*
G36*
G01*
X128117500Y-39204000D02*
X126517500Y-39204000D01*
G75*
G02*
X126467500Y-39154000I0J50000D01*
G01*
X126467500Y-37554000D01*
G75*
G02*
X126517500Y-37504000I50000J0D01*
G01*
X128117500Y-37504000D01*
G75*
G02*
X128167500Y-37554000I0J-50000D01*
G01*
X128167500Y-39154000D01*
G75*
G02*
X128117500Y-39204000I-50000J0D01*
G01*
G37*
%TD*%
%TO.C,D12*%
X108394500Y-121920000D03*
G36*
G01*
X114324500Y-121120000D02*
X114324500Y-122720000D01*
G75*
G02*
X114274500Y-122770000I-50000J0D01*
G01*
X112674500Y-122770000D01*
G75*
G02*
X112624500Y-122720000I0J50000D01*
G01*
X112624500Y-121120000D01*
G75*
G02*
X112674500Y-121070000I50000J0D01*
G01*
X114274500Y-121070000D01*
G75*
G02*
X114324500Y-121120000I0J-50000D01*
G01*
G37*
%TD*%
%TO.C,D11*%
X112966500Y-91186000D03*
G36*
G01*
X113766500Y-97116000D02*
X112166500Y-97116000D01*
G75*
G02*
X112116500Y-97066000I0J50000D01*
G01*
X112116500Y-95466000D01*
G75*
G02*
X112166500Y-95416000I50000J0D01*
G01*
X113766500Y-95416000D01*
G75*
G02*
X113816500Y-95466000I0J-50000D01*
G01*
X113816500Y-97066000D01*
G75*
G02*
X113766500Y-97116000I-50000J0D01*
G01*
G37*
%TD*%
%TO.C,D10*%
X122491500Y-71882000D03*
G36*
G01*
X123291500Y-77812000D02*
X121691500Y-77812000D01*
G75*
G02*
X121641500Y-77762000I0J50000D01*
G01*
X121641500Y-76162000D01*
G75*
G02*
X121691500Y-76112000I50000J0D01*
G01*
X123291500Y-76112000D01*
G75*
G02*
X123341500Y-76162000I0J-50000D01*
G01*
X123341500Y-77762000D01*
G75*
G02*
X123291500Y-77812000I-50000J0D01*
G01*
G37*
%TD*%
%TO.C,D9*%
X117729000Y-52641500D03*
G36*
G01*
X118529000Y-58571500D02*
X116929000Y-58571500D01*
G75*
G02*
X116879000Y-58521500I0J50000D01*
G01*
X116879000Y-56921500D01*
G75*
G02*
X116929000Y-56871500I50000J0D01*
G01*
X118529000Y-56871500D01*
G75*
G02*
X118579000Y-56921500I0J-50000D01*
G01*
X118579000Y-58521500D01*
G75*
G02*
X118529000Y-58571500I-50000J0D01*
G01*
G37*
%TD*%
%TO.C,D8*%
X108204000Y-33274000D03*
G36*
G01*
X109004000Y-39204000D02*
X107404000Y-39204000D01*
G75*
G02*
X107354000Y-39154000I0J50000D01*
G01*
X107354000Y-37554000D01*
G75*
G02*
X107404000Y-37504000I50000J0D01*
G01*
X109004000Y-37504000D01*
G75*
G02*
X109054000Y-37554000I0J-50000D01*
G01*
X109054000Y-39154000D01*
G75*
G02*
X109004000Y-39204000I-50000J0D01*
G01*
G37*
%TD*%
%TO.C,D7*%
X93980000Y-109982000D03*
G36*
G01*
X94780000Y-115912000D02*
X93180000Y-115912000D01*
G75*
G02*
X93130000Y-115862000I0J50000D01*
G01*
X93130000Y-114262000D01*
G75*
G02*
X93180000Y-114212000I50000J0D01*
G01*
X94780000Y-114212000D01*
G75*
G02*
X94830000Y-114262000I0J-50000D01*
G01*
X94830000Y-115862000D01*
G75*
G02*
X94780000Y-115912000I-50000J0D01*
G01*
G37*
%TD*%
%TO.C,D6*%
X70104000Y-91186000D03*
G36*
G01*
X70904000Y-97116000D02*
X69304000Y-97116000D01*
G75*
G02*
X69254000Y-97066000I0J50000D01*
G01*
X69254000Y-95466000D01*
G75*
G02*
X69304000Y-95416000I50000J0D01*
G01*
X70904000Y-95416000D01*
G75*
G02*
X70954000Y-95466000I0J-50000D01*
G01*
X70954000Y-97066000D01*
G75*
G02*
X70904000Y-97116000I-50000J0D01*
G01*
G37*
%TD*%
%TO.C,D5*%
X103505000Y-71882000D03*
G36*
G01*
X104305000Y-77812000D02*
X102705000Y-77812000D01*
G75*
G02*
X102655000Y-77762000I0J50000D01*
G01*
X102655000Y-76162000D01*
G75*
G02*
X102705000Y-76112000I50000J0D01*
G01*
X104305000Y-76112000D01*
G75*
G02*
X104355000Y-76162000I0J-50000D01*
G01*
X104355000Y-77762000D01*
G75*
G02*
X104305000Y-77812000I-50000J0D01*
G01*
G37*
%TD*%
%TO.C,D4*%
X98679000Y-52641500D03*
G36*
G01*
X99479000Y-58571500D02*
X97879000Y-58571500D01*
G75*
G02*
X97829000Y-58521500I0J50000D01*
G01*
X97829000Y-56921500D01*
G75*
G02*
X97879000Y-56871500I50000J0D01*
G01*
X99479000Y-56871500D01*
G75*
G02*
X99529000Y-56921500I0J-50000D01*
G01*
X99529000Y-58521500D01*
G75*
G02*
X99479000Y-58571500I-50000J0D01*
G01*
G37*
%TD*%
%TO.C,D3*%
X89154000Y-33274000D03*
G36*
G01*
X89954000Y-39204000D02*
X88354000Y-39204000D01*
G75*
G02*
X88304000Y-39154000I0J50000D01*
G01*
X88304000Y-37554000D01*
G75*
G02*
X88354000Y-37504000I50000J0D01*
G01*
X89954000Y-37504000D01*
G75*
G02*
X90004000Y-37554000I0J-50000D01*
G01*
X90004000Y-39154000D01*
G75*
G02*
X89954000Y-39204000I-50000J0D01*
G01*
G37*
%TD*%
%TO.C,D2*%
X35306000Y-36068000D03*
G36*
G01*
X41236000Y-35268000D02*
X41236000Y-36868000D01*
G75*
G02*
X41186000Y-36918000I-50000J0D01*
G01*
X39586000Y-36918000D01*
G75*
G02*
X39536000Y-36868000I0J50000D01*
G01*
X39536000Y-35268000D01*
G75*
G02*
X39586000Y-35218000I50000J0D01*
G01*
X41186000Y-35218000D01*
G75*
G02*
X41236000Y-35268000I0J-50000D01*
G01*
G37*
%TD*%
%TO.C,D1*%
X48514000Y-36068000D03*
G36*
G01*
X42584000Y-36868000D02*
X42584000Y-35268000D01*
G75*
G02*
X42634000Y-35218000I50000J0D01*
G01*
X44234000Y-35218000D01*
G75*
G02*
X44284000Y-35268000I0J-50000D01*
G01*
X44284000Y-36868000D01*
G75*
G02*
X44234000Y-36918000I-50000J0D01*
G01*
X42634000Y-36918000D01*
G75*
G02*
X42584000Y-36868000I0J50000D01*
G01*
G37*
%TD*%
D23*
%TO.C,C5*%
X59356000Y-26162000D03*
X54356000Y-26162000D03*
%TD*%
%TO.C,C4*%
X59356000Y-30480000D03*
X54356000Y-30480000D03*
%TD*%
D24*
%TO.C,C3*%
X56642000Y-36044000D03*
G36*
G01*
X56042000Y-33894000D02*
X57242000Y-33894000D01*
G75*
G02*
X57292000Y-33944000I0J-50000D01*
G01*
X57292000Y-35144000D01*
G75*
G02*
X57242000Y-35194000I-50000J0D01*
G01*
X56042000Y-35194000D01*
G75*
G02*
X55992000Y-35144000I0J50000D01*
G01*
X55992000Y-33944000D01*
G75*
G02*
X56042000Y-33894000I50000J0D01*
G01*
G37*
%TD*%
D23*
%TO.C,C2*%
X34798000Y-75605000D03*
X34798000Y-78105000D03*
%TD*%
%TO.C,C1*%
X34798000Y-69255000D03*
X34798000Y-71755000D03*
%TD*%
D19*
%TO.C,Boot1*%
X34648000Y-97972000D03*
X34648000Y-93472000D03*
X41148000Y-97972000D03*
X41148000Y-93472000D03*
%TD*%
M02*
