M48
; DRILL file {KiCad (5.1.9-0-10_14)} date Friday, January 15, 2021 at 04:46:20 PM
; FORMAT={-:-/ absolute / inch / decimal}
; #@! TF.CreationDate,2021-01-15T16:46:20+00:00
; #@! TF.GenerationSoftware,Kicad,Pcbnew,(5.1.9-0-10_14)
; #@! TF.FileFunction,NonPlated,1,2,NPTH
FMAT,2
INCH
T1C0.0689
T2C0.0866
T3C0.1200
T4C0.1570
%
G90
G05
T1
X2.935Y-1.425
X3.0288Y-3.675
X3.0288Y-2.925
X3.03Y-4.425
X3.1225Y-2.175
X3.1225Y-4.425
X3.2163Y-2.925
X3.335Y-1.425
X3.4038Y-3.675
X3.4288Y-3.675
X3.4288Y-2.925
X3.43Y-4.425
X3.5225Y-2.175
X3.5225Y-4.425
X3.6163Y-2.925
X3.685Y-1.425
X3.8038Y-3.675
X3.8725Y-3.675
X3.9675Y-4.425
X4.06Y-2.175
X4.085Y-1.425
X4.2475Y-2.925
X4.2475Y-4.425
X4.2725Y-3.675
X4.3675Y-4.425
X4.435Y-1.425
X4.46Y-2.175
X4.6225Y-3.675
X4.6475Y-2.925
X4.6475Y-4.425
X4.81Y-2.175
X4.835Y-1.425
X4.905Y-4.425
X4.9975Y-2.925
X5.0225Y-3.675
X5.185Y-1.425
X5.21Y-2.175
X5.305Y-4.425
X5.3725Y-3.675
X5.3975Y-2.925
X5.56Y-2.175
X5.585Y-1.425
X5.7475Y-2.925
X5.7725Y-3.675
X5.935Y-1.425
X5.96Y-2.175
X6.1225Y-3.675
X6.1475Y-2.925
X6.31Y-2.175
X6.335Y-1.425
X6.4975Y-2.925
X6.5225Y-3.675
X6.685Y-1.425
X6.71Y-2.175
X6.8725Y-3.675
X6.8975Y-2.925
X7.06Y-2.175
X7.085Y-1.425
X7.2475Y-2.925
X7.2725Y-3.675
X7.435Y-1.425
X7.435Y-4.425
X7.46Y-2.175
X7.6225Y-3.675
X7.6475Y-2.925
X7.7175Y-4.425
X7.81Y-2.175
X7.835Y-1.425
X7.835Y-4.425
X7.9975Y-2.925
X8.0225Y-3.675
X8.1175Y-4.425
X8.185Y-1.425
X8.21Y-2.175
X8.3725Y-3.675
X8.3975Y-2.925
X8.56Y-2.175
X8.585Y-1.425
X8.7475Y-2.925
X8.7725Y-3.675
X8.935Y-1.425
X8.96Y-2.175
X9.1225Y-3.675
X9.1475Y-2.925
X9.31Y-2.175
X9.335Y-1.425
X9.4975Y-2.925
X9.5225Y-3.675
X9.685Y-1.425
X9.71Y-2.175
X9.8725Y-3.675
X9.8975Y-2.925
X10.06Y-2.175
X10.085Y-1.425
X10.2475Y-2.925
X10.2725Y-3.675
X10.435Y-1.425
X10.435Y-4.425
X10.46Y-2.175
X10.6225Y-3.675
X10.6225Y-4.425
X10.6475Y-2.925
X10.81Y-2.175
X10.835Y-1.425
X10.835Y-4.425
X10.9975Y-2.925
X11.0225Y-3.675
X11.0225Y-4.425
X11.185Y-1.425
X11.185Y-4.425
X11.21Y-2.175
X11.3725Y-3.675
X11.3975Y-2.925
X11.56Y-2.175
X11.585Y-1.425
X11.585Y-4.425
X11.7475Y-2.925
X11.7475Y-4.425
X11.7725Y-3.675
X11.935Y-1.425
X11.935Y-4.425
X11.96Y-2.175
X12.1475Y-2.925
X12.1475Y-4.425
X12.31Y-2.175
X12.335Y-1.425
X12.335Y-4.425
X12.4038Y-3.675
X12.4975Y-2.925
X12.685Y-4.425
X12.71Y-2.175
X12.8038Y-3.675
X12.8975Y-2.925
X12.9663Y-2.925
X13.06Y-1.425
X13.085Y-4.425
X13.2475Y-2.175
X13.3663Y-2.925
X13.435Y-3.675
X13.435Y-4.425
X13.46Y-1.425
X13.5412Y-2.35
X13.5412Y-2.75
X13.6475Y-2.175
X13.835Y-3.675
X13.835Y-4.425
X14.185Y-1.425
X14.185Y-2.175
X14.185Y-2.925
X14.185Y-3.675
X14.185Y-4.425
X14.585Y-1.425
X14.585Y-2.175
X14.585Y-2.925
X14.585Y-3.675
X14.585Y-4.425
T2
X1.2Y-1.0
X1.2Y-4.8
X2.5591Y-1.0
X2.5591Y-4.8
X8.7205Y-1.0
X8.7205Y-4.8
X14.8819Y-1.0
X14.8819Y-4.8
T3
X3.135Y-3.4
X4.0725Y-3.4
X5.385Y-4.15
X5.949Y-4.15
X9.885Y-4.15
X9.886Y-4.15
X12.6975Y-2.65
X12.7912Y-1.15
X13.635Y-2.65
X13.7287Y-1.15
X13.8162Y-2.08
X13.8162Y-3.02
T4
X3.135Y-1.425
X3.135Y-4.0
X3.2288Y-3.675
X3.2288Y-2.925
X3.23Y-4.425
X3.3225Y-2.175
X3.3225Y-4.425
X3.4163Y-2.925
X3.6038Y-3.675
X3.885Y-1.425
X4.0725Y-3.675
X4.0725Y-4.0
X4.1675Y-4.425
X4.26Y-2.175
X4.4475Y-2.925
X4.4475Y-4.425
X4.635Y-1.425
X4.8225Y-3.675
X5.01Y-2.175
X5.105Y-4.425
X5.1975Y-2.925
X5.385Y-1.425
X5.385Y-4.75
X5.5725Y-3.675
X5.76Y-2.175
X5.9475Y-2.925
X5.949Y-4.75
X6.135Y-1.425
X6.3225Y-3.675
X6.51Y-2.175
X6.6975Y-2.925
X6.885Y-1.425
X7.0725Y-3.675
X7.26Y-2.175
X7.4475Y-2.925
X7.635Y-1.425
X7.635Y-4.425
X7.8225Y-3.675
X7.9175Y-4.425
X8.01Y-2.175
X8.1975Y-2.925
X8.385Y-1.425
X8.5725Y-3.675
X8.76Y-2.175
X8.9475Y-2.925
X9.135Y-1.425
X9.3225Y-3.675
X9.51Y-2.175
X9.6975Y-2.925
X9.885Y-1.425
X9.885Y-4.75
X9.886Y-4.75
X10.0725Y-3.675
X10.26Y-2.175
X10.4475Y-2.925
X10.635Y-1.425
X10.635Y-4.425
X10.8225Y-3.675
X10.8225Y-4.425
X11.01Y-2.175
X11.1975Y-2.925
X11.385Y-1.425
X11.385Y-4.425
X11.5725Y-3.675
X11.76Y-2.175
X11.9475Y-2.925
X11.9475Y-4.425
X12.135Y-1.425
X12.135Y-4.425
X12.51Y-2.175
X12.6038Y-3.675
X12.6975Y-2.925
X12.6975Y-3.25
X12.7912Y-1.75
X12.885Y-4.425
X13.1663Y-2.925
X13.2162Y-2.08
X13.2162Y-3.02
X13.26Y-1.425
X13.4475Y-2.175
X13.5412Y-2.55
X13.635Y-3.675
X13.635Y-4.425
X13.635Y-3.25
X13.7287Y-1.75
X14.385Y-1.425
X14.385Y-2.175
X14.385Y-2.925
X14.385Y-3.675
X14.385Y-4.425
T0
M30
